Pacifico-Regular.ufo
<glyph name="exclam" format="1">
  <advance width="1132"/>
  <unicode hex="0021"/>
  <outline>
    <contour>
      <point x="642" y="492" type="curve" smooth="yes"/>
      <point x="675" y="492"/>
      <point x="694" y="504"/>
      <point x="716" y="562" type="curve" smooth="yes"/>
      <point x="1095" y="1540" type="line" smooth="yes"/>
      <point x="1160" y="1709"/>
      <point x="1239" y="1875"/>
      <point x="1049" y="1896" type="curve" smooth="yes"/>
      <point x="957" y="1906"/>
      <point x="896" y="1844"/>
      <point x="876" y="1758" type="curve" smooth="yes"/>
      <point x="598" y="552" type="line" smooth="yes"/>
      <point x="596" y="545"/>
      <point x="596" y="540"/>
      <point x="596" y="537" type="curve" smooth="yes"/>
      <point x="596" y="505"/>
      <point x="617" y="492"/>
    </contour>
    <contour>
      <point x="578" y="-2" type="curve" smooth="yes"/>
      <point x="694" y="-2"/>
      <point x="759" y="81"/>
      <point x="759" y="191" type="curve" smooth="yes"/>
      <point x="759" y="295"/>
      <point x="701" y="353"/>
      <point x="597" y="353" type="curve" smooth="yes"/>
      <point x="480" y="353"/>
      <point x="414" y="277"/>
      <point x="414" y="162" type="curve" smooth="yes"/>
      <point x="414" y="55"/>
      <point x="472" y="-2"/>
    </contour>
  </outline>
</glyph>
<glyph name="numbersign" format="1">
  <advance width="1248"/>
  <unicode hex="0023"/>
  <outline>
    <contour>
      <point x="257" y="-35" type="curve" smooth="yes"/>
      <point x="329" y="-35"/>
      <point x="361" y="1"/>
      <point x="387" y="51" type="curve" smooth="yes"/>
      <point x="453" y="182"/>
      <point x="515" y="313"/>
      <point x="576" y="445" type="curve"/>
      <point x="685" y="445"/>
      <point x="795" y="446"/>
      <point x="900" y="447" type="curve"/>
      <point x="782" y="111"/>
      <point x="779" y="109"/>
      <point x="779" y="60" type="curve" smooth="yes"/>
      <point x="779" y="-8"/>
      <point x="819" y="-31"/>
      <point x="885" y="-31" type="curve" smooth="yes"/>
      <point x="954" y="-31"/>
      <point x="985.999" y="3"/>
      <point x="1007" y="55" type="curve" smooth="yes"/>
      <point x="1061" y="186"/>
      <point x="1112" y="316"/>
      <point x="1161" y="448" type="curve"/>
      <point x="1164" y="448" type="line" smooth="yes"/>
      <point x="1298" y="448"/>
      <point x="1410" y="481"/>
      <point x="1410" y="609" type="curve" smooth="yes"/>
      <point x="1410" y="655"/>
      <point x="1373" y="669"/>
      <point x="1328" y="673" type="curve"/>
      <point x="1241" y="673" type="line"/>
      <point x="1275" y="769"/>
      <point x="1308" y="864"/>
      <point x="1339" y="960" type="curve"/>
      <point x="1515" y="960"/>
      <point x="1621" y="989"/>
      <point x="1621" y="1123" type="curve" smooth="yes"/>
      <point x="1621" y="1170"/>
      <point x="1588" y="1185"/>
      <point x="1539" y="1185" type="curve" smooth="yes"/>
      <point x="1413" y="1185" type="line"/>
      <point x="1444" y="1325"/>
      <point x="1533" y="1467"/>
      <point x="1533" y="1550" type="curve" smooth="yes"/>
      <point x="1533" y="1596"/>
      <point x="1521" y="1635"/>
      <point x="1468" y="1635" type="curve" smooth="yes"/>
      <point x="1250" y="1635"/>
      <point x="1222" y="1352"/>
      <point x="1163" y="1185" type="curve"/>
      <point x="1074" y="1185"/>
      <point x="981.999" y="1184"/>
      <point x="894" y="1184" type="curve"/>
      <point x="939" y="1291"/>
      <point x="1044" y="1513"/>
      <point x="1044" y="1546" type="curve" smooth="yes"/>
      <point x="1044" y="1594"/>
      <point x="1036" y="1631"/>
      <point x="986.999" y="1631" type="curve" smooth="yes"/>
      <point x="885" y="1631"/>
      <point x="812" y="1562"/>
      <point x="782" y="1490" type="curve" smooth="yes"/>
      <point x="644" y="1184" type="line"/>
      <point x="475" y="1184"/>
      <point x="349" y="1182"/>
      <point x="349" y="1068" type="curve" smooth="yes"/>
      <point x="349" y="982"/>
      <point x="404" y="960"/>
      <point x="545" y="960" type="curve"/>
      <point x="416" y="672" type="line"/>
      <point x="268" y="672"/>
      <point x="166" y="662"/>
      <point x="166" y="556" type="curve" smooth="yes"/>
      <point x="166" y="482"/>
      <point x="259" y="450"/>
      <point x="332" y="450" type="curve" smooth="yes"/>
      <point x="332" y="450"/>
      <point x="211" y="234"/>
      <point x="173" y="93" type="curve" smooth="yes"/>
      <point x="143" y="-16"/>
      <point x="198" y="-35"/>
    </contour>
    <contour>
      <point x="676" y="669" type="curve"/>
      <point x="719" y="768"/>
      <point x="759" y="863"/>
      <point x="800" y="960" type="curve"/>
      <point x="1083" y="960" type="line"/>
      <point x="1014" y="765"/>
      <point x="996.999" y="717"/>
      <point x="979.999" y="670" type="curve"/>
      <point x="929" y="669"/>
      <point x="878" y="669"/>
    </contour>
  </outline>
</glyph>
<glyph name="dollar" format="1">
  <advance width="1735"/>
  <unicode hex="0024"/>
  <outline>
    <contour>
      <point x="862" y="-225" type="curve" smooth="yes"/>
      <point x="919" y="-225"/>
      <point x="948" y="-204"/>
      <point x="962" y="-158" type="curve"/>
      <point x="991.999" y="4" type="line"/>
      <point x="1292" y="31"/>
      <point x="1537" y="182"/>
      <point x="1537" y="507" type="curve" smooth="yes"/>
      <point x="1537" y="754"/>
      <point x="1324" y="873"/>
      <point x="1163" y="966" type="curve"/>
      <point x="1259" y="1523" type="line"/>
      <point x="1349" y="1506"/>
      <point x="1457" y="1463"/>
      <point x="1457" y="1374" type="curve" smooth="yes"/>
      <point x="1457" y="1293"/>
      <point x="1505" y="1227"/>
      <point x="1584" y="1227" type="curve" smooth="yes"/>
      <point x="1661" y="1227"/>
      <point x="1697" y="1294"/>
      <point x="1697" y="1374" type="curve" smooth="yes"/>
      <point x="1697" y="1590"/>
      <point x="1479" y="1691"/>
      <point x="1293" y="1728" type="curve"/>
      <point x="1308" y="1820" type="line" smooth="yes"/>
      <point x="1312" y="1847"/>
      <point x="1317" y="1877"/>
      <point x="1317" y="1906" type="curve" smooth="yes"/>
      <point x="1317" y="1945"/>
      <point x="1291" y="1984"/>
      <point x="1250" y="1984" type="curve" smooth="yes"/>
      <point x="1172" y="1984"/>
      <point x="1116" y="1938"/>
      <point x="1106" y="1872" type="curve" smooth="yes"/>
      <point x="1084" y="1743" type="line"/>
      <point x="792" y="1731"/>
      <point x="496" y="1587"/>
      <point x="496" y="1294" type="curve" smooth="yes"/>
      <point x="496" y="1049"/>
      <point x="756" y="941"/>
      <point x="923" y="853" type="curve"/>
      <point x="807" y="210" type="line"/>
      <point x="651" y="222"/>
      <point x="496" y="270"/>
      <point x="496" y="420" type="curve" smooth="yes"/>
      <point x="496" y="529"/>
      <point x="543" y="598"/>
      <point x="647" y="598" type="curve" smooth="yes"/>
      <point x="699" y="598"/>
      <point x="733" y="632"/>
      <point x="733" y="680" type="curve" smooth="yes"/>
      <point x="733" y="743"/>
      <point x="682" y="778"/>
      <point x="617" y="778" type="curve" smooth="yes"/>
      <point x="394" y="778"/>
      <point x="257" y="635"/>
      <point x="257" y="417" type="curve" smooth="yes"/>
      <point x="257" y="133"/>
      <point x="505" y="26"/>
      <point x="770" y="4" type="curve"/>
      <point x="762" y="-37"/>
      <point x="754" y="-70"/>
      <point x="754" y="-114" type="curve" smooth="yes"/>
      <point x="754" y="-167"/>
      <point x="776" y="-224"/>
      <point x="827" y="-224" type="curve" smooth="yes"/>
      <point x="839" y="-224"/>
      <point x="850" y="-225"/>
    </contour>
    <contour>
      <point x="965" y="1081" type="curve"/>
      <point x="884" y="1132"/>
      <point x="767" y="1198"/>
      <point x="767" y="1324" type="curve" smooth="yes"/>
      <point x="767" y="1464"/>
      <point x="911" y="1517"/>
      <point x="1046" y="1531" type="curve"/>
      <point x="1021" y="1386"/>
      <point x="991.999" y="1231"/>
    </contour>
    <contour>
      <point x="1033" y="224" type="curve"/>
      <point x="1124" y="741" type="line"/>
      <point x="1199" y="691"/>
      <point x="1297" y="627"/>
      <point x="1297" y="507" type="curve" smooth="yes"/>
      <point x="1297" y="341"/>
      <point x="1169" y="258"/>
    </contour>
  </outline>
</glyph>
<glyph name="percent" format="1">
  <advance width="772"/>
  <unicode hex="0025"/>
  <outline>
    <contour>
      <point x="155" y="229" type="curve" smooth="yes"/>
      <point x="172" y="229"/>
      <point x="188" y="232"/>
      <point x="204" y="239" type="curve" smooth="yes"/>
      <point x="274" y="268"/>
      <point x="325" y="350"/>
      <point x="325" y="448" type="curve" smooth="yes"/>
      <point x="325" y="531"/>
      <point x="286" y="591"/>
      <point x="203" y="591" type="curve" smooth="yes"/>
      <point x="92" y="591"/>
      <point x="32" y="494"/>
      <point x="32" y="383" type="curve" smooth="yes"/>
      <point x="32" y="300"/>
      <point x="73" y="229"/>
    </contour>
    <contour>
      <point x="162" y="295" type="curve" smooth="yes"/>
      <point x="126" y="295"/>
      <point x="120" y="353"/>
      <point x="120" y="390" type="curve" smooth="yes"/>
      <point x="120" y="448"/>
      <point x="139" y="525"/>
      <point x="194" y="525" type="curve" smooth="yes"/>
      <point x="231" y="525"/>
      <point x="241" y="487"/>
      <point x="241" y="449" type="curve" smooth="yes"/>
      <point x="241" y="394"/>
      <point x="216" y="295"/>
    </contour>
    <contour>
      <point x="286" y="35" type="curve" smooth="yes"/>
      <point x="565" y="532" type="line" smooth="yes"/>
      <point x="599" y="591"/>
      <point x="549" y="623"/>
      <point x="519" y="571" type="curve" smooth="yes"/>
      <point x="224" y="68" type="line" smooth="yes"/>
      <point x="187" y="4"/>
      <point x="250" y="-29"/>
    </contour>
    <contour>
      <point x="590" y="60" type="curve" smooth="yes"/>
      <point x="557" y="60"/>
      <point x="550" y="107"/>
      <point x="550" y="142" type="curve" smooth="yes"/>
      <point x="550" y="202"/>
      <point x="565" y="290"/>
      <point x="623" y="290" type="curve" smooth="yes"/>
      <point x="658" y="290"/>
      <point x="663" y="234"/>
      <point x="663" y="197" type="curve" smooth="yes"/>
      <point x="663" y="146"/>
      <point x="640" y="60"/>
    </contour>
    <contour>
      <point x="584" y="-5" type="curve" smooth="yes"/>
      <point x="678" y="-5"/>
      <point x="747" y="89"/>
      <point x="747" y="203" type="curve" smooth="yes"/>
      <point x="747" y="286"/>
      <point x="714" y="355"/>
      <point x="632" y="355" type="curve" smooth="yes"/>
      <point x="518" y="355"/>
      <point x="462" y="251"/>
      <point x="462" y="137" type="curve" smooth="yes"/>
      <point x="462" y="57"/>
      <point x="503" y="-5"/>
    </contour>
  </outline>
</glyph>
<glyph name="ampersand" format="1">
  <advance width="1523"/>
  <unicode hex="0026"/>
  <outline>
    <contour>
      <point x="1370" y="-238" type="curve" smooth="yes"/>
      <point x="1510" y="-238"/>
      <point x="1600" y="-169"/>
      <point x="1600" y="-132" type="curve" smooth="yes"/>
      <point x="1600" y="-72"/>
      <point x="1433" y="-31"/>
      <point x="1364" y="24" type="curve" smooth="yes"/>
      <point x="1321" y="58"/>
      <point x="1263" y="111"/>
      <point x="1174" y="196" type="curve"/>
      <point x="1339" y="287"/>
      <point x="1481" y="397"/>
      <point x="1481" y="563" type="curve" smooth="yes"/>
      <point x="1481" y="625"/>
      <point x="1384" y="667"/>
      <point x="1321" y="667" type="curve" smooth="yes"/>
      <point x="1291" y="667"/>
      <point x="1269" y="657"/>
      <point x="1269" y="636" type="curve" smooth="yes"/>
      <point x="1269" y="495"/>
      <point x="1196" y="426"/>
      <point x="1058" y="365" type="curve"/>
      <point x="966" y="495"/>
      <point x="838" y="698"/>
      <point x="758" y="864" type="curve"/>
      <point x="921" y="963"/>
      <point x="1115" y="1112"/>
      <point x="1115" y="1355" type="curve" smooth="yes"/>
      <point x="1115" y="1541"/>
      <point x="969.999" y="1652"/>
      <point x="782" y="1652" type="curve" smooth="yes"/>
      <point x="550" y="1652"/>
      <point x="353" y="1473"/>
      <point x="353" y="1242" type="curve" smooth="yes"/>
      <point x="353" y="1095"/>
      <point x="417" y="957"/>
      <point x="471" y="857" type="curve"/>
      <point x="295" y="762"/>
      <point x="64" y="602"/>
      <point x="64" y="345" type="curve" smooth="yes"/>
      <point x="64" y="96.9999"/>
      <point x="301" y="0"/>
      <point x="558" y="0" type="curve" smooth="yes"/>
      <point x="729" y="0"/>
      <point x="863" y="34"/>
      <point x="958" y="78" type="curve"/>
      <point x="958" y="66"/>
      <point x="1025" y="-24"/>
      <point x="1180" y="-179" type="curve" smooth="yes"/>
      <point x="1233" y="-232"/>
      <point x="1308" y="-238"/>
    </contour>
    <contour>
      <point x="566" y="202" type="curve" smooth="yes"/>
      <point x="433" y="202"/>
      <point x="322" y="252"/>
      <point x="322" y="381" type="curve" smooth="yes"/>
      <point x="322" y="544"/>
      <point x="440" y="660"/>
      <point x="535" y="734" type="curve"/>
      <point x="631" y="547"/>
      <point x="718" y="405"/>
      <point x="839" y="252" type="curve"/>
      <point x="768" y="226"/>
      <point x="675" y="202"/>
    </contour>
    <contour>
      <point x="711" y="992.999" type="curve"/>
      <point x="659" y="1080"/>
      <point x="630" y="1176"/>
      <point x="630" y="1256" type="curve" smooth="yes"/>
      <point x="630" y="1361"/>
      <point x="680" y="1440"/>
      <point x="794" y="1440" type="curve" smooth="yes"/>
      <point x="878" y="1440"/>
      <point x="928" y="1414"/>
      <point x="928" y="1332" type="curve" smooth="yes"/>
      <point x="928" y="1172"/>
      <point x="801" y="1075"/>
    </contour>
  </outline>
</glyph>
<glyph name="quotesingle" format="1">
  <advance width="179"/>
  <unicode hex="0027"/>
  <outline>
    <contour>
      <point x="60" y="379" type="curve" smooth="yes"/>
      <point x="83" y="379"/>
      <point x="85" y="386"/>
      <point x="104" y="417" type="curve" smooth="yes"/>
      <point x="118" y="437"/>
      <point x="197" y="539"/>
      <point x="197" y="598" type="curve" smooth="yes"/>
      <point x="197" y="620"/>
      <point x="185" y="636"/>
      <point x="148" y="636" type="curve" smooth="yes"/>
      <point x="104" y="636"/>
      <point x="66" y="466"/>
      <point x="44" y="420" type="curve"/>
      <point x="37" y="401"/>
      <point x="54" y="379"/>
    </contour>
  </outline>
</glyph>
<glyph name="parenright" format="1">
  <advance width="425"/>
  <unicode hex="0029"/>
  <outline>
    <contour>
      <point x="72" y="-129" type="curve" smooth="yes"/>
      <point x="256" y="-129"/>
      <point x="371" y="44"/>
      <point x="371" y="263" type="curve" smooth="yes"/>
      <point x="371" y="425"/>
      <point x="302" y="579"/>
      <point x="164" y="649" type="curve" smooth="yes"/>
      <point x="154" y="653"/>
      <point x="146" y="655"/>
      <point x="138" y="655" type="curve" smooth="yes"/>
      <point x="122" y="655"/>
      <point x="109" y="645"/>
      <point x="109" y="628" type="curve" smooth="yes"/>
      <point x="109" y="612"/>
      <point x="123" y="593"/>
      <point x="147" y="572" type="curve" smooth="yes"/>
      <point x="239" y="493"/>
      <point x="282" y="371"/>
      <point x="282" y="250" type="curve" smooth="yes"/>
      <point x="282" y="89"/>
      <point x="218" y="-44"/>
      <point x="88" y="-65" type="curve" smooth="yes"/>
      <point x="49" y="-72"/>
      <point x="3" y="-64"/>
      <point x="3" y="-102" type="curve" smooth="yes"/>
      <point x="3" y="-127"/>
      <point x="49" y="-129"/>
    </contour>
  </outline>
</glyph>
<glyph name="comma" format="1">
  <advance width="290"/>
  <unicode hex="002C"/>
  <outline>
    <contour>
      <point x="87" y="-76" type="curve" smooth="yes"/>
      <point x="135" y="-63"/>
      <point x="206" y="-10"/>
      <point x="206" y="63" type="curve" smooth="yes"/>
      <point x="206" y="89"/>
      <point x="194" y="114"/>
      <point x="162" y="110" type="curve" smooth="yes"/>
      <point x="135" y="106"/>
      <point x="125" y="93"/>
      <point x="123" y="75" type="curve" smooth="yes"/>
      <point x="116" y="18"/>
      <point x="94" y="-7"/>
      <point x="66" y="-54" type="curve" smooth="yes"/>
      <point x="57" y="-70"/>
      <point x="71" y="-81"/>
    </contour>
  </outline>
</glyph>
<glyph name="hyphen" format="1">
  <advance width="367"/>
  <unicode hex="002D"/>
  <outline>
    <contour>
      <point x="96" y="257" type="curve" smooth="yes"/>
      <point x="137" y="277"/>
      <point x="167" y="295"/>
      <point x="296" y="313" type="curve" smooth="yes"/>
      <point x="318" y="316"/>
      <point x="325" y="324"/>
      <point x="325" y="339" type="curve" smooth="yes"/>
      <point x="325" y="360"/>
      <point x="309" y="365"/>
      <point x="293" y="365" type="curve"/>
      <point x="178" y="358"/>
      <point x="118" y="343"/>
      <point x="87" y="327" type="curve" smooth="yes"/>
      <point x="56" y="310"/>
      <point x="55" y="292"/>
      <point x="59" y="278" type="curve" smooth="yes"/>
      <point x="63" y="262"/>
      <point x="78" y="249"/>
    </contour>
  </outline>
</glyph>
<glyph name="two" format="1">
  <advance width="1101"/>
  <unicode hex="0032"/>
  <outline>
    <contour>
      <point x="295" y="0.999999" type="curve" smooth="yes"/>
      <point x="417" y="0.999999"/>
      <point x="511" y="65"/>
      <point x="590" y="131" type="curve"/>
      <point x="659" y="76"/>
      <point x="744" y="0.999999"/>
      <point x="856" y="0.999999" type="curve" smooth="yes"/>
      <point x="987.999" y="0.999999"/>
      <point x="1030" y="120"/>
      <point x="1030" y="221" type="curve" smooth="yes"/>
      <point x="1030" y="257"/>
      <point x="1022" y="284"/>
      <point x="994.999" y="284" type="curve" smooth="yes"/>
      <point x="959" y="284"/>
      <point x="942" y="229"/>
      <point x="895" y="229" type="curve" smooth="yes"/>
      <point x="825" y="229"/>
      <point x="774" y="248"/>
      <point x="725" y="276" type="curve"/>
      <point x="835" y="422"/>
      <point x="968.999" y="649"/>
      <point x="968.999" y="895" type="curve" smooth="yes"/>
      <point x="968.999" y="1172"/>
      <point x="787" y="1333"/>
      <point x="536" y="1333" type="curve" smooth="yes"/>
      <point x="316" y="1333"/>
      <point x="82" y="1187"/>
      <point x="82" y="960" type="curve" smooth="yes"/>
      <point x="82" y="832"/>
      <point x="126" y="747"/>
      <point x="242" y="747" type="curve" smooth="yes"/>
      <point x="302" y="747"/>
      <point x="368" y="792"/>
      <point x="368" y="840" type="curve" smooth="yes"/>
      <point x="368" y="896"/>
      <point x="320" y="892"/>
      <point x="320" y="967.999" type="curve" smooth="yes"/>
      <point x="320" y="1068"/>
      <point x="406" y="1135"/>
      <point x="511" y="1135" type="curve" smooth="yes"/>
      <point x="658" y="1135"/>
      <point x="710" y="1025"/>
      <point x="710" y="891" type="curve" smooth="yes"/>
      <point x="710" y="720"/>
      <point x="631" y="511"/>
      <point x="549" y="422" type="curve"/>
      <point x="465" y="475"/>
      <point x="370" y="520"/>
      <point x="236" y="520" type="curve" smooth="yes"/>
      <point x="90" y="520"/>
      <point x="-4" y="420"/>
      <point x="-4" y="276" type="curve" smooth="yes"/>
      <point x="-4" y="114"/>
      <point x="136" y="0.999999"/>
    </contour>
    <contour>
      <point x="268" y="181" type="curve" smooth="yes"/>
      <point x="204" y="181"/>
      <point x="170" y="227"/>
      <point x="170" y="269" type="curve" smooth="yes"/>
      <point x="170" y="303"/>
      <point x="193" y="334"/>
      <point x="240" y="334" type="curve" smooth="yes"/>
      <point x="307" y="334"/>
      <point x="406" y="301"/>
      <point x="425" y="290" type="curve"/>
      <point x="378" y="221"/>
      <point x="317" y="181"/>
    </contour>
  </outline>
</glyph>
<glyph name="three" format="1">
  <advance width="417"/>
  <unicode hex="0033"/>
  <outline>
    <contour>
      <point x="382" y="143" type="curve" smooth="yes"/>
      <point x="382" y="204"/>
      <point x="349" y="253"/>
      <point x="279" y="271" type="curve"/>
      <point x="344" y="284"/>
      <point x="374" y="340"/>
      <point x="374" y="387" type="curve" smooth="yes"/>
      <point x="374" y="450"/>
      <point x="326" y="482"/>
      <point x="267" y="489" type="curve" smooth="yes"/>
      <point x="203" y="497"/>
      <point x="138" y="472"/>
      <point x="102" y="427" type="curve" smooth="yes"/>
      <point x="85" y="406"/>
      <point x="121" y="356"/>
      <point x="154" y="394" type="curve" smooth="yes"/>
      <point x="198" y="441"/>
      <point x="290" y="438"/>
      <point x="290" y="371" type="curve" smooth="yes"/>
      <point x="290" y="318"/>
      <point x="239" y="291"/>
      <point x="179" y="291" type="curve" smooth="yes"/>
      <point x="150" y="291"/>
      <point x="138" y="281"/>
      <point x="138" y="263" type="curve" smooth="yes"/>
      <point x="138" y="244"/>
      <point x="148" y="233"/>
      <point x="165" y="233" type="curve" smooth="yes"/>
      <point x="239" y="233"/>
      <point x="303" y="204"/>
      <point x="303" y="144" type="curve" smooth="yes"/>
      <point x="303" y="10"/>
      <point x="156" y="40"/>
      <point x="115" y="100" type="curve" smooth="yes"/>
      <point x="86" y="141"/>
      <point x="26" y="99"/>
      <point x="51" y="61" type="curve" smooth="yes"/>
      <point x="82" y="12"/>
      <point x="141" y="-19"/>
      <point x="214" y="-19" type="curve" smooth="yes"/>
      <point x="298" y="-19"/>
      <point x="382" y="26"/>
    </contour>
  </outline>
</glyph>
<glyph name="four" format="1">
  <advance width="417"/>
  <unicode hex="0034"/>
  <outline>
    <contour>
      <point x="244" y="-20" type="curve" smooth="yes"/>
      <point x="263" y="-20"/>
      <point x="276" y="-16"/>
      <point x="285" y="21" type="curve" smooth="yes"/>
      <point x="296" y="69" type="line"/>
      <point x="359" y="70" type="line" smooth="yes"/>
      <point x="396" y="71"/>
      <point x="402" y="136"/>
      <point x="372" y="135" type="curve" smooth="yes"/>
      <point x="311" y="135" type="line"/>
      <point x="318" y="167"/>
      <point x="343" y="268"/>
      <point x="350" y="297" type="curve" smooth="yes"/>
      <point x="354" y="315"/>
      <point x="337" y="321"/>
      <point x="320" y="321" type="curve" smooth="yes"/>
      <point x="295" y="321"/>
      <point x="283" y="309"/>
      <point x="277" y="288" type="curve" smooth="yes"/>
      <point x="270" y="263"/>
      <point x="242" y="157"/>
      <point x="237" y="136" type="curve"/>
      <point x="147" y="136" type="line"/>
      <point x="180" y="239"/>
      <point x="222" y="368"/>
      <point x="246" y="449" type="curve" smooth="yes"/>
      <point x="256" y="484"/>
      <point x="188" y="496"/>
      <point x="176" y="459" type="curve" smooth="yes"/>
      <point x="149" y="382"/>
      <point x="90" y="207"/>
      <point x="67" y="130" type="curve" smooth="yes"/>
      <point x="52" y="81"/>
      <point x="64" y="68"/>
      <point x="92" y="68" type="curve" smooth="yes"/>
      <point x="222" y="68" type="line"/>
      <point x="212" y="22" type="line" smooth="yes"/>
      <point x="207" y="-4"/>
      <point x="212" y="-20"/>
    </contour>
  </outline>
</glyph>
<glyph name="five" format="1">
  <advance width="1157"/>
  <unicode hex="0035"/>
  <outline>
    <contour>
      <point x="489" y="0" type="curve" smooth="yes"/>
      <point x="769" y="0"/>
      <point x="1029" y="155"/>
      <point x="1029" y="465" type="curve" smooth="yes"/>
      <point x="1029" y="881"/>
      <point x="687" y="895"/>
      <point x="403" y="869" type="curve"/>
      <point x="380" y="968"/>
      <point x="373" y="1042"/>
      <point x="380" y="1125" type="curve"/>
      <point x="594" y="1129"/>
      <point x="580" y="1101"/>
      <point x="756" y="1087" type="curve"/>
      <point x="930" y="1080"/>
      <point x="1087" y="1127"/>
      <point x="1087" y="1263" type="curve" smooth="yes"/>
      <point x="1087" y="1375"/>
      <point x="1018" y="1419"/>
      <point x="1003" y="1401" type="curve"/>
      <point x="962" y="1361"/>
      <point x="866" y="1345"/>
      <point x="795" y="1345" type="curve" smooth="yes"/>
      <point x="622" y="1345"/>
      <point x="558" y="1393"/>
      <point x="354" y="1393" type="curve" smooth="yes"/>
      <point x="240" y="1393"/>
      <point x="237" y="1153"/>
      <point x="238" y="840" type="curve" smooth="yes"/>
      <point x="238" y="720"/>
      <point x="258" y="700"/>
      <point x="343" y="690" type="curve" smooth="yes"/>
      <point x="561" y="663"/>
      <point x="713" y="622"/>
      <point x="713" y="399" type="curve" smooth="yes"/>
      <point x="713" y="243"/>
      <point x="576" y="164"/>
      <point x="482" y="164" type="curve" smooth="yes"/>
      <point x="374" y="164"/>
      <point x="300" y="199"/>
      <point x="300" y="298" type="curve" smooth="yes"/>
      <point x="300" y="413"/>
      <point x="369" y="414"/>
      <point x="369" y="459" type="curve" smooth="yes"/>
      <point x="369" y="522"/>
      <point x="276" y="539"/>
      <point x="239" y="539" type="curve" smooth="yes"/>
      <point x="121" y="539"/>
      <point x="70" y="484"/>
      <point x="70" y="361" type="curve" smooth="yes"/>
      <point x="70" y="119"/>
      <point x="291" y="0"/>
    </contour>
  </outline>
</glyph>
<glyph name="six" format="1">
  <advance width="398"/>
  <unicode hex="0036"/>
  <outline>
    <contour>
      <point x="205" y="-11" type="curve" smooth="yes"/>
      <point x="314" y="-20"/>
      <point x="388" y="59"/>
      <point x="385" y="166" type="curve" smooth="yes"/>
      <point x="381" y="297"/>
      <point x="227" y="357"/>
      <point x="148" y="272" type="curve"/>
      <point x="185" y="355"/>
      <point x="258" y="407"/>
      <point x="341" y="445" type="curve" smooth="yes"/>
      <point x="356" y="452"/>
      <point x="365" y="466"/>
      <point x="365" y="482" type="curve" smooth="yes"/>
      <point x="365" y="500"/>
      <point x="353" y="510"/>
      <point x="331" y="510" type="curve" smooth="yes"/>
      <point x="319" y="510"/>
      <point x="311" y="506"/>
      <point x="301" y="501" type="curve" smooth="yes"/>
      <point x="181" y="443"/>
      <point x="57" y="340"/>
      <point x="57" y="163" type="curve" smooth="yes"/>
      <point x="57" y="54"/>
      <point x="120" y="-4"/>
    </contour>
    <contour>
      <point x="210" y="59" type="curve" smooth="yes"/>
      <point x="162" y="65"/>
      <point x="134" y="106"/>
      <point x="134" y="146" type="curve" smooth="yes"/>
      <point x="133" y="207"/>
      <point x="167" y="243"/>
      <point x="233" y="243" type="curve" smooth="yes"/>
      <point x="336" y="243"/>
      <point x="332" y="42"/>
    </contour>
  </outline>
</glyph>
<glyph name="eight" format="1">
  <advance width="967"/>
  <unicode hex="0038"/>
  <outline>
    <contour>
      <point x="447" y="-16" type="curve" smooth="yes"/>
      <point x="682" y="-16"/>
      <point x="874" y="106"/>
      <point x="874" y="332" type="curve" smooth="yes"/>
      <point x="874" y="534"/>
      <point x="735" y="645"/>
      <point x="625" y="735" type="curve"/>
      <point x="796" y="821"/>
      <point x="953" y="934"/>
      <point x="953" y="1192" type="curve" smooth="yes"/>
      <point x="953" y="1382"/>
      <point x="785" y="1450"/>
      <point x="624" y="1450" type="curve" smooth="yes"/>
      <point x="399" y="1450"/>
      <point x="179" y="1333"/>
      <point x="179" y="1083" type="curve" smooth="yes"/>
      <point x="179" y="942"/>
      <point x="251" y="839"/>
      <point x="348" y="775" type="curve"/>
      <point x="205" y="678"/>
      <point x="51" y="559"/>
      <point x="51" y="305" type="curve" smooth="yes"/>
      <point x="51" y="75"/>
      <point x="219" y="-16"/>
    </contour>
    <contour>
      <point x="400" y="191" type="curve" smooth="yes"/>
      <point x="332" y="191"/>
      <point x="290" y="256"/>
      <point x="290" y="328" type="curve" smooth="yes"/>
      <point x="290" y="486"/>
      <point x="391" y="554"/>
      <point x="489" y="606" type="curve"/>
      <point x="533" y="552"/>
      <point x="579" y="489"/>
      <point x="579" y="390" type="curve" smooth="yes"/>
      <point x="579" y="275"/>
      <point x="513" y="191"/>
    </contour>
    <contour>
      <point x="511" y="872" type="curve"/>
      <point x="462" y="919"/>
      <point x="420" y="994.999"/>
      <point x="420" y="1081" type="curve" smooth="yes"/>
      <point x="420" y="1198"/>
      <point x="486" y="1272"/>
      <point x="577" y="1272" type="curve" smooth="yes"/>
      <point x="647" y="1272"/>
      <point x="705" y="1223"/>
      <point x="705" y="1125" type="curve" smooth="yes"/>
      <point x="705" y="1021"/>
      <point x="592" y="917"/>
    </contour>
  </outline>
</glyph>
<glyph name="nine" format="1">
  <advance width="1209"/>
  <unicode hex="0039"/>
  <outline>
    <contour>
      <point x="288" y="-131" type="curve" smooth="yes"/>
      <point x="322" y="-131"/>
      <point x="347" y="-120"/>
      <point x="377" y="-106" type="curve" smooth="yes"/>
      <point x="728" y="64"/>
      <point x="1127" y="397"/>
      <point x="1127" y="916" type="curve" smooth="yes"/>
      <point x="1127" y="1234"/>
      <point x="946" y="1421"/>
      <point x="658" y="1421" type="curve" smooth="yes"/>
      <point x="349" y="1421"/>
      <point x="95.9999" y="1206"/>
      <point x="95.9999" y="893" type="curve" smooth="yes"/>
      <point x="95.9999" y="652"/>
      <point x="252" y="495"/>
      <point x="440" y="495" type="curve" smooth="yes"/>
      <point x="582" y="495"/>
      <point x="676" y="548"/>
      <point x="753" y="604" type="curve"/>
      <point x="636" y="371"/>
      <point x="474" y="193"/>
      <point x="251" y="62" type="curve" smooth="yes"/>
      <point x="210" y="37"/>
      <point x="181" y="3"/>
      <point x="181" y="-46" type="curve" smooth="yes"/>
      <point x="181" y="-97"/>
      <point x="225" y="-131"/>
    </contour>
    <contour>
      <point x="586" y="673" type="curve" smooth="yes"/>
      <point x="456" y="673"/>
      <point x="391" y="748"/>
      <point x="391" y="874" type="curve" smooth="yes"/>
      <point x="391" y="1038"/>
      <point x="487" y="1234"/>
      <point x="653" y="1234" type="curve" smooth="yes"/>
      <point x="795" y="1234"/>
      <point x="843" y="1102"/>
      <point x="843" y="965" type="curve" smooth="yes"/>
      <point x="843" y="788"/>
      <point x="778" y="673"/>
    </contour>
  </outline>
</glyph>
<glyph name="colon" format="1">
  <advance width="240"/>
  <unicode hex="003A"/>
  <outline>
    <contour>
      <point x="166" y="0" type="curve" smooth="yes"/>
      <point x="206" y="0"/>
      <point x="229" y="26"/>
      <point x="229" y="65" type="curve" smooth="yes"/>
      <point x="229" y="102"/>
      <point x="209" y="121"/>
      <point x="172" y="121" type="curve" smooth="yes"/>
      <point x="132" y="121"/>
      <point x="109" y="94"/>
      <point x="109" y="55" type="curve" smooth="yes"/>
      <point x="109" y="19"/>
      <point x="129" y="0"/>
    </contour>
    <contour>
      <point x="186" y="229" type="curve" smooth="yes"/>
      <point x="227" y="229"/>
      <point x="250" y="256"/>
      <point x="250" y="295" type="curve" smooth="yes"/>
      <point x="250" y="331"/>
      <point x="229" y="351"/>
      <point x="192" y="351" type="curve" smooth="yes"/>
      <point x="152" y="351"/>
      <point x="130" y="324"/>
      <point x="130" y="285" type="curve" smooth="yes"/>
      <point x="130" y="249"/>
      <point x="150" y="229"/>
    </contour>
  </outline>
</glyph>
<glyph name="less" format="1">
  <advance width="404"/>
  <unicode hex="003C"/>
  <outline>
    <contour>
      <point x="320" y="43" type="curve" smooth="yes"/>
      <point x="339" y="43"/>
      <point x="355" y="53"/>
      <point x="355" y="70" type="curve" smooth="yes"/>
      <point x="355" y="98"/>
      <point x="331" y="120"/>
      <point x="311" y="127" type="curve" smooth="yes"/>
      <point x="87" y="209" type="line"/>
      <point x="361" y="298" type="line" smooth="yes"/>
      <point x="376" y="302"/>
      <point x="388" y="310"/>
      <point x="388" y="329" type="curve" smooth="yes"/>
      <point x="388" y="360"/>
      <point x="368" y="393"/>
      <point x="335" y="382" type="curve" smooth="yes"/>
      <point x="269" y="361"/>
      <point x="197" y="328"/>
      <point x="135" y="301" type="curve" smooth="yes"/>
      <point x="94" y="283"/>
      <point x="20" y="272"/>
      <point x="20" y="214" type="curve" smooth="yes"/>
      <point x="20" y="132"/>
      <point x="103" y="116"/>
      <point x="168" y="94" type="curve" smooth="yes"/>
      <point x="215" y="78"/>
      <point x="263" y="43"/>
    </contour>
  </outline>
</glyph>
<glyph name="greater" format="1">
  <advance width="1184"/>
  <unicode hex="003E"/>
  <outline>
    <contour>
      <point x="266" y="106" type="curve" smooth="yes"/>
      <point x="386" y="106"/>
      <point x="495" y="170"/>
      <point x="590" y="210" type="curve" smooth="yes"/>
      <point x="801" y="299"/>
      <point x="1134" y="340"/>
      <point x="1134" y="626" type="curve" smooth="yes"/>
      <point x="1134" y="791"/>
      <point x="951" y="808"/>
      <point x="836" y="863" type="curve" smooth="yes"/>
      <point x="768" y="895"/>
      <point x="688" y="925"/>
      <point x="610" y="957" type="curve" smooth="yes"/>
      <point x="508" y="998.999"/>
      <point x="369" y="1085"/>
      <point x="248" y="1085" type="curve" smooth="yes"/>
      <point x="168" y="1085"/>
      <point x="138" y="999.999"/>
      <point x="138" y="922" type="curve" smooth="yes"/>
      <point x="138" y="867"/>
      <point x="172" y="846"/>
      <point x="216" y="832" type="curve" smooth="yes"/>
      <point x="938" y="613" type="line"/>
      <point x="253" y="353" type="line" smooth="yes"/>
      <point x="201" y="333"/>
      <point x="163" y="260"/>
      <point x="163" y="185" type="curve" smooth="yes"/>
      <point x="163" y="132"/>
      <point x="210" y="106"/>
    </contour>
  </outline>
</glyph>
<glyph name="question" format="1">
  <advance width="384"/>
  <unicode hex="003F"/>
  <outline>
    <contour>
      <point x="195" y="239" type="curve" smooth="yes"/>
      <point x="195" y="228"/>
      <point x="204" y="221"/>
      <point x="214" y="221" type="curve" smooth="yes"/>
      <point x="224" y="222"/>
      <point x="234" y="229"/>
      <point x="236" y="244" type="curve" smooth="yes"/>
      <point x="248" y="317"/>
      <point x="418" y="350"/>
      <point x="423" y="494" type="curve" smooth="yes"/>
      <point x="426" y="583"/>
      <point x="346" y="640"/>
      <point x="264" y="639" type="curve" smooth="yes"/>
      <point x="199" y="638"/>
      <point x="133" y="602"/>
      <point x="105" y="516" type="curve" smooth="yes"/>
      <point x="96" y="488"/>
      <point x="143" y="465"/>
      <point x="153" y="485" type="curve" smooth="yes"/>
      <point x="180" y="541"/>
      <point x="227" y="565"/>
      <point x="268" y="563" type="curve" smooth="yes"/>
      <point x="308" y="562"/>
      <point x="341" y="536"/>
      <point x="339" y="487" type="curve" smooth="yes"/>
      <point x="335" y="380"/>
      <point x="199" y="363"/>
    </contour>
    <contour>
      <point x="201" y="0" type="curve" smooth="yes"/>
      <point x="242" y="0"/>
      <point x="265" y="26"/>
      <point x="265" y="65" type="curve" smooth="yes"/>
      <point x="265" y="102"/>
      <point x="245" y="121"/>
      <point x="208" y="121" type="curve" smooth="yes"/>
      <point x="167" y="121"/>
      <point x="145" y="94"/>
      <point x="145" y="55" type="curve" smooth="yes"/>
      <point x="145" y="19"/>
      <point x="165" y="0"/>
    </contour>
  </outline>
</glyph>
<glyph name="at" format="1">
  <advance width="766"/>
  <unicode hex="0040"/>
  <outline>
    <contour>
      <point x="333" y="-141" type="curve" smooth="yes"/>
      <point x="432" y="-141"/>
      <point x="539" y="-115"/>
      <point x="615" y="-71" type="curve" smooth="yes"/>
      <point x="652" y="-50"/>
      <point x="626" y="8"/>
      <point x="587" y="-15" type="curve" smooth="yes"/>
      <point x="510" y="-60"/>
      <point x="424" y="-77"/>
      <point x="343" y="-77" type="curve" smooth="yes"/>
      <point x="166" y="-77"/>
      <point x="109" y="17"/>
      <point x="109" y="121" type="curve" smooth="yes"/>
      <point x="109" y="304"/>
      <point x="256" y="482"/>
      <point x="462" y="482" type="curve" smooth="yes"/>
      <point x="596" y="482"/>
      <point x="665" y="415"/>
      <point x="665" y="287" type="curve" smooth="yes"/>
      <point x="665" y="214"/>
      <point x="613" y="71"/>
      <point x="538" y="81" type="curve" smooth="yes"/>
      <point x="524" y="83"/>
      <point x="515" y="95"/>
      <point x="523" y="128" type="curve" smooth="yes"/>
      <point x="579" y="349" type="line" smooth="yes"/>
      <point x="589" y="389"/>
      <point x="578" y="406"/>
      <point x="545" y="405" type="curve" smooth="yes"/>
      <point x="525" y="405" type="line"/>
      <point x="524" y="416"/>
      <point x="518" y="422"/>
      <point x="509" y="422" type="curve" smooth="yes"/>
      <point x="371" y="422"/>
      <point x="206" y="297"/>
      <point x="206" y="126" type="curve" smooth="yes"/>
      <point x="206" y="55"/>
      <point x="255" y="11"/>
      <point x="323" y="9" type="curve" smooth="yes"/>
      <point x="389" y="7"/>
      <point x="435" y="41"/>
      <point x="470" y="102" type="curve"/>
      <point x="468" y="58"/>
      <point x="488" y="36"/>
      <point x="518" y="29" type="curve" smooth="yes"/>
      <point x="621" y="5"/>
      <point x="727" y="126"/>
      <point x="727" y="294" type="curve" smooth="yes"/>
      <point x="727" y="454"/>
      <point x="629" y="543"/>
      <point x="462" y="543" type="curve" smooth="yes"/>
      <point x="250" y="543"/>
      <point x="37" y="360"/>
      <point x="37" y="123" type="curve" smooth="yes"/>
      <point x="37" y="-15"/>
      <point x="119" y="-141"/>
    </contour>
    <contour>
      <point x="344" y="69" type="curve" smooth="yes"/>
      <point x="286" y="63"/>
      <point x="273" y="98"/>
      <point x="273" y="129" type="curve" smooth="yes"/>
      <point x="273" y="268"/>
      <point x="392" y="371"/>
      <point x="511" y="356" type="curve"/>
      <point x="464" y="195" type="line" smooth="yes"/>
      <point x="450" y="146"/>
      <point x="410" y="77"/>
    </contour>
  </outline>
</glyph>
<glyph name="A" format="1">
  <advance width="1970"/>
  <unicode hex="0041"/>
  <outline>
    <contour>
      <point x="812" y="-175" type="curve" smooth="yes"/>
      <point x="1070" y="-175"/>
      <point x="1315" y="51"/>
      <point x="1389" y="253" type="curve"/>
      <point x="1389" y="253"/>
      <point x="1385" y="97"/>
      <point x="1385" y="70" type="curve" smooth="yes"/>
      <point x="1385" y="-53"/>
      <point x="1449" y="-163"/>
      <point x="1573" y="-163" type="curve" smooth="yes"/>
      <point x="1710" y="-163"/>
      <point x="1878" y="-78"/>
      <point x="1964" y="23" type="curve" smooth="yes"/>
      <point x="1977" y="39"/>
      <point x="1983" y="58"/>
      <point x="1983" y="77" type="curve" smooth="yes"/>
      <point x="1983" y="132"/>
      <point x="1947" y="184"/>
      <point x="1903" y="184" type="curve" smooth="yes"/>
      <point x="1894" y="184"/>
      <point x="1885" y="183"/>
      <point x="1872" y="172" type="curve" smooth="yes"/>
      <point x="1811" y="118"/>
      <point x="1697" y="46"/>
      <point x="1646" y="46" type="curve" smooth="yes"/>
      <point x="1615" y="46"/>
      <point x="1598" y="78"/>
      <point x="1598" y="152" type="curve" smooth="yes"/>
      <point x="1598" y="220"/>
      <point x="1613" y="324"/>
      <point x="1645" y="472" type="curve" smooth="yes"/>
      <point x="1848" y="1398" type="line"/>
      <point x="1850" y="1405"/>
      <point x="1850" y="1412"/>
      <point x="1850" y="1418" type="curve" smooth="yes"/>
      <point x="1850" y="1484"/>
      <point x="1776" y="1528"/>
      <point x="1711" y="1528" type="curve" smooth="yes"/>
      <point x="1661" y="1526"/>
      <point x="1625" y="1506"/>
      <point x="1615" y="1459" type="curve" smooth="yes"/>
      <point x="1428" y="634" type="line" smooth="yes"/>
      <point x="1358" y="324"/>
      <point x="1151" y="49"/>
      <point x="849" y="49" type="curve" smooth="yes"/>
      <point x="536" y="49"/>
      <point x="435" y="308"/>
      <point x="435" y="580" type="curve" smooth="yes"/>
      <point x="435" y="1191"/>
      <point x="986" y="1768"/>
      <point x="1505" y="1768" type="curve" smooth="yes"/>
      <point x="1818" y="1768"/>
      <point x="1972" y="1602"/>
      <point x="2065" y="1535" type="curve"/>
      <point x="2088" y="1517"/>
      <point x="2112" y="1509"/>
      <point x="2134" y="1509" type="curve" smooth="yes"/>
      <point x="2186" y="1509"/>
      <point x="2229" y="1553"/>
      <point x="2229" y="1607" type="curve" smooth="yes"/>
      <point x="2229" y="1632"/>
      <point x="2220" y="1663"/>
      <point x="2190" y="1694" type="curve" smooth="yes"/>
      <point x="1992" y="1900"/>
      <point x="1708" y="2030"/>
      <point x="1517" y="2030" type="curve" smooth="yes"/>
      <point x="803" y="2030"/>
      <point x="130" y="1443"/>
      <point x="150" y="577" type="curve" smooth="yes"/>
      <point x="158" y="233"/>
      <point x="304" y="-175"/>
    </contour>
    <contour>
      <point x="985" y="2030" type="move" name="top"/>
    </contour>
    <contour>
      <point x="985" y="0" type="move" name="bot"/>
    </contour>
    <contour>
      <point x="1593" y="0" type="move" name="ogonek"/>
    </contour>
  </outline>
</glyph>
<glyph name="B" format="1">
  <advance width="1603"/>
  <unicode hex="0042"/>
  <outline>
    <contour>
      <point x="401" y="-271" type="curve" smooth="yes"/>
      <point x="928" y="-271"/>
      <point x="1475" y="92.1516"/>
      <point x="1475" y="473" type="curve" smooth="yes"/>
      <point x="1475" y="680.973"/>
      <point x="1270" y="831"/>
      <point x="1053" y="853" type="curve"/>
      <point x="1052.65" y="859.957" type="line"/>
      <point x="1457.09" y="895.819"/>
      <point x="1643.99" y="1144.48"/>
      <point x="1669.04" y="1329.48" type="curve" smooth="yes"/>
      <point x="1709.78" y="1632.14"/>
      <point x="1411" y="1946"/>
      <point x="818" y="1946" type="curve" smooth="yes"/>
      <point x="341" y="1946"/>
      <point x="69" y="1774"/>
      <point x="-118" y="1600" type="curve" smooth="yes"/>
      <point x="-204" y="1519"/>
      <point x="-74" y="1337"/>
      <point x="82" y="1470" type="curve" smooth="yes"/>
      <point x="265" y="1627"/>
      <point x="465" y="1735"/>
      <point x="829" y="1735" type="curve" smooth="yes"/>
      <point x="1212" y="1735"/>
      <point x="1360" y="1549.46"/>
      <point x="1360" y="1355" type="curve" smooth="yes"/>
      <point x="1360" y="1201.73"/>
      <point x="1253" y="944"/>
      <point x="809" y="950" type="curve" smooth="yes"/>
      <point x="717" y="951" type="line" smooth="yes"/>
      <point x="644" y="952"/>
      <point x="588" y="936"/>
      <point x="588" y="876" type="curve" smooth="yes"/>
      <point x="587" y="717"/>
      <point x="1193" y="843.828"/>
      <point x="1193" y="457" type="curve" smooth="yes"/>
      <point x="1193" y="203.35"/>
      <point x="832" y="-85"/>
      <point x="393" y="-85" type="curve" smooth="yes"/>
      <point x="306" y="-85"/>
      <point x="308" y="-57"/>
      <point x="308" y="7" type="curve" smooth="yes"/>
      <point x="308" y="429"/>
      <point x="390" y="1138"/>
      <point x="579" y="1391" type="curve"/>
      <point x="547" y="1439"/>
      <point x="506" y="1464"/>
      <point x="455" y="1464" type="curve" smooth="yes"/>
      <point x="69" y="1464"/>
      <point x="4" y="314"/>
      <point x="4" y="-95" type="curve" smooth="yes"/>
      <point x="4" y="-205"/>
      <point x="158" y="-271"/>
    </contour>
  </outline>
</glyph>
<glyph name="C" format="1">
  <advance width="1648"/>
  <unicode hex="0043"/>
  <outline>
    <contour>
      <point x="775" y="-275" type="curve" smooth="yes"/>
      <point x="1153" y="-275"/>
      <point x="1593" y="-14"/>
      <point x="1707" y="331" type="curve" smooth="yes"/>
      <point x="1709" y="337"/>
      <point x="1710" y="342"/>
      <point x="1710" y="347" type="curve" smooth="yes"/>
      <point x="1710" y="383"/>
      <point x="1668" y="405"/>
      <point x="1639" y="405" type="curve" smooth="yes"/>
      <point x="1626" y="405"/>
      <point x="1614" y="402"/>
      <point x="1604" y="393" type="curve"/>
      <point x="1391" y="185"/>
      <point x="1191" y="-51"/>
      <point x="838" y="-51" type="curve" smooth="yes"/>
      <point x="588" y="-51"/>
      <point x="429" y="142"/>
      <point x="432" y="502" type="curve" smooth="yes"/>
      <point x="436" y="952"/>
      <point x="739" y="1618"/>
      <point x="1176" y="1618" type="curve" smooth="yes"/>
      <point x="1320" y="1618"/>
      <point x="1400" y="1536"/>
      <point x="1400" y="1394" type="curve" smooth="yes"/>
      <point x="1400" y="1184"/>
      <point x="1238" y="996.999"/>
      <point x="1033" y="996.999" type="curve" smooth="yes"/>
      <point x="932" y="996.999"/>
      <point x="863" y="985.999"/>
      <point x="863" y="907" type="curve" smooth="yes"/>
      <point x="863" y="795"/>
      <point x="923" y="786"/>
      <point x="1049" y="786" type="curve" smooth="yes"/>
      <point x="1356" y="786"/>
      <point x="1624" y="1099"/>
      <point x="1624" y="1413" type="curve" smooth="yes"/>
      <point x="1624" y="1667"/>
      <point x="1459" y="1842"/>
      <point x="1211" y="1842" type="curve" smooth="yes"/>
      <point x="603" y="1842"/>
      <point x="155" y="1136"/>
      <point x="144" y="482" type="curve" smooth="yes"/>
      <point x="135" y="-61"/>
      <point x="458" y="-275"/>
    </contour>
    <contour>
      <point x="824" y="2030" type="move" name="top"/>
    </contour>
    <contour>
      <point x="824" y="0" type="move" name="bot"/>
    </contour>
  </outline>
</glyph>
<glyph name="D" format="1">
  <advance width="1574"/>
  <unicode hex="0044"/>
  <outline>
    <contour>
      <point x="513" y="-139" type="curve" smooth="yes"/>
      <point x="947" y="-139"/>
      <point x="1556" y="240"/>
      <point x="1570" y="1038" type="curve" smooth="yes"/>
      <point x="1578" y="1538"/>
      <point x="1142" y="1796"/>
      <point x="594" y="1806" type="curve" smooth="yes"/>
      <point x="322" y="1811"/>
      <point x="134" y="1715"/>
      <point x="-16" y="1540" type="curve" smooth="yes"/>
      <point x="-32" y="1521"/>
      <point x="-108" y="1392"/>
      <point x="-110" y="1299" type="curve" smooth="yes"/>
      <point x="-111" y="1257"/>
      <point x="-91" y="1204"/>
      <point x="-37" y="1204" type="curve" smooth="yes"/>
      <point x="27" y="1204"/>
      <point x="105" y="1345"/>
      <point x="158" y="1400" type="curve" smooth="yes"/>
      <point x="292" y="1540"/>
      <point x="468" y="1580"/>
      <point x="601" y="1577" type="curve" smooth="yes"/>
      <point x="998" y="1567"/>
      <point x="1331" y="1346"/>
      <point x="1325" y="1019" type="curve" smooth="yes"/>
      <point x="1318" y="586"/>
      <point x="983" y="49"/>
      <point x="484" y="49" type="curve" smooth="yes"/>
      <point x="395" y="49"/>
      <point x="389" y="90"/>
      <point x="391" y="179" type="curve" smooth="yes"/>
      <point x="397" y="545"/>
      <point x="488" y="1110"/>
      <point x="660" y="1336" type="curve"/>
      <point x="628" y="1391"/>
      <point x="588" y="1418"/>
      <point x="539" y="1418" type="curve" smooth="yes"/>
      <point x="500" y="1418"/>
      <point x="457" y="1402"/>
      <point x="409" y="1369" type="curve"/>
      <point x="201" y="1071"/>
      <point x="136" y="511"/>
      <point x="128" y="14" type="curve" smooth="yes"/>
      <point x="127" y="-28"/>
      <point x="135" y="-41"/>
      <point x="165" y="-55" type="curve" smooth="yes"/>
      <point x="257" y="-98"/>
      <point x="377" y="-139"/>
    </contour>
    <contour>
      <point x="755" y="0" type="move" name="bot"/>
    </contour>
    <contour>
      <point x="382" y="809" type="move" name="mid"/>
    </contour>
    <contour>
      <point x="791" y="2030" type="move" name="top"/>
    </contour>
  </outline>
</glyph>
<glyph name="E" format="1">
  <advance width="1618"/>
  <unicode hex="0045"/>
  <outline>
    <contour>
      <point x="740" y="-303" type="curve" smooth="yes"/>
      <point x="1158" y="-303"/>
      <point x="1527" y="-66"/>
      <point x="1780" y="250" type="curve" smooth="yes"/>
      <point x="1861" y="351"/>
      <point x="1740" y="534"/>
      <point x="1629" y="401" type="curve" smooth="yes"/>
      <point x="1399" y="125"/>
      <point x="1102" y="-62"/>
      <point x="749" y="-62" type="curve" smooth="yes"/>
      <point x="545" y="-62"/>
      <point x="433" y="37"/>
      <point x="418" y="239" type="curve" smooth="yes"/>
      <point x="399" y="502"/>
      <point x="618" y="694"/>
      <point x="1047" y="694" type="curve" smooth="yes"/>
      <point x="1239" y="694"/>
      <point x="1258" y="914"/>
      <point x="1117" y="945" type="curve" smooth="yes"/>
      <point x="941" y="983.999"/>
      <point x="593" y="1077"/>
      <point x="616" y="1359" type="curve" smooth="yes"/>
      <point x="648" y="1751"/>
      <point x="1313" y="1680"/>
      <point x="1533" y="1501" type="curve"/>
      <point x="1453" y="1313" type="line" smooth="yes"/>
      <point x="1412.5" y="1218.5"/>
      <point x="1494.25" y="1167.5"/>
      <point x="1583.75" y="1181.25" type="curve" smooth="yes"/>
      <point x="1673.25" y="1195"/>
      <point x="1770.5" y="1273.5"/>
      <point x="1761" y="1438" type="curve" smooth="yes"/>
      <point x="1743" y="1743"/>
      <point x="1363" y="1867"/>
      <point x="1038" y="1867" type="curve" smooth="yes"/>
      <point x="692" y="1867"/>
      <point x="362" y="1742"/>
      <point x="332" y="1385" type="curve" smooth="yes"/>
      <point x="308" y="1105"/>
      <point x="503" y="905"/>
      <point x="874" y="855" type="curve"/>
      <point x="487" y="845"/>
      <point x="119" y="622"/>
      <point x="119" y="233" type="curve" smooth="yes"/>
      <point x="119" y="-121"/>
      <point x="392" y="-303"/>
    </contour>
    <contour>
      <point x="809" y="2030" type="move" name="top"/>
    </contour>
    <contour>
      <point x="809" y="0" type="move" name="bot"/>
    </contour>
    <contour>
      <point x="0" y="0" type="move" name="ogonek"/>
    </contour>
  </outline>
</glyph>
<glyph name="F" format="1">
  <advance width="1376"/>
  <unicode hex="0046"/>
  <outline>
    <contour>
      <point x="293" y="-198" type="curve" smooth="yes"/>
      <point x="768" y="-198"/>
      <point x="822" y="194"/>
      <point x="982.999" y="749" type="curve"/>
      <point x="1099" y="749"/>
      <point x="1230" y="768"/>
      <point x="1344" y="768" type="curve" smooth="yes"/>
      <point x="1385" y="768"/>
      <point x="1408" y="815"/>
      <point x="1408" y="864" type="curve" smooth="yes"/>
      <point x="1408" y="918"/>
      <point x="1400" y="960"/>
      <point x="1344" y="960" type="curve" smooth="yes"/>
      <point x="1023" y="960" type="line"/>
      <point x="1123" y="1341"/>
      <point x="1165" y="1592"/>
      <point x="1199" y="1794" type="curve"/>
      <point x="1476" y="1824"/>
      <point x="1707" y="1788"/>
      <point x="2030" y="1758" type="curve" smooth="yes"/>
      <point x="2093" y="1752"/>
      <point x="2125" y="1816"/>
      <point x="2125" y="1878" type="curve" smooth="yes"/>
      <point x="2125" y="2046"/>
      <point x="1466" y="2018"/>
      <point x="1293" y="2018" type="curve" smooth="yes"/>
      <point x="160" y="2018"/>
      <point x="-196" y="1264"/>
      <point x="114" y="816" type="curve" smooth="yes"/>
      <point x="181" y="719"/>
      <point x="449" y="728"/>
      <point x="385" y="812" type="curve" smooth="yes"/>
      <point x="97" y="1191"/>
      <point x="341" y="1694"/>
      <point x="984" y="1774" type="curve"/>
      <point x="948" y="1644"/>
      <point x="837" y="1191"/>
      <point x="771" y="942" type="curve"/>
      <point x="703" y="933"/>
      <point x="556" y="919"/>
      <point x="556" y="832" type="curve" smooth="yes"/>
      <point x="556" y="771"/>
      <point x="620" y="749"/>
      <point x="681" y="749" type="curve" smooth="yes"/>
      <point x="724" y="749" type="line"/>
      <point x="614" y="309"/>
      <point x="572" y="26"/>
      <point x="397" y="26" type="curve" smooth="yes"/>
      <point x="277" y="26"/>
      <point x="202" y="97"/>
      <point x="89" y="97" type="curve" smooth="yes"/>
      <point x="23" y="97"/>
      <point x="-21" y="18"/>
      <point x="-21" y="-47" type="curve" smooth="yes"/>
      <point x="-21" y="-164"/>
      <point x="173" y="-198"/>
    </contour>
  </outline>
</glyph>
<glyph name="G" format="1">
  <advance width="2077"/>
  <unicode hex="0047"/>
  <outline>
    <contour>
      <point x="844" y="-909" type="curve" smooth="yes"/>
      <point x="1463" y="-1141"/>
      <point x="1811" y="-738"/>
      <point x="2011" y="349" type="curve" smooth="yes"/>
      <point x="2056" y="592"/>
      <point x="1993" y="642"/>
      <point x="1639" y="642" type="curve" smooth="yes"/>
      <point x="1549" y="642"/>
      <point x="1462" y="608"/>
      <point x="1462" y="522" type="curve" smooth="yes"/>
      <point x="1462" y="437"/>
      <point x="1524" y="416"/>
      <point x="1632" y="416" type="curve" smooth="yes"/>
      <point x="1768" y="416"/>
      <point x="1791" y="406"/>
      <point x="1776" y="339" type="curve" smooth="yes"/>
      <point x="1757" y="255" type="line"/>
      <point x="1167" y="-41"/>
      <point x="455" y="-82"/>
      <point x="455" y="590" type="curve" smooth="yes"/>
      <point x="455" y="1698"/>
      <point x="1745" y="2000"/>
      <point x="1745" y="1511" type="curve" smooth="yes"/>
      <point x="1745" y="1370"/>
      <point x="1813" y="1353"/>
      <point x="1882" y="1353" type="curve" smooth="yes"/>
      <point x="1962" y="1353"/>
      <point x="2026" y="1383"/>
      <point x="2026" y="1502" type="curve" smooth="yes"/>
      <point x="2026" y="2411"/>
      <point x="141" y="1975"/>
      <point x="164" y="558" type="curve" smooth="yes"/>
      <point x="181" y="-492"/>
      <point x="1551" y="-157"/>
      <point x="1725" y="79" type="curve"/>
      <point x="1506" y="-718"/>
      <point x="1282" y="-776"/>
      <point x="905" y="-641" type="curve" smooth="yes"/>
      <point x="778" y="-595"/>
      <point x="627" y="-829"/>
    </contour>
    <contour>
      <point x="1038.5" y="0" type="move" name="bot"/>
    </contour>
    <contour>
      <point x="1504" y="2030" type="move" name="top"/>
    </contour>
  </outline>
</glyph>
<glyph name="H" format="1">
  <advance width="2148"/>
  <unicode hex="0048"/>
  <outline>
    <contour>
      <point x="2126" y="-208" type="curve" smooth="yes"/>
      <point x="2205" y="-153"/>
      <point x="2124" y="3"/>
      <point x="2047" y="-29" type="curve" smooth="yes"/>
      <point x="1779" y="-139"/>
      <point x="1270" y="-436"/>
      <point x="1466" y="380" type="curve" smooth="yes"/>
      <point x="1649" y="1140" type="line" smooth="yes"/>
      <point x="1795" y="1744"/>
      <point x="2277" y="1770"/>
      <point x="2234" y="1457" type="curve" smooth="yes"/>
      <point x="2187" y="1118"/>
      <point x="1715" y="651"/>
      <point x="273" y="828" type="curve" smooth="yes"/>
      <point x="156" y="842"/>
      <point x="78" y="653"/>
      <point x="225" y="634" type="curve" smooth="yes"/>
      <point x="1868" y="427"/>
      <point x="2441" y="1051"/>
      <point x="2471" y="1480" type="curve" smooth="yes"/>
      <point x="2504" y="1946"/>
      <point x="1687" y="2138"/>
      <point x="1434" y="1177" type="curve" smooth="yes"/>
      <point x="1215" y="344" type="line" smooth="yes"/>
      <point x="990.999" y="-509"/>
      <point x="1638" y="-547"/>
    </contour>
    <contour>
      <point x="226" y="-306" type="curve" smooth="yes"/>
      <point x="345" y="-326"/>
      <point x="380" y="-244"/>
      <point x="419" y="-124" type="curve" smooth="yes"/>
      <point x="805" y="1076" type="line" smooth="yes"/>
      <point x="941" y="1497"/>
      <point x="891" y="1767"/>
      <point x="584" y="1892" type="curve" smooth="yes"/>
      <point x="207" y="2045"/>
      <point x="-314" y="1851"/>
      <point x="-397" y="1281" type="curve" smooth="yes"/>
      <point x="-420" y="1126"/>
      <point x="-222" y="1079"/>
      <point x="-185" y="1277" type="curve" smooth="yes"/>
      <point x="-102" y="1717"/>
      <point x="292" y="1818"/>
      <point x="510" y="1698" type="curve" smooth="yes"/>
      <point x="639" y="1627"/>
      <point x="706" y="1484"/>
      <point x="532" y="1014" type="curve" smooth="yes"/>
      <point x="150" y="-45" type="line" smooth="yes"/>
      <point x="72" y="-257"/>
      <point x="157" y="-294"/>
    </contour>
    <contour>
      <point x="1074" y="0" type="move" name="bot"/>
    </contour>
    <contour>
      <point x="1074" y="2030" type="move" name="top"/>
    </contour>
  </outline>
</glyph>
<glyph name="I" format="1">
  <advance width="342"/>
  <unicode hex="0049"/>
  <outline>
    <contour>
      <point x="21" y="-29" type="curve" smooth="yes"/>
      <point x="36" y="-34"/>
      <point x="194" y="-11"/>
      <point x="296" y="-7" type="curve" smooth="yes"/>
      <point x="343" y="-5"/>
      <point x="345" y="45"/>
      <point x="325" y="53" type="curve" smooth="yes"/>
      <point x="304" y="61"/>
      <point x="223" y="60"/>
      <point x="211" y="58" type="curve"/>
      <point x="222" y="176"/>
      <point x="339" y="577"/>
      <point x="354" y="579" type="curve" smooth="yes"/>
      <point x="392" y="583"/>
      <point x="480" y="582"/>
      <point x="488" y="603" type="curve" smooth="yes"/>
      <point x="499" y="630"/>
      <point x="500" y="664"/>
      <point x="473" y="664" type="curve" smooth="yes"/>
      <point x="446" y="663"/>
      <point x="195" y="657"/>
      <point x="169" y="655" type="curve" smooth="yes"/>
      <point x="144" y="652"/>
      <point x="137" y="599"/>
      <point x="150" y="584" type="curve" smooth="yes"/>
      <point x="164" y="569"/>
      <point x="245" y="577"/>
      <point x="278" y="577" type="curve"/>
      <point x="219" y="445"/>
      <point x="159" y="227"/>
      <point x="134" y="55" type="curve"/>
      <point x="103" y="54"/>
      <point x="9" y="45"/>
      <point x="2" y="19" type="curve" smooth="yes"/>
      <point x="-5" y="-5"/>
      <point x="5" y="-24"/>
    </contour>
    <contour>
      <point x="171" y="0" type="move" name="ogonek"/>
    </contour>
  </outline>
</glyph>
<glyph name="J" format="1">
  <advance width="1483"/>
  <unicode hex="004A"/>
  <outline>
    <contour>
      <point x="189" y="-187"/>
      <point x="289" y="-509"/>
      <point x="598" y="-509" type="curve" smooth="yes"/>
      <point x="1068" y="-509"/>
      <point x="1364" y="738"/>
      <point x="1598" y="1675" type="curve" smooth="yes"/>
      <point x="1611" y="1727"/>
      <point x="1589" y="1786"/>
      <point x="1492" y="1786" type="curve" smooth="yes"/>
      <point x="1418" y="1786"/>
      <point x="1385" y="1767"/>
      <point x="1363" y="1651" type="curve" smooth="yes"/>
      <point x="1293" y="1262"/>
      <point x="913" y="-259"/>
      <point x="560" y="-259" type="curve" smooth="yes"/>
      <point x="403" y="-259"/>
      <point x="373" y="-16"/>
      <point x="355" y="251" type="curve" smooth="yes"/>
      <point x="346" y="390"/>
      <point x="171" y="401"/>
      <point x="176" y="227" type="curve" smooth="yes"/>
    </contour>
    <contour>
      <point x="1892" y="1485"/>
      <point x="1716" y="1468"/>
      <point x="1904" y="1512" type="curve" smooth="yes"/>
      <point x="1928" y="1517"/>
      <point x="2016" y="1734"/>
      <point x="1871" y="1734" type="curve" smooth="yes"/>
      <point x="844" y="1734"/>
      <point x="-38" y="2031"/>
      <point x="-236" y="1209" type="curve" smooth="yes"/>
      <point x="-263" y="1095"/>
      <point x="-100" y="1097"/>
      <point x="-74" y="1158" type="curve" smooth="yes"/>
      <point x="6" y="1354"/>
      <point x="165" y="1525"/>
      <point x="906" y="1509" type="curve" smooth="yes"/>
    </contour>
    <contour>
      <point x="741.5" y="0" type="move" name="bot"/>
    </contour>
    <contour>
      <point x="741.5" y="2030" type="move" name="top"/>
    </contour>
  </outline>
</glyph>
<glyph name="K" format="1">
  <advance width="1790"/>
  <unicode hex="004B"/>
  <outline>
    <contour>
      <point x="1755" y="-405" type="curve" smooth="yes"/>
      <point x="1797" y="-405"/>
      <point x="2096" y="-383"/>
      <point x="2096" y="-278" type="curve" smooth="yes"/>
      <point x="2096" y="-228"/>
      <point x="2080" y="-162"/>
      <point x="2027" y="-162" type="curve" smooth="yes"/>
      <point x="1968" y="-162"/>
      <point x="1897" y="-198"/>
      <point x="1838" y="-198" type="curve" smooth="yes"/>
      <point x="1512" y="-198"/>
      <point x="1343" y="265"/>
      <point x="1161" y="901" type="curve"/>
      <point x="1676" y="1126"/>
      <point x="2090" y="1594"/>
      <point x="2170" y="1771" type="curve" smooth="yes"/>
      <point x="2209" y="1860"/>
      <point x="2215" y="1967"/>
      <point x="2106" y="1967" type="curve" smooth="yes"/>
      <point x="2032" y="1967"/>
      <point x="1998" y="1883"/>
      <point x="1926" y="1786" type="curve" smooth="yes"/>
      <point x="1766" y="1571"/>
      <point x="1309" y="1210"/>
      <point x="949" y="991.999" type="curve"/>
      <point x="993.999" y="1195"/>
      <point x="1001" y="1676"/>
      <point x="1001" y="1899" type="curve" smooth="yes"/>
      <point x="1001" y="1969"/>
      <point x="947" y="2004"/>
      <point x="875" y="1995" type="curve" smooth="yes"/>
      <point x="33" y="1895"/>
      <point x="-208" y="1480"/>
      <point x="-148" y="1057" type="curve" smooth="yes"/>
      <point x="-137" y="977"/>
      <point x="-74" y="921"/>
      <point x="6" y="931" type="curve" smooth="yes"/>
      <point x="106" y="943"/>
      <point x="144" y="980"/>
      <point x="140" y="1034" type="curve" smooth="yes"/>
      <point x="120" y="1317"/>
      <point x="218" y="1620"/>
      <point x="747" y="1790" type="curve"/>
      <point x="767" y="1007"/>
      <point x="359" y="-80"/>
      <point x="-131" y="-170" type="curve" smooth="yes"/>
      <point x="-188" y="-180"/>
      <point x="-232" y="-143"/>
      <point x="-279" y="-143" type="curve" smooth="yes"/>
      <point x="-341" y="-143"/>
      <point x="-406" y="-241"/>
      <point x="-406" y="-303" type="curve" smooth="yes"/>
      <point x="-406" y="-388"/>
      <point x="-189" y="-403"/>
      <point x="-96" y="-403" type="curve" smooth="yes"/>
      <point x="347" y="-403"/>
      <point x="646" y="103"/>
      <point x="919" y="862" type="curve"/>
      <point x="1093" y="19"/>
      <point x="1311" y="-405"/>
    </contour>
    <contour>
      <point x="895" y="2030" type="move" name="top"/>
    </contour>
    <contour>
      <point x="895" y="0" type="move" name="bot"/>
    </contour>
  </outline>
</glyph>
<glyph name="L" format="1">
  <advance width="1820"/>
  <unicode hex="004C"/>
  <outline>
    <contour>
      <point x="553" y="-304" type="curve" smooth="yes"/>
      <point x="1263" y="-304"/>
      <point x="1441" y="387"/>
      <point x="1411" y="1038" type="curve" smooth="yes"/>
      <point x="1411" y="1561"/>
      <point x="1502" y="1756"/>
      <point x="1747" y="1829" type="curve" smooth="yes"/>
      <point x="2437" y="2035"/>
      <point x="2520" y="900"/>
      <point x="835" y="1295" type="curve" smooth="yes"/>
      <point x="721" y="1322"/>
      <point x="665" y="1135"/>
      <point x="766" y="1112" type="curve" smooth="yes"/>
      <point x="2864" y="634"/>
      <point x="2748" y="2201"/>
      <point x="1779" y="2062" type="curve" smooth="yes"/>
      <point x="1464" y="2017"/>
      <point x="1158" y="1803"/>
      <point x="1158" y="1213" type="curve" smooth="yes"/>
      <point x="1158" y="597"/>
      <point x="1191" y="-119"/>
      <point x="553" y="-119" type="curve" smooth="yes"/>
      <point x="339" y="-119"/>
      <point x="333" y="135"/>
      <point x="487" y="136" type="curve" smooth="yes"/>
      <point x="1018" y="141"/>
      <point x="2099" y="-1102"/>
      <point x="2597" y="-349" type="curve" smooth="yes"/>
      <point x="2646" y="-274"/>
      <point x="2515" y="-171"/>
      <point x="2460" y="-237" type="curve" smooth="yes"/>
      <point x="2025" y="-764"/>
      <point x="1109" y="346"/>
      <point x="481" y="346" type="curve" smooth="yes"/>
      <point x="40" y="346"/>
      <point x="37" y="-304"/>
    </contour>
    <contour>
      <point x="910" y="0" type="move" name="bot"/>
    </contour>
    <contour>
      <point x="1280" y="513" type="move" name="mid"/>
    </contour>
    <contour>
      <point x="1875" y="1920" type="move" name="top"/>
    </contour>
  </outline>
</glyph>
<glyph name="M" format="1">
  <advance width="863"/>
  <unicode hex="004D"/>
  <outline>
    <contour>
      <point x="155" y="12" type="curve" smooth="yes"/>
      <point x="266" y="375"/>
      <point x="346" y="552"/>
      <point x="443" y="552" type="curve" smooth="yes"/>
      <point x="512" y="552"/>
      <point x="497" y="438"/>
      <point x="469" y="344" type="curve" smooth="yes"/>
      <point x="361" y="-17" type="line" smooth="yes"/>
      <point x="361" y="-17"/>
      <point x="386" y="-42"/>
      <point x="414" y="-42" type="curve" smooth="yes"/>
      <point x="449" y="-42"/>
      <point x="456" y="1"/>
      <point x="462" y="22" type="curve" smooth="yes"/>
      <point x="540" y="293"/>
      <point x="631" y="549"/>
      <point x="724" y="556" type="curve" smooth="yes"/>
      <point x="757" y="558"/>
      <point x="777" y="535"/>
      <point x="775" y="512" type="curve" smooth="yes"/>
      <point x="765" y="379"/>
      <point x="674" y="197"/>
      <point x="665" y="47" type="curve" smooth="yes"/>
      <point x="661" y="-19"/>
      <point x="701" y="-69"/>
      <point x="792" y="-69" type="curve" smooth="yes"/>
      <point x="845" y="-69"/>
      <point x="893" y="-39"/>
      <point x="923" y="-4" type="curve" smooth="yes"/>
      <point x="970" y="48"/>
      <point x="919" y="84"/>
      <point x="887" y="45" type="curve" smooth="yes"/>
      <point x="862" y="15"/>
      <point x="824" y="-1"/>
      <point x="792" y="0" type="curve" smooth="yes"/>
      <point x="761" y="2"/>
      <point x="738" y="23"/>
      <point x="744" y="64" type="curve" smooth="yes"/>
      <point x="764" y="208"/>
      <point x="849" y="370"/>
      <point x="859" y="519" type="curve" smooth="yes"/>
      <point x="863" y="570"/>
      <point x="847" y="648"/>
      <point x="747" y="640" type="curve" smooth="yes"/>
      <point x="680" y="635"/>
      <point x="591" y="552"/>
      <point x="543" y="401" type="curve"/>
      <point x="581" y="554"/>
      <point x="553" y="645"/>
      <point x="466" y="642" type="curve" smooth="yes"/>
      <point x="371" y="639"/>
      <point x="312" y="579"/>
      <point x="232" y="380" type="curve"/>
      <point x="273" y="526"/>
      <point x="289" y="632"/>
      <point x="175" y="643" type="curve" smooth="yes"/>
      <point x="97" y="650"/>
      <point x="10" y="583"/>
      <point x="-3" y="489" type="curve" smooth="yes"/>
      <point x="-8" y="451"/>
      <point x="53" y="425"/>
      <point x="57" y="438" type="curve" smooth="yes"/>
      <point x="75" y="507"/>
      <point x="117" y="579"/>
      <point x="163" y="572" type="curve" smooth="yes"/>
      <point x="204" y="566"/>
      <point x="197" y="459"/>
      <point x="147" y="298" type="curve" smooth="yes"/>
      <point x="46" y="-27" type="line" smooth="yes"/>
      <point x="46" y="-27"/>
      <point x="74" y="-52"/>
      <point x="105" y="-52" type="curve" smooth="yes"/>
      <point x="145" y="-52"/>
      <point x="149" y="-9"/>
    </contour>
  </outline>
</glyph>
<glyph name="N" format="1">
  <advance width="1575"/>
  <unicode hex="004E"/>
  <outline>
    <contour>
      <point x="37" y="-122" type="curve" smooth="yes"/>
      <point x="154" y="-122"/>
      <point x="173" y="-28"/>
      <point x="211" y="65" type="curve" smooth="yes"/>
      <point x="522" y="839"/>
      <point x="847" y="1624"/>
      <point x="1240" y="1624" type="curve" smooth="yes"/>
      <point x="1320" y="1624"/>
      <point x="1354" y="1564"/>
      <point x="1355" y="1497" type="curve" smooth="yes"/>
      <point x="1358" y="1292"/>
      <point x="1086" y="755"/>
      <point x="1004" y="248" type="curve" smooth="yes"/>
      <point x="974" y="54"/>
      <point x="1096" y="-92"/>
      <point x="1365" y="-92" type="curve" smooth="yes"/>
      <point x="1488" y="-92"/>
      <point x="1656" y="-12"/>
      <point x="1755" y="86" type="curve" smooth="yes"/>
      <point x="1908" y="238"/>
      <point x="1757" y="357"/>
      <point x="1653" y="242" type="curve" smooth="yes"/>
      <point x="1491" y="63"/>
      <point x="1182" y="56"/>
      <point x="1238" y="298" type="curve" smooth="yes"/>
      <point x="1350" y="790"/>
      <point x="1622" y="1298"/>
      <point x="1617" y="1597" type="curve" smooth="yes"/>
      <point x="1614" y="1748"/>
      <point x="1516" y="1864"/>
      <point x="1339" y="1878" type="curve" smooth="yes"/>
      <point x="849" y="1918"/>
      <point x="604" y="1405"/>
      <point x="442" y="971" type="curve"/>
      <point x="505" y="1222"/>
      <point x="557" y="1485"/>
      <point x="555" y="1619" type="curve" smooth="yes"/>
      <point x="552" y="1782"/>
      <point x="418" y="1879"/>
      <point x="278" y="1867" type="curve" smooth="yes"/>
      <point x="46" y="1847"/>
      <point x="-122" y="1670"/>
      <point x="-212" y="1478" type="curve" smooth="yes"/>
      <point x="-279" y="1334"/>
      <point x="-63" y="1248"/>
      <point x="-51" y="1283" type="curve" smooth="yes"/>
      <point x="-4" y="1416"/>
      <point x="155" y="1672"/>
      <point x="257" y="1671" type="curve" smooth="yes"/>
      <point x="327" y="1670"/>
      <point x="328" y="1532"/>
      <point x="329" y="1504" type="curve" smooth="yes"/>
      <point x="335" y="1159"/>
      <point x="40" y="359"/>
      <point x="-124" y="-48" type="curve" smooth="yes"/>
      <point x="-124" y="-49"/>
      <point x="-55" y="-122"/>
    </contour>
    <contour>
      <point x="787.5" y="0" type="move" name="bot"/>
    </contour>
    <contour>
      <point x="787.5" y="2030" type="move" name="top"/>
    </contour>
  </outline>
</glyph>
<glyph name="O" format="1">
  <advance width="1935"/>
  <unicode hex="004F"/>
  <outline>
    <contour>
      <point x="926" y="-70" type="curve" smooth="yes"/>
      <point x="605" y="-70"/>
      <point x="455" y="278"/>
      <point x="455" y="536" type="curve" smooth="yes"/>
      <point x="455" y="965"/>
      <point x="693" y="1638"/>
      <point x="1201" y="1638" type="curve" smooth="yes"/>
      <point x="1504" y="1638"/>
      <point x="1619" y="1333"/>
      <point x="1619" y="1041" type="curve" smooth="yes"/>
      <point x="1619" y="644"/>
      <point x="1427" y="-70"/>
    </contour>
    <contour>
      <point x="907" y="-303" type="curve" smooth="yes"/>
      <point x="1557" y="-303"/>
      <point x="1889" y="438"/>
      <point x="1889" y="992" type="curve" smooth="yes"/>
      <point x="1889" y="1458"/>
      <point x="1650" y="1867"/>
      <point x="1187" y="1867" type="curve" smooth="yes"/>
      <point x="568" y="1867"/>
      <point x="194" y="1186"/>
      <point x="194" y="543" type="curve" smooth="yes"/>
      <point x="194" y="146"/>
      <point x="440" y="-303"/>
    </contour>
    <contour>
      <point x="971" y="2030" type="move" name="top"/>
    </contour>
    <contour>
      <point x="971" y="0" type="move" name="bot"/>
    </contour>
    <contour>
      <point x="44" y="0" type="move" name="ogonek"/>
    </contour>
  </outline>
</glyph>
<glyph name="P" format="1">
  <advance width="1551"/>
  <unicode hex="0050"/>
  <outline>
    <contour>
      <point x="707" y="255"/>
      <point x="732" y="-159"/>
      <point x="543" y="-159" type="curve" smooth="yes"/>
      <point x="345" y="-159"/>
      <point x="307" y="297"/>
      <point x="307" y="619" type="curve" smooth="yes"/>
      <point x="307" y="1134"/>
      <point x="493" y="1819"/>
      <point x="1014" y="1850" type="curve" smooth="yes"/>
      <point x="1416" y="1873"/>
      <point x="1648" y="1717"/>
      <point x="1648" y="1437" type="curve" smooth="yes"/>
      <point x="1648" y="1170.11"/>
      <point x="1397.16" y="974.425"/>
      <point x="1016.24" y="936.918" type="curve"/>
      <point x="1013.87" y="1084.73"/>
      <point x="1150.06" y="1289.43"/>
      <point x="1188.92" y="1432.85" type="curve"/>
      <point x="1186.59" y="1475.17"/>
      <point x="1132.13" y="1495"/>
      <point x="1076" y="1495" type="curve" smooth="yes"/>
      <point x="884.099" y="1495"/>
      <point x="876.463" y="1223.04"/>
      <point x="798.571" y="946.119" type="curve"/>
      <point x="739.768" y="948.45"/>
      <point x="614.933" y="1037"/>
      <point x="549" y="1037" type="curve" smooth="yes"/>
      <point x="522" y="1037"/>
      <point x="522" y="1002"/>
      <point x="522" y="957" type="curve" smooth="yes"/>
      <point x="522" y="822.491"/>
      <point x="650.815" y="799.53"/>
      <point x="773.265" y="747.884" type="curve"/>
    </contour>
    <contour>
      <point x="75" y="91"/>
      <point x="190" y="-359"/>
      <point x="508" y="-359" type="curve" smooth="yes"/>
      <point x="813" y="-359"/>
      <point x="899" y="-84"/>
      <point x="941" y="285" type="curve" smooth="yes"/>
      <point x="972" y="548"/>
      <point x="983.696" y="759.467"/>
      <point x="1010.17" y="762.973" type="curve" smooth="yes"/>
      <point x="1560.28" y="824.559"/>
      <point x="1900" y="1094.33"/>
      <point x="1900" y="1459" type="curve" smooth="yes"/>
      <point x="1900" y="1824.39"/>
      <point x="1569.47" y="2105.65"/>
      <point x="1023.65" y="2086.01" type="curve" smooth="yes"/>
      <point x="394.578" y="2063.44"/>
      <point x="75" y="1394"/>
      <point x="75" y="619" type="curve" smooth="yes"/>
    </contour>
    <contour>
      <point x="775.5" y="0" type="move" name="bot"/>
    </contour>
    <contour>
      <point x="775.5" y="2030" type="move" name="top"/>
    </contour>
  </outline>
</glyph>
<glyph name="Q" format="1">
  <advance width="1919.004"/>
  <unicode hex="0051"/>
  <outline>
    <contour>
      <point x="1949" y="-705"/>
      <point x="2421" y="-1126"/>
      <point x="2785" y="-852" type="curve" smooth="yes"/>
      <point x="2960" y="-720"/>
      <point x="2976" y="-623"/>
      <point x="3004" y="-575" type="curve"/>
      <point x="3012" y="-553"/>
      <point x="3006" y="-532"/>
      <point x="2995" y="-516" type="curve" smooth="yes"/>
      <point x="2965" y="-477"/>
      <point x="2896" y="-463"/>
      <point x="2861" y="-489" type="curve" smooth="yes"/>
      <point x="2852" y="-496"/>
      <point x="2846" y="-504"/>
      <point x="2843" y="-514" type="curve"/>
      <point x="2802" y="-561"/>
      <point x="2763" y="-605"/>
      <point x="2718" y="-637" type="curve" smooth="yes"/>
      <point x="2540" y="-771"/>
      <point x="2145" y="-632"/>
      <point x="1242" y="63" type="curve" smooth="yes"/>
      <point x="1197" y="98"/>
      <point x="1062" y="-43"/>
      <point x="1109" y="-78" type="curve" smooth="yes"/>
    </contour>
    <component base="O"/>
  </outline>
</glyph>
<glyph name="R" format="1">
  <advance width="730"/>
  <unicode hex="0052"/>
  <outline>
    <contour>
      <point x="223" y="-135" type="curve" smooth="yes"/>
      <point x="384" y="-135"/>
      <point x="373" y="117"/>
      <point x="413" y="373" type="curve" smooth="yes"/>
      <point x="420" y="418"/>
      <point x="461" y="449"/>
      <point x="463" y="478" type="curve" smooth="yes"/>
      <point x="463" y="498"/>
      <point x="448" y="507"/>
      <point x="426" y="507" type="curve" smooth="yes"/>
      <point x="378" y="507"/>
      <point x="349" y="431"/>
      <point x="337" y="383" type="curve" smooth="yes"/>
      <point x="315" y="282"/>
      <point x="298" y="-55"/>
      <point x="239" y="-55" type="curve" smooth="yes"/>
      <point x="190" y="-56"/>
      <point x="163" y="48"/>
      <point x="162" y="205" type="curve" smooth="yes"/>
      <point x="162" y="443"/>
      <point x="263" y="620"/>
      <point x="442" y="620" type="curve" smooth="yes"/>
      <point x="590" y="620"/>
      <point x="628" y="546"/>
      <point x="616" y="469" type="curve" smooth="yes"/>
      <point x="603" y="386"/>
      <point x="537" y="368"/>
      <point x="385" y="368" type="curve" smooth="yes"/>
      <point x="354" y="368"/>
      <point x="305" y="378"/>
      <point x="291" y="378" type="curve" smooth="yes"/>
      <point x="275" y="378"/>
      <point x="272" y="362"/>
      <point x="271" y="350" type="curve" smooth="yes"/>
      <point x="270" y="300"/>
      <point x="371" y="300"/>
      <point x="452" y="305" type="curve"/>
      <point x="482" y="86"/>
      <point x="625" y="-199"/>
      <point x="770" y="-199" type="curve" smooth="yes"/>
      <point x="846" y="-199"/>
      <point x="900" y="-140"/>
      <point x="921" y="-106" type="curve" smooth="yes"/>
      <point x="928" y="-96"/>
      <point x="922" y="-81"/>
      <point x="912" y="-72" type="curve" smooth="yes"/>
      <point x="901" y="-63"/>
      <point x="886" y="-59"/>
      <point x="877" y="-69" type="curve" smooth="yes"/>
      <point x="836" y="-112"/>
      <point x="806" y="-116"/>
      <point x="777" y="-112" type="curve" smooth="yes"/>
      <point x="700" y="-102"/>
      <point x="583" y="69"/>
      <point x="523" y="313" type="curve"/>
      <point x="619" y="329"/>
      <point x="701" y="363"/>
      <point x="716" y="474" type="curve" smooth="yes"/>
      <point x="731" y="586"/>
      <point x="628" y="705"/>
      <point x="438" y="705" type="curve" smooth="yes"/>
      <point x="235" y="705"/>
      <point x="83" y="522"/>
      <point x="75" y="198" type="curve"/>
      <point x="67" y="-15"/>
      <point x="127" y="-135"/>
    </contour>
  </outline>
</glyph>
<glyph name="S" format="1">
  <advance width="1733"/>
  <unicode hex="0053"/>
  <outline>
    <contour>
      <point x="783" y="-333" type="curve" smooth="yes"/>
      <point x="1271" y="-333"/>
      <point x="1631" y="-112"/>
      <point x="1631" y="255" type="curve" smooth="yes"/>
      <point x="1631" y="592"/>
      <point x="1398" y="692"/>
      <point x="1056" y="883" type="curve" smooth="yes"/>
      <point x="643" y="1113"/>
      <point x="541" y="1142"/>
      <point x="541" y="1344" type="curve" smooth="yes"/>
      <point x="541" y="1514"/>
      <point x="806" y="1645"/>
      <point x="1038" y="1645" type="curve" smooth="yes"/>
      <point x="1254" y="1645"/>
      <point x="1446" y="1557"/>
      <point x="1446" y="1402" type="curve" smooth="yes"/>
      <point x="1446" y="1305"/>
      <point x="1404" y="1238"/>
      <point x="1353" y="1181" type="curve" smooth="yes"/>
      <point x="1252" y="1066"/>
      <point x="1418" y="914"/>
      <point x="1577" y="1083" type="curve" smooth="yes"/>
      <point x="1641" y="1151"/>
      <point x="1701" y="1262"/>
      <point x="1699" y="1401" type="curve" smooth="yes"/>
      <point x="1694" y="1702"/>
      <point x="1395" y="1860"/>
      <point x="1008" y="1850" type="curve" smooth="yes"/>
      <point x="632" y="1841"/>
      <point x="246" y="1650"/>
      <point x="246" y="1320" type="curve" smooth="yes"/>
      <point x="246" y="1012"/>
      <point x="481" y="900"/>
      <point x="756" y="738" type="curve" smooth="yes"/>
      <point x="1031" y="576"/>
      <point x="1337" y="491"/>
      <point x="1337" y="234" type="curve" smooth="yes"/>
      <point x="1337" y="33"/>
      <point x="1179" y="-118"/>
      <point x="800" y="-118" type="curve" smooth="yes"/>
      <point x="473" y="-118"/>
      <point x="272" y="7"/>
      <point x="272" y="244" type="curve" smooth="yes"/>
      <point x="272" y="321"/>
      <point x="312" y="375"/>
      <point x="312" y="443" type="curve" smooth="yes"/>
      <point x="312" y="493"/>
      <point x="277" y="520"/>
      <point x="227" y="520" type="curve" smooth="yes"/>
      <point x="83" y="520"/>
      <point x="-9" y="384"/>
      <point x="-9" y="243" type="curve" smooth="yes"/>
      <point x="-9" y="-150"/>
      <point x="382" y="-333"/>
    </contour>
    <contour>
      <point x="783" y="-333" type="move" name="bot"/>
    </contour>
    <contour>
      <point x="866.5" y="2030" type="move" name="top"/>
    </contour>
  </outline>
</glyph>
<glyph name="T" format="1">
  <advance width="1366"/>
  <unicode hex="0054"/>
  <outline>
    <contour>
      <point x="889" y="-254" type="curve" smooth="yes"/>
      <point x="981" y="-254"/>
      <point x="1036" y="-204"/>
      <point x="1052" y="-105" type="curve" smooth="yes"/>
      <point x="1072" y="19"/>
      <point x="872" y="395"/>
      <point x="1298" y="1559" type="curve"/>
      <point x="2077" y="1550"/>
      <point x="2074" y="1532"/>
      <point x="2284" y="1576" type="curve" smooth="yes"/>
      <point x="2351" y="1590"/>
      <point x="2467" y="1832"/>
      <point x="2236" y="1847" type="curve" smooth="yes"/>
      <point x="1442" y="1897"/>
      <point x="201" y="2244"/>
      <point x="-268" y="1050" type="curve" smooth="yes"/>
      <point x="-322" y="912"/>
      <point x="-37" y="910"/>
      <point x="-2" y="987" type="curve" smooth="yes"/>
      <point x="96" y="1204"/>
      <point x="265" y="1590"/>
      <point x="1106" y="1573" type="curve"/>
      <point x="584" y="521"/>
      <point x="719" y="-30"/>
      <point x="742" y="-120" type="curve" smooth="yes"/>
      <point x="762" y="-197"/>
      <point x="800" y="-254"/>
    </contour>
    <contour>
      <point x="683" y="2030" type="move" name="top"/>
    </contour>
    <contour>
      <point x="683" y="0" type="move" name="bot"/>
    </contour>
  </outline>
</glyph>
<glyph name="U" format="1">
  <advance width="1666.003"/>
  <unicode hex="0055"/>
  <outline>
    <contour>
      <point x="539" y="-160" type="curve" smooth="yes"/>
      <point x="1138" y="-160"/>
      <point x="1399" y="779"/>
      <point x="1666" y="1693" type="curve" smooth="yes"/>
      <point x="1692" y="1781"/>
      <point x="1646" y="1828"/>
      <point x="1558" y="1828" type="curve" smooth="yes"/>
      <point x="1498" y="1828"/>
      <point x="1430" y="1775"/>
      <point x="1398" y="1668" type="curve" smooth="yes"/>
      <point x="1214" y="1053"/>
      <point x="1073" y="64"/>
      <point x="582" y="64" type="curve" smooth="yes"/>
      <point x="380" y="64"/>
      <point x="323" y="267"/>
      <point x="323" y="485" type="curve" smooth="yes"/>
      <point x="323" y="822"/>
      <point x="539" y="1346"/>
      <point x="683" y="1687" type="curve"/>
      <point x="683" y="1783.14"/>
      <point x="645" y="1790"/>
      <point x="574" y="1790" type="curve" smooth="yes"/>
      <point x="471" y="1790"/>
      <point x="450" y="1709"/>
      <point x="408" y="1630" type="curve" smooth="yes"/>
      <point x="244" y="1319"/>
      <point x="66" y="810"/>
      <point x="66" y="459" type="curve" smooth="yes"/>
      <point x="66" y="111"/>
      <point x="171" y="-160"/>
    </contour>
    <contour>
      <point x="1394" y="-79" type="curve" smooth="yes"/>
      <point x="1595" y="-162"/>
      <point x="1753" y="5"/>
      <point x="1783" y="43" type="curve" smooth="yes"/>
      <point x="1852" y="131"/>
      <point x="1771" y="169"/>
      <point x="1740" y="145" type="curve" smooth="yes"/>
      <point x="1680" y="97"/>
      <point x="1624" y="62"/>
      <point x="1514" y="72" type="curve" smooth="yes"/>
      <point x="1314" y="90"/>
      <point x="1384" y="611"/>
      <point x="1487" y="1104" type="curve"/>
      <point x="1358" y="1079" type="line"/>
      <point x="1165" y="440"/>
      <point x="1151" y="21"/>
    </contour>
    <contour>
      <point x="833.002" y="2030" type="move" name="top"/>
    </contour>
    <contour>
      <point x="833.002" y="0" type="move" name="bot"/>
    </contour>
    <contour>
      <point x="0" y="0" type="move" name="ogonek"/>
    </contour>
  </outline>
</glyph>
<glyph name="V" format="1">
  <advance width="1536"/>
  <unicode hex="0056"/>
  <outline>
    <contour>
      <point x="1492.01" y="1826"/>
      <point x="1650.87" y="1561.16"/>
      <point x="1292.84" y="845.106" type="curve" smooth="yes"/>
      <point x="1146.47" y="562.368"/>
      <point x="871.368" y="114.949"/>
      <point x="629.261" y="87.0132" type="curve" smooth="yes"/>
      <point x="516.207" y="73.8407"/>
      <point x="435" y="165.797"/>
      <point x="435" y="444" type="curve" smooth="yes"/>
      <point x="435" y="1017.37"/>
      <point x="740.564" y="1496.69"/>
      <point x="765.236" y="1529.21" type="curve" smooth="yes"/>
      <point x="795.643" y="1570.89"/>
      <point x="656.957" y="1716.03"/>
      <point x="527.052" y="1527.86" type="curve" smooth="yes"/>
      <point x="467.465" y="1443.36"/>
      <point x="212" y="990.533"/>
      <point x="212" y="464" type="curve" smooth="yes"/>
      <point x="212" y="88.4204"/>
      <point x="332.823" y="-110"/>
      <point x="591.959" y="-109" type="curve"/>
      <point x="935.262" y="-92"/>
      <point x="1215.53" y="314.637"/>
      <point x="1463.4" y="757.976" type="curve" smooth="yes"/>
      <point x="1883.52" y="1535.77"/>
      <point x="1754.67" y="2015.5"/>
      <point x="1458.61" y="2026" type="curve" smooth="yes"/>
      <point x="711.313" y="2027.96"/>
      <point x="1094.99" y="591.781"/>
      <point x="2152.26" y="1411.58" type="curve" smooth="yes"/>
      <point x="2231.6" y="1472.97"/>
      <point x="2164.39" y="1598.97"/>
      <point x="2073.43" y="1533.38" type="curve" smooth="yes"/>
      <point x="1273.21" y="957.713"/>
      <point x="1081.72" y="1826"/>
      <point x="1412" y="1826" type="curve" smooth="yes"/>
    </contour>
    <contour>
      <point x="-175" y="1131.18"/>
      <point x="-129" y="970.288"/>
      <point x="-23" y="1036.7" type="curve" smooth="yes"/>
      <point x="647.198" y="1452.7" type="line" smooth="yes"/>
      <point x="712.05" y="1492.89"/>
      <point x="660.127" y="1635.46"/>
      <point x="575.701" y="1584.29" type="curve" smooth="yes"/>
      <point x="-89" y="1182.29" type="line" smooth="yes"/>
    </contour>
  </outline>
</glyph>
<glyph name="W" format="1">
  <advance width="2683"/>
  <unicode hex="0057"/>
  <outline>
    <contour>
      <point x="2627" y="1855"/>
      <point x="2708.13" y="1552.85"/>
      <point x="2358.9" y="854.391" type="curve"/>
      <point x="2213.89" y="575.26"/>
      <point x="1941.18" y="134.732"/>
      <point x="1708.93" y="107.861" type="curve"/>
      <point x="1420.3" y="75.0404"/>
      <point x="1538.97" y="1262.58"/>
      <point x="1730.93" y="1383.28" type="curve"/>
      <point x="1495.64" y="1381.95" type="line"/>
      <point x="1282.17" y="1034.3"/>
      <point x="1190.69" y="-132"/>
      <point x="1674.08" y="-130" type="curve"/>
      <point x="2025.84" y="-113"/>
      <point x="2312.6" y="302.755"/>
      <point x="2560.72" y="747.773" type="curve"/>
      <point x="2987.55" y="1536.57"/>
      <point x="2864" y="2046"/>
      <point x="2541.61" y="2046.99" type="curve" smooth="yes"/>
      <point x="1762" y="2049"/>
      <point x="2147" y="632"/>
      <point x="3245.03" y="1395.41" type="curve"/>
      <point x="3343.46" y="1470.44"/>
      <point x="3257" y="1621"/>
      <point x="3144" y="1540" type="curve"/>
      <point x="2324" y="967"/>
      <point x="2217" y="1855"/>
      <point x="2514" y="1855" type="curve"/>
    </contour>
    <contour>
      <point x="1566.91" y="884.732" type="line"/>
      <point x="1962.03" y="1593.22"/>
      <point x="1543.43" y="1494.83"/>
      <point x="1488.6" y="1369.62" type="curve"/>
      <point x="1313.95" y="874.602" type="line"/>
      <point x="1100.18" y="483.774"/>
      <point x="850.829" y="134.808"/>
      <point x="617.931" y="107.861" type="curve"/>
      <point x="517.466" y="96.3031"/>
      <point x="444" y="178.777"/>
      <point x="444" y="444" type="curve"/>
      <point x="444" y="1010.14"/>
      <point x="746.014" y="1483.89"/>
      <point x="770.4" y="1516.4" type="curve"/>
      <point x="817.054" y="1579.63"/>
      <point x="650.489" y="1752.95"/>
      <point x="503.195" y="1539.94" type="curve"/>
      <point x="443.489" y="1455.39"/>
      <point x="185" y="997.201"/>
      <point x="185" y="464" type="curve"/>
      <point x="185" y="81.3711"/>
      <point x="314.804" y="-131"/>
      <point x="583.891" y="-130" type="curve"/>
      <point x="933.248" y="-113"/>
      <point x="1245.48" y="322.766"/>
      <point x="1473.59" y="816.225" type="curve"/>
    </contour>
    <contour>
      <point x="-211" y="1138.37"/>
      <point x="-153" y="936.417"/>
      <point x="-22" y="1019.25" type="curve"/>
      <point x="647.495" y="1435.16" type="line"/>
      <point x="731.253" y="1486.7"/>
      <point x="665.129" y="1667.2"/>
      <point x="557.658" y="1601.95" type="curve"/>
      <point x="-107" y="1199.97" type="line"/>
    </contour>
    <contour>
      <point x="1587" y="0" type="move" name="bot"/>
    </contour>
    <contour>
      <point x="1587" y="2030" type="move" name="top"/>
    </contour>
  </outline>
</glyph>
<glyph name="X" format="1">
  <advance width="1746"/>
  <unicode hex="0058"/>
  <outline>
    <contour>
      <point x="1423" y="-279" type="curve" smooth="yes"/>
      <point x="1641" y="-279"/>
      <point x="1712" y="-212"/>
      <point x="1763" y="-190" type="curve"/>
      <point x="1831" y="-142.4"/>
      <point x="1762.33" y="-35"/>
      <point x="1700" y="-35" type="curve" smooth="yes"/>
      <point x="1633" y="-35"/>
      <point x="1563" y="-68"/>
      <point x="1498" y="-68" type="curve" smooth="yes"/>
      <point x="1276" y="-68"/>
      <point x="1104" y="431"/>
      <point x="1002" y="924" type="curve" smooth="yes"/>
      <point x="908" y="1488"/>
      <point x="744" y="1753"/>
      <point x="408" y="1753" type="curve" smooth="yes"/>
      <point x="222.208" y="1753"/>
      <point x="72.0662" y="1653.65"/>
      <point x="63.8309" y="1506.14" type="curve" smooth="yes"/>
      <point x="52.0313" y="1294.79"/>
      <point x="331.566" y="984.552"/>
      <point x="1215" y="726" type="curve" smooth="yes"/>
      <point x="1365" y="682"/>
      <point x="1415" y="811"/>
      <point x="1336" y="836" type="curve" smooth="yes"/>
      <point x="535.272" y="1090.05"/>
      <point x="276.09" y="1330.32"/>
      <point x="278.033" y="1442.26" type="curve" smooth="yes"/>
      <point x="278.759" y="1484.09"/>
      <point x="315.962" y="1508"/>
      <point x="375" y="1508" type="curve" smooth="yes"/>
      <point x="557" y="1508"/>
      <point x="690" y="1399"/>
      <point x="802" y="849" type="curve" smooth="yes"/>
      <point x="889" y="419"/>
      <point x="966" y="-279"/>
    </contour>
    <contour>
      <point x="184" y="-308" type="curve" smooth="yes"/>
      <point x="281" y="-143"/>
      <point x="1335" y="1186"/>
      <point x="1815" y="1489" type="curve" smooth="yes"/>
      <point x="2177.64" y="1712.03"/>
      <point x="1928.01" y="1899.45"/>
      <point x="1666.29" y="1741.52" type="curve" smooth="yes"/>
      <point x="1085.02" y="1390.77"/>
      <point x="90.6448" y="-32.8072"/>
      <point x="8" y="-204" type="curve" smooth="yes"/>
      <point x="-66" y="-358"/>
      <point x="131" y="-397"/>
    </contour>
  </outline>
</glyph>
<glyph name="Y" format="1">
  <advance width="1461"/>
  <unicode hex="0059"/>
  <outline>
    <contour>
      <point x="504" y="-786"/>
      <point x="478" y="-766"/>
      <point x="478" y="-705" type="curve" smooth="yes"/>
      <point x="478" y="-476"/>
      <point x="1206" y="241"/>
      <point x="1783" y="647" type="curve" smooth="yes"/>
      <point x="1837" y="684"/>
      <point x="1779" y="825"/>
      <point x="1709" y="778" type="curve" smooth="yes"/>
      <point x="1321" y="516"/>
      <point x="277" y="-342"/>
      <point x="277" y="-802" type="curve" smooth="yes"/>
      <point x="277" y="-907"/>
      <point x="343" y="-994"/>
      <point x="467" y="-994" type="curve" smooth="yes"/>
      <point x="845" y="-994"/>
      <point x="1009" y="-561"/>
      <point x="1237" y="315" type="curve"/>
      <point x="1237" y="316" type="line"/>
      <point x="1514" y="1496" type="line" smooth="yes"/>
      <point x="1543" y="1617"/>
      <point x="1541" y="1692"/>
      <point x="1406" y="1692" type="curve" smooth="yes"/>
      <point x="1352" y="1692"/>
      <point x="1308" y="1648"/>
      <point x="1288" y="1556" type="curve" smooth="yes"/>
      <point x="1076" y="613" type="line"/>
      <point x="643" y="54"/>
      <point x="-174" y="-81"/>
      <point x="504" y="1647" type="curve" smooth="yes"/>
      <point x="527" y="1708"/>
      <point x="464" y="1724"/>
      <point x="416" y="1724" type="curve" smooth="yes"/>
      <point x="339" y="1724"/>
      <point x="305" y="1674"/>
      <point x="286" y="1636" type="curve" smooth="yes"/>
      <point x="-336" y="423"/>
      <point x="205" y="-520"/>
      <point x="1029" y="363" type="curve"/>
      <point x="850" y="-374"/>
      <point x="615" y="-786"/>
      <point x="535" y="-786" type="curve" smooth="yes"/>
    </contour>
    <contour>
      <point x="730.5" y="0" type="move" name="bot"/>
    </contour>
    <contour>
      <point x="1018" y="2030" type="move" name="top"/>
    </contour>
  </outline>
</glyph>
<glyph name="Z" format="1">
  <advance width="585"/>
  <unicode hex="005A"/>
  <outline>
    <contour>
      <point x="139" y="129" type="curve" smooth="yes"/>
      <point x="99" y="89"/>
      <point x="47" y="32"/>
      <point x="61" y="16" type="curve" smooth="yes"/>
      <point x="73" y="1"/>
      <point x="89" y="-3"/>
      <point x="107" y="-0" type="curve"/>
      <point x="193" y="51" type="line"/>
      <point x="339" y="-24"/>
      <point x="485" y="-135"/>
      <point x="692" y="-5" type="curve" smooth="yes"/>
      <point x="698" y="-1"/>
      <point x="723" y="19"/>
      <point x="713" y="46" type="curve" smooth="yes"/>
      <point x="705" y="72"/>
      <point x="680" y="70"/>
      <point x="664" y="60" type="curve" smooth="yes"/>
      <point x="512" y="-43"/>
      <point x="440" y="5"/>
      <point x="253" y="101" type="curve"/>
      <point x="249" y="109" type="line"/>
      <point x="329" y="193"/>
      <point x="538" y="426"/>
      <point x="693" y="552" type="curve"/>
      <point x="654" y="603"/>
      <point x="647" y="591"/>
      <point x="581" y="543" type="curve" smooth="yes"/>
      <point x="389" y="407"/>
      <point x="195" y="186"/>
    </contour>
    <contour>
      <point x="726" y="547" type="curve" smooth="yes"/>
      <point x="764" y="553"/>
      <point x="785" y="564"/>
      <point x="783" y="594" type="curve" smooth="yes"/>
      <point x="781" y="620"/>
      <point x="753" y="626"/>
      <point x="729" y="627" type="curve" smooth="yes"/>
      <point x="609" y="629"/>
      <point x="478" y="643"/>
      <point x="365" y="645" type="curve" smooth="yes"/>
      <point x="195" y="647"/>
      <point x="69" y="616"/>
      <point x="29" y="447" type="curve" smooth="yes"/>
      <point x="20" y="408"/>
      <point x="75" y="409"/>
      <point x="84" y="430" type="curve" smooth="yes"/>
      <point x="111" y="497"/>
      <point x="166" y="557"/>
      <point x="419" y="550" type="curve" smooth="yes"/>
      <point x="551" y="546"/>
      <point x="683" y="541"/>
    </contour>
  </outline>
</glyph>
<glyph name="underscore" format="1">
  <advance width="426"/>
  <unicode hex="005F"/>
  <outline>
    <contour>
      <point x="44" y="0" type="curve" smooth="yes"/>
      <point x="349" y="0" type="line" smooth="yes"/>
      <point x="395" y="0"/>
      <point x="433" y="11"/>
      <point x="433" y="56" type="curve" smooth="yes"/>
      <point x="433" y="72"/>
      <point x="421" y="77"/>
      <point x="405" y="77" type="curve" smooth="yes"/>
      <point x="292" y="77" type="line" smooth="yes"/>
      <point x="252" y="77"/>
      <point x="208" y="77"/>
      <point x="169" y="77" type="curve" smooth="yes"/>
      <point x="81" y="77" type="line" smooth="yes"/>
      <point x="42" y="77"/>
      <point x="-2" y="75"/>
      <point x="-2" y="37" type="curve" smooth="yes"/>
      <point x="-2" y="12"/>
      <point x="19" y="0"/>
    </contour>
  </outline>
</glyph>
<glyph name="grave" format="1">
  <advance width="609"/>
  <unicode hex="0060"/>
  <outline>
    <contour>
      <point x="380" y="2348" type="curve" smooth="yes"/>
      <point x="127" y="2758" type="line" smooth="yes"/>
      <point x="41" y="2904"/>
      <point x="-187" y="2734"/>
      <point x="-54" y="2608" type="curve" smooth="yes"/>
      <point x="296" y="2276" type="line" smooth="yes"/>
      <point x="358" y="2217"/>
      <point x="434" y="2263"/>
    </contour>
  </outline>
</glyph>
<glyph name="a" format="1">
  <advance width="350"/>
  <unicode hex="0061"/>
  <outline>
    <contour>
      <point x="111" y="-5" type="curve" smooth="yes"/>
      <point x="158" y="-7"/>
      <point x="202" y="20"/>
      <point x="223" y="62" type="curve" smooth="yes"/>
      <point x="223" y="63"/>
      <point x="224" y="64"/>
      <point x="224" y="65" type="curve"/>
      <point x="229" y="25"/>
      <point x="256" y="0"/>
      <point x="294" y="0" type="curve" smooth="yes"/>
      <point x="350" y="0"/>
      <point x="404" y="51"/>
      <point x="429" y="85" type="curve"/>
      <point x="430" y="88"/>
      <point x="431" y="93"/>
      <point x="431" y="98" type="curve" smooth="yes"/>
      <point x="431" y="117"/>
      <point x="422" y="145"/>
      <point x="407" y="145" type="curve" smooth="yes"/>
      <point x="403" y="145"/>
      <point x="398" y="142"/>
      <point x="393" y="136" type="curve"/>
      <point x="376" y="114"/>
      <point x="336" y="69"/>
      <point x="303" y="69" type="curve" smooth="yes"/>
      <point x="287" y="69"/>
      <point x="284" y="87"/>
      <point x="287" y="104" type="curve" smooth="yes"/>
      <point x="315" y="276" type="line" smooth="yes"/>
      <point x="318" y="296"/>
      <point x="307" y="308"/>
      <point x="287" y="308" type="curve" smooth="yes"/>
      <point x="264" y="308" type="line"/>
      <point x="264" y="317"/>
      <point x="266" y="335"/>
      <point x="223" y="335" type="curve" smooth="yes"/>
      <point x="128" y="335"/>
      <point x="18" y="224"/>
      <point x="21" y="99" type="curve" smooth="yes"/>
      <point x="23" y="42"/>
      <point x="53" y="-2"/>
    </contour>
    <contour>
      <point x="132" y="65" type="curve" smooth="yes"/>
      <point x="103" y="66"/>
      <point x="96" y="89"/>
      <point x="96" y="111" type="curve" smooth="yes"/>
      <point x="96" y="174"/>
      <point x="164" y="273"/>
      <point x="246" y="273" type="curve"/>
      <point x="219" y="161" type="line" smooth="yes"/>
      <point x="208" y="116"/>
      <point x="172" y="63"/>
    </contour>
    <contour>
      <point x="294" y="0" type="move" name="ogonek"/>
    </contour>
  </outline>
</glyph>
<glyph name="b" format="1">
  <advance width="1121.008"/>
  <unicode hex="0062"/>
  <outline>
    <contour>
      <point x="537" y="-16" type="curve" smooth="yes"/>
      <point x="852" y="-16"/>
      <point x="1025" y="277"/>
      <point x="1025" y="674" type="curve" smooth="yes"/>
      <point x="1025" y="831"/>
      <point x="928" y="931"/>
      <point x="831" y="946" type="curve" smooth="yes"/>
      <point x="738" y="960"/>
      <point x="593" y="865"/>
      <point x="593" y="865" type="curve"/>
      <point x="757" y="996"/>
      <point x="1025" y="1391"/>
      <point x="1066" y="1647" type="curve" smooth="yes"/>
      <point x="1096" y="1840"/>
      <point x="1057" y="1980"/>
      <point x="863" y="1980" type="curve" smooth="yes"/>
      <point x="407" y="1980"/>
      <point x="133" y="1048"/>
      <point x="112" y="408" type="curve" smooth="yes"/>
      <point x="104" y="156"/>
      <point x="261" y="-16"/>
    </contour>
    <contour>
      <point x="928" y="353" type="curve" smooth="yes"/>
      <point x="1077" y="353"/>
      <point x="1248" y="427"/>
      <point x="1334" y="506" type="curve" smooth="yes"/>
      <point x="1363" y="533"/>
      <point x="1368" y="548"/>
      <point x="1368" y="585" type="curve" smooth="yes"/>
      <point x="1368" y="629"/>
      <point x="1344" y="682"/>
      <point x="1304" y="682" type="curve" smooth="yes"/>
      <point x="1264" y="682"/>
      <point x="1150" y="563"/>
      <point x="992" y="563" type="curve" smooth="yes"/>
      <point x="870" y="563"/>
      <point x="901" y="625"/>
      <point x="808" y="718" type="curve"/>
      <point x="720" y="676"/>
      <point x="668" y="603"/>
      <point x="668" y="537" type="curve" smooth="yes"/>
      <point x="668" y="414"/>
      <point x="782" y="353"/>
    </contour>
    <contour>
      <point x="571" y="176" type="curve" smooth="yes"/>
      <point x="403" y="167"/>
      <point x="361" y="306"/>
      <point x="372" y="428" type="curve" smooth="yes"/>
      <point x="387" y="590"/>
      <point x="529" y="774"/>
      <point x="671" y="774" type="curve" smooth="yes"/>
      <point x="833" y="774"/>
      <point x="798" y="675"/>
      <point x="798" y="557" type="curve" smooth="yes"/>
      <point x="798" y="386"/>
      <point x="710" y="183"/>
    </contour>
    <contour>
      <point x="391" y="812" type="curve"/>
      <point x="404" y="1106"/>
      <point x="634" y="1744"/>
      <point x="792" y="1744" type="curve" smooth="yes"/>
      <point x="828" y="1744"/>
      <point x="858" y="1738"/>
      <point x="852" y="1653" type="curve" smooth="yes"/>
      <point x="833" y="1392"/>
      <point x="545" y="1039"/>
    </contour>
    <contour>
      <point x="554" y="953" type="move" name="top"/>
    </contour>
  </outline>
</glyph>
<glyph name="c" format="1">
  <advance width="274"/>
  <unicode hex="0063"/>
  <outline>
    <contour>
      <point x="162" y="-6" type="curve" smooth="yes"/>
      <point x="253" y="-6"/>
      <point x="321" y="55"/>
      <point x="354" y="105" type="curve" smooth="yes"/>
      <point x="368" y="127"/>
      <point x="344" y="163"/>
      <point x="325" y="142" type="curve" smooth="yes"/>
      <point x="284" y="97"/>
      <point x="232" y="52"/>
      <point x="172" y="52" type="curve" smooth="yes"/>
      <point x="126" y="52"/>
      <point x="94" y="83"/>
      <point x="96" y="136" type="curve" smooth="yes"/>
      <point x="99" y="230"/>
      <point x="152" y="266"/>
      <point x="187" y="266" type="curve" smooth="yes"/>
      <point x="204" y="266"/>
      <point x="218" y="256"/>
      <point x="217" y="242" type="curve" smooth="yes"/>
      <point x="216" y="213"/>
      <point x="204" y="211"/>
      <point x="204" y="197" type="curve" smooth="yes"/>
      <point x="204" y="183"/>
      <point x="214" y="169"/>
      <point x="229" y="169" type="curve" smooth="yes"/>
      <point x="250" y="169"/>
      <point x="284" y="209"/>
      <point x="284" y="251" type="curve" smooth="yes"/>
      <point x="284" y="292"/>
      <point x="249" y="330"/>
      <point x="191" y="330" type="curve" smooth="yes"/>
      <point x="85" y="330"/>
      <point x="19" y="216"/>
      <point x="22" y="126" type="curve" smooth="yes"/>
      <point x="26" y="23"/>
      <point x="109" y="-6"/>
    </contour>
    <contour>
      <point x="136" y="0" type="move" name="bot"/>
    </contour>
  </outline>
</glyph>
<glyph name="d" format="1">
  <advance width="1128"/>
  <unicode hex="0064"/>
  <outline>
    <contour>
      <point x="358" y="-16" type="curve" smooth="yes"/>
      <point x="510" y="-16"/>
      <point x="612" y="57"/>
      <point x="667" y="193" type="curve"/>
      <point x="725" y="61"/>
      <point x="833" y="-8"/>
      <point x="955" y="-8" type="curve" smooth="yes"/>
      <point x="1171" y="-8"/>
      <point x="1313" y="130"/>
      <point x="1408" y="248" type="curve" smooth="yes"/>
      <point x="1417" y="260"/>
      <point x="1433" y="290"/>
      <point x="1432" y="318" type="curve" smooth="yes"/>
      <point x="1427" y="371"/>
      <point x="1380" y="404"/>
      <point x="1338" y="403" type="curve" smooth="yes"/>
      <point x="1319" y="403"/>
      <point x="1306" y="402"/>
      <point x="1295" y="389" type="curve" smooth="yes"/>
      <point x="1244" y="326"/>
      <point x="1109" y="175"/>
      <point x="978" y="175" type="curve" smooth="yes"/>
      <point x="894" y="175"/>
      <point x="837" y="260"/>
      <point x="842" y="454" type="curve"/>
      <point x="1069" y="788"/>
      <point x="1464" y="1273"/>
      <point x="1425" y="1727" type="curve" smooth="yes"/>
      <point x="1415" y="1828"/>
      <point x="1330" y="1921"/>
      <point x="1210" y="1921" type="curve" smooth="yes"/>
      <point x="915" y="1921"/>
      <point x="746" y="1520"/>
      <point x="665" y="951" type="curve"/>
      <point x="346" y="1052"/>
      <point x="38" y="648"/>
      <point x="69" y="283" type="curve" smooth="yes"/>
      <point x="85" y="102"/>
      <point x="206" y="-16"/>
    </contour>
    <contour>
      <point x="406" y="190" type="curve" smooth="yes"/>
      <point x="365" y="190"/>
      <point x="305" y="207"/>
      <point x="295" y="325" type="curve" smooth="yes"/>
      <point x="278" y="527"/>
      <point x="428" y="773"/>
      <point x="654" y="773" type="curve"/>
      <point x="622" y="551" type="line" smooth="yes"/>
      <point x="580" y="261"/>
      <point x="507" y="190"/>
    </contour>
    <contour>
      <point x="848" y="739" type="curve"/>
      <point x="901" y="1141"/>
      <point x="977" y="1680"/>
      <point x="1167" y="1680" type="curve" smooth="yes"/>
      <point x="1193" y="1680"/>
      <point x="1213" y="1667"/>
      <point x="1218" y="1619" type="curve" smooth="yes"/>
      <point x="1242" y="1344"/>
      <point x="1035" y="1038"/>
    </contour>
  </outline>
</glyph>
<glyph name="e" format="1">
  <advance width="842"/>
  <unicode hex="0065"/>
  <outline>
    <contour>
      <point x="461" y="-17" type="curve" smooth="yes"/>
      <point x="710" y="-24"/>
      <point x="945" y="131"/>
      <point x="1037" y="257" type="curve" smooth="yes"/>
      <point x="1102" y="345"/>
      <point x="995.999" y="419"/>
      <point x="952" y="376" type="curve" smooth="yes"/>
      <point x="716" y="149"/>
      <point x="364" y="97.9999"/>
      <point x="299" y="300" type="curve"/>
      <point x="643" y="375"/>
      <point x="827" y="494"/>
      <point x="827" y="717" type="curve" smooth="yes"/>
      <point x="827" y="873"/>
      <point x="706" y="966"/>
      <point x="552" y="966" type="curve" smooth="yes"/>
      <point x="271" y="966"/>
      <point x="64" y="648"/>
      <point x="64" y="377" type="curve" smooth="yes"/>
      <point x="64" y="105"/>
      <point x="261" y="-11"/>
    </contour>
    <contour>
      <point x="283" y="430" type="curve"/>
      <point x="283" y="595"/>
      <point x="420" y="775"/>
      <point x="564" y="775" type="curve" smooth="yes"/>
      <point x="612" y="775"/>
      <point x="656" y="751"/>
      <point x="649" y="681" type="curve" smooth="yes"/>
      <point x="638" y="571"/>
      <point x="403" y="472"/>
    </contour>
    <contour>
      <point x="421" y="0" type="move" name="bot"/>
    </contour>
    <contour>
      <point x="538" y="0" type="move" name="ogonek"/>
    </contour>
    <contour>
      <point x="569" y="953" type="move" name="top"/>
    </contour>
  </outline>
</glyph>
<glyph name="f" format="1">
  <advance width="742"/>
  <unicode hex="0066"/>
  <outline>
    <contour>
      <point x="289" y="-704" type="curve" smooth="yes"/>
      <point x="545" y="-655"/>
      <point x="652" y="-367"/>
      <point x="652" y="-129" type="curve" smooth="yes"/>
      <point x="652" y="54"/>
      <point x="589" y="305"/>
      <point x="533" y="427" type="curve"/>
      <point x="735" y="434"/>
      <point x="1009" y="453"/>
      <point x="1009" y="652" type="curve" smooth="yes"/>
      <point x="1009" y="691"/>
      <point x="996" y="721"/>
      <point x="973" y="721" type="curve" smooth="yes"/>
      <point x="967" y="721"/>
      <point x="962" y="719"/>
      <point x="955" y="715" type="curve" smooth="yes"/>
      <point x="817" y="638"/>
      <point x="745" y="587"/>
      <point x="578" y="587" type="curve" smooth="yes"/>
      <point x="539" y="587"/>
      <point x="493" y="593"/>
      <point x="464" y="603" type="curve"/>
      <point x="661" y="833"/>
      <point x="1001" y="1243"/>
      <point x="1001" y="1624" type="curve" smooth="yes"/>
      <point x="1001" y="1762"/>
      <point x="926" y="1856"/>
      <point x="801" y="1856" type="curve" smooth="yes"/>
      <point x="245" y="1856"/>
      <point x="53" y="381"/>
      <point x="53" y="-178" type="curve" smooth="yes"/>
      <point x="53" y="-416"/>
      <point x="81" y="-744"/>
    </contour>
    <contour>
      <point x="322" y="-518" type="curve" smooth="yes"/>
      <point x="274" y="-518"/>
      <point x="270" y="-318"/>
      <point x="270" y="-173" type="curve" smooth="yes"/>
      <point x="270" y="26"/>
      <point x="292" y="323"/>
      <point x="302" y="523" type="curve"/>
      <point x="390" y="380"/>
      <point x="468" y="71"/>
      <point x="468" y="-183" type="curve" smooth="yes"/>
      <point x="468" y="-188" type="line" smooth="yes"/>
      <point x="468" y="-304"/>
      <point x="466" y="-518"/>
    </contour>
    <contour>
      <point x="349" y="686" type="curve"/>
      <point x="375" y="775"/>
      <point x="535" y="1631"/>
      <point x="764" y="1631" type="curve" smooth="yes"/>
      <point x="805" y="1631"/>
      <point x="814" y="1583"/>
      <point x="814" y="1529" type="curve" smooth="yes"/>
      <point x="814" y="1243"/>
      <point x="421" y="770"/>
    </contour>
    <contour>
      <point x="353" y="953" type="move" name="top"/>
    </contour>
  </outline>
</glyph>
<glyph name="g" format="1">
  <advance width="1007.994"/>
  <unicode hex="0067"/>
  <outline>
    <contour>
      <point x="184" y="-928" type="curve" smooth="yes"/>
      <point x="327" y="-928"/>
      <point x="440" y="-864"/>
      <point x="547" y="-738" type="curve" smooth="yes"/>
      <point x="656" y="-609"/>
      <point x="726" y="-360"/>
      <point x="782" y="-109" type="curve"/>
      <point x="987" y="30"/>
      <point x="1147" y="102"/>
      <point x="1286" y="178" type="curve" smooth="yes"/>
      <point x="1416" y="249"/>
      <point x="1322" y="380"/>
      <point x="1230" y="356" type="curve" smooth="yes"/>
      <point x="1144" y="334"/>
      <point x="949" y="213"/>
      <point x="809" y="98" type="curve"/>
      <point x="970" y="795" type="line" smooth="yes"/>
      <point x="987" y="868"/>
      <point x="903" y="925"/>
      <point x="805" y="885" type="curve"/>
      <point x="804" y="885"/>
      <point x="814" y="953"/>
      <point x="703" y="956" type="curve" smooth="yes"/>
      <point x="384" y="965"/>
      <point x="80" y="648"/>
      <point x="80" y="281" type="curve" smooth="yes"/>
      <point x="80" y="123"/>
      <point x="185" y="0"/>
      <point x="350" y="0" type="curve" smooth="yes"/>
      <point x="449" y="0"/>
      <point x="568" y="57"/>
      <point x="621" y="136" type="curve"/>
      <point x="591" y="-5" type="line"/>
      <point x="439" y="-121"/>
      <point x="261" y="-237"/>
      <point x="137" y="-378" type="curve" smooth="yes"/>
      <point x="59" y="-466"/>
      <point x="-58" y="-588"/>
      <point x="-58" y="-729" type="curve" smooth="yes"/>
      <point x="-58" y="-870"/>
      <point x="37" y="-928"/>
    </contour>
    <contour>
      <point x="424" y="192" type="curve" smooth="yes"/>
      <point x="340" y="192"/>
      <point x="321" y="260"/>
      <point x="321" y="324" type="curve" smooth="yes"/>
      <point x="321" y="508"/>
      <point x="510" y="773"/>
      <point x="757" y="773" type="curve"/>
      <point x="677" y="474" type="line" smooth="yes"/>
      <point x="651" y="380"/>
      <point x="593" y="192"/>
    </contour>
    <contour>
      <point x="169" y="-768" type="curve" smooth="yes"/>
      <point x="138" y="-768"/>
      <point x="124" y="-736"/>
      <point x="124" y="-709" type="curve" smooth="yes"/>
      <point x="124" y="-547"/>
      <point x="359" y="-373"/>
      <point x="580" y="-188" type="curve"/>
      <point x="543" y="-362"/>
      <point x="398" y="-768"/>
    </contour>
    <contour>
      <point x="526" y="0" type="move" name="bot"/>
    </contour>
  </outline>
</glyph>
<glyph name="h" format="1">
  <advance width="1111"/>
  <unicode hex="0068"/>
  <outline>
    <contour>
      <point x="175" y="0" type="curve" smooth="yes"/>
      <point x="273" y="-17"/>
      <point x="295" y="38"/>
      <point x="321" y="113" type="curve" smooth="yes"/>
      <point x="392" y="314"/>
      <point x="582" y="544"/>
      <point x="711" y="640" type="curve" smooth="yes"/>
      <point x="871" y="759"/>
      <point x="636" y="429"/>
      <point x="627" y="185" type="curve" smooth="yes"/>
      <point x="622" y="34"/>
      <point x="728" y="-20"/>
      <point x="846" y="0" type="curve" smooth="yes"/>
      <point x="1031" y="31"/>
      <point x="1189" y="123"/>
      <point x="1298" y="196" type="curve" smooth="yes"/>
      <point x="1343" y="228"/>
      <point x="1359" y="271"/>
      <point x="1358" y="311" type="curve" smooth="yes"/>
      <point x="1356" y="367"/>
      <point x="1321" y="415"/>
      <point x="1281" y="415" type="curve" smooth="yes"/>
      <point x="1272" y="415"/>
      <point x="1263" y="412"/>
      <point x="1255" y="407" type="curve"/>
      <point x="1227" y="383"/>
      <point x="976" y="194"/>
      <point x="891" y="194" type="curve" smooth="yes"/>
      <point x="874" y="194"/>
      <point x="864" y="200"/>
      <point x="864" y="213" type="curve" smooth="yes"/>
      <point x="858" y="347"/>
      <point x="1000" y="606"/>
      <point x="1067" y="807" type="curve" smooth="yes"/>
      <point x="1097" y="897"/>
      <point x="1022" y="966"/>
      <point x="918" y="966" type="curve" smooth="yes"/>
      <point x="820" y="966"/>
      <point x="552" y="817"/>
      <point x="339" y="440" type="curve"/>
      <point x="381" y="731" type="line"/>
      <point x="920" y="1214"/>
      <point x="1058" y="1496"/>
      <point x="1082" y="1726" type="curve"/>
      <point x="1090" y="1874"/>
      <point x="1005" y="1982"/>
      <point x="856" y="1982" type="curve" smooth="yes"/>
      <point x="349" y="1982"/>
      <point x="115" y="900"/>
      <point x="86" y="333" type="curve" smooth="yes"/>
      <point x="80" y="236"/>
      <point x="71" y="18"/>
    </contour>
    <contour>
      <point x="392" y="918" type="curve"/>
      <point x="423" y="1131"/>
      <point x="591" y="1781"/>
      <point x="809" y="1740" type="curve" smooth="yes"/>
      <point x="839" y="1734"/>
      <point x="849" y="1714"/>
      <point x="848" y="1670" type="curve" smooth="yes"/>
      <point x="838" y="1496"/>
      <point x="593" y="1131"/>
    </contour>
  </outline>
</glyph>
<glyph name="i" format="1">
  <advance width="205"/>
  <unicode hex="0069"/>
  <outline>
    <contour>
      <point x="122" y="-2" type="curve" smooth="yes"/>
      <point x="174" y="-9"/>
      <point x="238" y="20"/>
      <point x="292" y="84" type="curve" smooth="yes"/>
      <point x="299" y="93"/>
      <point x="303" y="98"/>
      <point x="303" y="105" type="curve" smooth="yes"/>
      <point x="304" y="126"/>
      <point x="288" y="138"/>
      <point x="271" y="138" type="curve" smooth="yes"/>
      <point x="264" y="138"/>
      <point x="258" y="134"/>
      <point x="253" y="128" type="curve" smooth="yes"/>
      <point x="176" y="40"/>
      <point x="117" y="42"/>
      <point x="117" y="107" type="curve" smooth="yes"/>
      <point x="117" y="156"/>
      <point x="148" y="248"/>
      <point x="174" y="295" type="curve" smooth="yes"/>
      <point x="184" y="313"/>
      <point x="161" y="328"/>
      <point x="144" y="328" type="curve" smooth="yes"/>
      <point x="123" y="328"/>
      <point x="107" y="325"/>
      <point x="93" y="298" type="curve" smooth="yes"/>
      <point x="65" y="247"/>
      <point x="39" y="156"/>
      <point x="39" y="96" type="curve" smooth="yes"/>
      <point x="39" y="42"/>
      <point x="72" y="5"/>
    </contour>
    <contour>
      <point x="186" y="394" type="curve" smooth="yes"/>
      <point x="221" y="394"/>
      <point x="244" y="415"/>
      <point x="244" y="450" type="curve" smooth="yes"/>
      <point x="244" y="481"/>
      <point x="223" y="495"/>
      <point x="194" y="495" type="curve" smooth="yes"/>
      <point x="159" y="495"/>
      <point x="132" y="475"/>
      <point x="132" y="441" type="curve" smooth="yes"/>
      <point x="132" y="410"/>
      <point x="152" y="394"/>
    </contour>
    <contour>
      <point x="0" y="0" type="move" name="ogonek"/>
    </contour>
  </outline>
</glyph>
<glyph name="j" format="1">
  <advance width="646"/>
  <unicode hex="006A"/>
  <outline>
    <contour>
      <point x="235" y="-608" type="curve" smooth="yes"/>
      <point x="486" y="-608"/>
      <point x="584" y="-281"/>
      <point x="606" y="-32" type="curve" smooth="yes"/>
      <point x="620" y="128"/>
      <point x="589" y="267"/>
      <point x="554" y="384" type="curve"/>
      <point x="733" y="386"/>
      <point x="969.999" y="426"/>
      <point x="969.999" y="618" type="curve" smooth="yes"/>
      <point x="969.999" y="658.92"/>
      <point x="953.333" y="692.667"/>
      <point x="912" y="672" type="curve"/>
      <point x="734" y="593"/>
      <point x="618" y="579"/>
      <point x="396" y="544" type="curve"/>
      <point x="466" y="704" type="line" smooth="yes"/>
      <point x="489" y="756"/>
      <point x="525" y="832"/>
      <point x="530" y="895" type="curve" smooth="yes"/>
      <point x="533" y="932"/>
      <point x="511" y="960"/>
      <point x="470" y="960" type="curve" smooth="yes"/>
      <point x="337" y="960"/>
      <point x="298" y="922"/>
      <point x="255" y="820" type="curve" smooth="yes"/>
      <point x="158" y="592"/>
      <point x="57" y="278"/>
      <point x="33" y="0" type="curve" smooth="yes"/>
      <point x="9.99999" y="-258"/>
      <point x="-8" y="-608"/>
    </contour>
    <contour>
      <point x="287" y="-384" type="curve" smooth="yes"/>
      <point x="234" y="-384"/>
      <point x="234" y="-258"/>
      <point x="240" y="-192" type="curve" smooth="yes"/>
      <point x="260" y="39"/>
      <point x="306" y="246"/>
      <point x="358" y="447" type="curve"/>
      <point x="388" y="299"/>
      <point x="429" y="147"/>
      <point x="414" y="-32" type="curve" smooth="yes"/>
      <point x="401.075" y="-187"/>
      <point x="379" y="-384"/>
    </contour>
    <contour>
      <point x="562" y="1152" type="curve" smooth="yes"/>
      <point x="672" y="1152"/>
      <point x="746" y="1218"/>
      <point x="746" y="1331" type="curve" smooth="yes"/>
      <point x="746" y="1429"/>
      <point x="678" y="1471"/>
      <point x="586" y="1471" type="curve" smooth="yes"/>
      <point x="476" y="1471"/>
      <point x="390" y="1408"/>
      <point x="390" y="1304" type="curve" smooth="yes"/>
      <point x="390" y="1203"/>
      <point x="455" y="1152"/>
    </contour>
  </outline>
</glyph>
<glyph name="k" format="1">
  <advance width="1264.998"/>
  <unicode hex="006B"/>
  <outline>
    <contour>
      <point x="949" y="-20" type="curve" smooth="yes"/>
      <point x="1141" y="-20"/>
      <point x="1365" y="156"/>
      <point x="1454" y="293" type="curve" smooth="yes"/>
      <point x="1502" y="367"/>
      <point x="1409" y="499"/>
      <point x="1352" y="419" type="curve" smooth="yes"/>
      <point x="1255" y="285"/>
      <point x="1112" y="173"/>
      <point x="1015" y="158" type="curve" smooth="yes"/>
      <point x="926" y="145"/>
      <point x="887" y="167"/>
      <point x="896" y="225" type="curve" smooth="yes"/>
      <point x="927" y="415"/>
      <point x="1256" y="462"/>
      <point x="1278" y="723" type="curve" smooth="yes"/>
      <point x="1289" y="854"/>
      <point x="1222" y="939"/>
      <point x="1087" y="941" type="curve" smooth="yes"/>
      <point x="841" y="944"/>
      <point x="604" y="708"/>
      <point x="333" y="224" type="curve"/>
      <point x="333" y="276"/>
      <point x="362" y="520"/>
      <point x="378" y="604" type="curve"/>
      <point x="499" y="710"/>
      <point x="1089" y="1315"/>
      <point x="1089" y="1696" type="curve" smooth="yes"/>
      <point x="1089" y="1823"/>
      <point x="1018" y="1920"/>
      <point x="884" y="1920" type="curve" smooth="yes"/>
      <point x="299" y="1920"/>
      <point x="136" y="671"/>
      <point x="136" y="230" type="curve" smooth="yes"/>
      <point x="136" y="134"/>
      <point x="154" y="-11"/>
      <point x="241" y="-11" type="curve" smooth="yes"/>
      <point x="498" y="-11"/>
      <point x="711" y="690"/>
      <point x="1001" y="690" type="curve" smooth="yes"/>
      <point x="1035" y="690"/>
      <point x="1037" y="660"/>
      <point x="1035" y="644" type="curve" smooth="yes"/>
      <point x="1023" y="532"/>
      <point x="678" y="424"/>
      <point x="703" y="184" type="curve" smooth="yes"/>
      <point x="720" y="22"/>
      <point x="864" y="-20"/>
    </contour>
    <contour>
      <point x="406" y="803" type="curve"/>
      <point x="452" y="1100"/>
      <point x="621" y="1680"/>
      <point x="813" y="1680" type="curve" smooth="yes"/>
      <point x="850" y="1680"/>
      <point x="865" y="1662"/>
      <point x="865" y="1620" type="curve" smooth="yes"/>
      <point x="865" y="1383"/>
      <point x="609" y="1027"/>
    </contour>
  </outline>
</glyph>
<glyph name="l" format="1">
  <advance width="729"/>
  <unicode hex="006C"/>
  <outline>
    <contour>
      <point x="453" y="-9" type="curve" smooth="yes"/>
      <point x="618" y="-9"/>
      <point x="767" y="62"/>
      <point x="929" y="243" type="curve" smooth="yes"/>
      <point x="1028" y="352"/>
      <point x="885" y="450"/>
      <point x="826" y="383" type="curve" smooth="yes"/>
      <point x="725" y="269"/>
      <point x="607" y="177"/>
      <point x="502" y="177" type="curve" smooth="yes"/>
      <point x="350" y="177"/>
      <point x="349" y="392"/>
      <point x="372" y="560" type="curve"/>
      <point x="684" y="801"/>
      <point x="1038" y="1275"/>
      <point x="1076" y="1696" type="curve" smooth="yes"/>
      <point x="1088" y="1818"/>
      <point x="1012" y="1920"/>
      <point x="883" y="1920" type="curve" smooth="yes"/>
      <point x="463" y="1920"/>
      <point x="200" y="1032"/>
      <point x="151" y="526" type="curve"/>
      <point x="126" y="205"/>
      <point x="232" y="-9"/>
    </contour>
    <contour>
      <point x="394" y="772" type="curve"/>
      <point x="443" y="1069"/>
      <point x="626" y="1680"/>
      <point x="811" y="1680" type="curve" smooth="yes"/>
      <point x="847" y="1680"/>
      <point x="861" y="1662"/>
      <point x="860" y="1620" type="curve" smooth="yes"/>
      <point x="856" y="1383"/>
      <point x="593" y="996"/>
    </contour>
  </outline>
</glyph>
<glyph name="m" format="1">
  <advance width="1447"/>
  <unicode hex="006D"/>
  <outline>
    <contour>
      <point x="1100" y="61"/>
      <point x="1150" y="-9"/>
      <point x="1291" y="-7" type="curve" smooth="yes"/>
      <point x="1414" y="-5"/>
      <point x="1623" y="101"/>
      <point x="1755" y="281" type="curve" smooth="yes"/>
      <point x="1782" y="320"/>
      <point x="1675" y="420"/>
      <point x="1631" y="375" type="curve" smooth="yes"/>
      <point x="1528" y="276"/>
      <point x="1428" y="207"/>
      <point x="1374" y="192" type="curve"/>
      <point x="1373" y="192" type="line"/>
      <point x="1305" y="178"/>
      <point x="1280" y="211"/>
      <point x="1289" y="275" type="curve" smooth="yes"/>
      <point x="1302" y="386"/>
      <point x="1390" y="729"/>
      <point x="1388" y="874" type="curve" smooth="yes"/>
      <point x="1387" y="923"/>
      <point x="1350" y="966"/>
      <point x="1280" y="963" type="curve"/>
      <point x="1279" y="963" type="line" smooth="yes"/>
      <point x="1156" y="963"/>
      <point x="987" y="768"/>
      <point x="808" y="300" type="curve"/>
      <point x="843" y="497"/>
      <point x="907" y="801"/>
      <point x="907" y="872" type="curve" smooth="yes"/>
      <point x="907" y="930"/>
      <point x="850" y="960"/>
      <point x="801" y="960" type="curve" smooth="yes"/>
      <point x="697" y="960"/>
      <point x="503" y="762"/>
      <point x="315" y="295" type="curve"/>
      <point x="350" y="469"/>
      <point x="436" y="828"/>
      <point x="436" y="874" type="curve" smooth="yes"/>
      <point x="436" y="933"/>
      <point x="400" y="964"/>
      <point x="356" y="964" type="curve" smooth="yes"/>
      <point x="302" y="964"/>
      <point x="260" y="923"/>
      <point x="241" y="866" type="curve" smooth="yes"/>
      <point x="180" y="686"/>
      <point x="133" y="431.129"/>
      <point x="133" y="201" type="curve" smooth="yes"/>
      <point x="133" y="89.8122"/>
      <point x="152" y="-2"/>
      <point x="246" y="-2" type="curve" smooth="yes"/>
      <point x="281" y="-2"/>
      <point x="328" y="20"/>
      <point x="411" y="185" type="curve" smooth="yes"/>
      <point x="533" y="427"/>
      <point x="609" y="570"/>
      <point x="746" y="749" type="curve"/>
      <point x="695" y="510"/>
      <point x="663" y="378"/>
      <point x="641" y="179" type="curve" smooth="yes"/>
      <point x="632" y="93"/>
      <point x="636" y="10"/>
      <point x="732" y="-2" type="curve" smooth="yes"/>
      <point x="773" y="-7"/>
      <point x="815" y="15"/>
      <point x="851" y="96" type="curve" smooth="yes"/>
      <point x="956" y="331"/>
      <point x="1097" y="569"/>
      <point x="1229" y="763" type="curve"/>
      <point x="1208" y="677" type="line" smooth="yes"/>
      <point x="1187" y="576"/>
      <point x="1119" y="329"/>
      <point x="1111" y="211" type="curve" smooth="yes"/>
    </contour>
    <contour>
      <point x="750" y="0" type="move" name="bot"/>
    </contour>
    <contour>
      <point x="1057" y="953" type="move" name="top"/>
    </contour>
  </outline>
</glyph>
<glyph name="n" format="1">
  <advance width="987.002"/>
  <unicode hex="006E"/>
  <outline>
    <contour>
      <point x="806" y="-12" type="curve" smooth="yes"/>
      <point x="904" y="-12"/>
      <point x="1151" y="98"/>
      <point x="1290" y="276" type="curve" smooth="yes"/>
      <point x="1318" y="312"/>
      <point x="1210" y="422"/>
      <point x="1155" y="370" type="curve" smooth="yes"/>
      <point x="1043" y="265"/>
      <point x="944" y="198"/>
      <point x="897" y="187" type="curve" smooth="yes"/>
      <point x="843" y="174"/>
      <point x="824" y="203"/>
      <point x="837" y="270" type="curve" smooth="yes"/>
      <point x="858" y="381"/>
      <point x="967" y="723"/>
      <point x="976" y="869" type="curve" smooth="yes"/>
      <point x="978" y="912"/>
      <point x="941" y="960"/>
      <point x="863" y="960" type="curve" smooth="yes"/>
      <point x="739" y="960"/>
      <point x="559" y="770"/>
      <point x="326" y="398" type="curve"/>
      <point x="353" y="522"/>
      <point x="412" y="762"/>
      <point x="445" y="860" type="curve" smooth="yes"/>
      <point x="462" y="911"/>
      <point x="426" y="964"/>
      <point x="366" y="964" type="curve" smooth="yes"/>
      <point x="294" y="964"/>
      <point x="259" y="918"/>
      <point x="237" y="861" type="curve" smooth="yes"/>
      <point x="168" y="674"/>
      <point x="118" y="417"/>
      <point x="116" y="216" type="curve" smooth="yes"/>
      <point x="115" y="107"/>
      <point x="107" y="0"/>
      <point x="208" y="0" type="curve" smooth="yes"/>
      <point x="271" y="0"/>
      <point x="298" y="48"/>
      <point x="355" y="147" type="curve" smooth="yes"/>
      <point x="506" y="410"/>
      <point x="636" y="589"/>
      <point x="760" y="672" type="curve"/>
      <point x="731" y="566"/>
      <point x="648" y="320"/>
      <point x="632" y="206" type="curve" smooth="yes"/>
      <point x="612" y="57"/>
      <point x="658" y="-12"/>
    </contour>
    <contour>
      <point x="497" y="0" type="move" name="bot"/>
    </contour>
    <contour>
      <point x="723" y="953" type="move" name="top"/>
    </contour>
  </outline>
</glyph>
<glyph name="o" format="1">
  <advance width="943"/>
  <unicode hex="006F"/>
  <outline>
    <contour>
      <point x="9" y="0" type="move" name="ogonek"/>
    </contour>
    <contour>
      <point x="405" y="-16" type="curve" smooth="yes"/>
      <point x="699" y="-16"/>
      <point x="806" y="220"/>
      <point x="846" y="374" type="curve"/>
      <point x="1106" y="444"/>
      <point x="1246" y="592"/>
      <point x="1331" y="696" type="curve" smooth="yes"/>
      <point x="1372" y="746"/>
      <point x="1295" y="857"/>
      <point x="1252" y="809" type="curve" smooth="yes"/>
      <point x="1166" y="712"/>
      <point x="1037" y="591"/>
      <point x="873" y="563" type="curve"/>
      <point x="924" y="790"/>
      <point x="785" y="966"/>
      <point x="597" y="966" type="curve" smooth="yes"/>
      <point x="313" y="966"/>
      <point x="73" y="672"/>
      <point x="73" y="353" type="curve" smooth="yes"/>
      <point x="73" y="148"/>
      <point x="205" y="-16"/>
    </contour>
    <contour>
      <point x="448" y="172" type="curve" smooth="yes"/>
      <point x="336" y="172"/>
      <point x="299" y="258"/>
      <point x="299" y="365" type="curve" smooth="yes"/>
      <point x="299" y="537"/>
      <point x="412" y="766"/>
      <point x="569" y="766" type="curve" smooth="yes"/>
      <point x="632" y="766"/>
      <point x="634" y="694"/>
      <point x="634" y="694" type="curve"/>
      <point x="520" y="586"/>
      <point x="535" y="490"/>
      <point x="665" y="428" type="curve"/>
      <point x="654" y="321"/>
      <point x="558" y="172"/>
    </contour>
  </outline>
</glyph>
<glyph name="p" format="1">
  <advance width="1018"/>
  <unicode hex="0070"/>
  <outline>
    <contour>
      <point x="849" y="370" type="curve" smooth="yes"/>
      <point x="1009" y="380"/>
      <point x="1278" y="561"/>
      <point x="1373" y="687" type="curve"/>
      <point x="1390" y="702"/>
      <point x="1398" y="724"/>
      <point x="1398" y="747" type="curve" smooth="yes"/>
      <point x="1398" y="790"/>
      <point x="1372" y="835"/>
      <point x="1338" y="835" type="curve" smooth="yes"/>
      <point x="1329" y="835"/>
      <point x="1319" y="831"/>
      <point x="1309" y="824" type="curve"/>
      <point x="1210" y="726"/>
      <point x="1020" y="566"/>
      <point x="906" y="566" type="curve" smooth="yes"/>
      <point x="898" y="566"/>
      <point x="789" y="744"/>
      <point x="718" y="744" type="curve" smooth="yes"/>
      <point x="703" y="744"/>
      <point x="689" y="737"/>
      <point x="679" y="720" type="curve"/>
      <point x="642" y="642"/>
      <point x="625" y="578"/>
      <point x="625" y="528" type="curve" smooth="yes"/>
      <point x="625" y="416"/>
      <point x="710" y="361"/>
    </contour>
    <contour>
      <point x="44" y="-701" type="curve" smooth="yes"/>
      <point x="103" y="-701"/>
      <point x="193" y="-646"/>
      <point x="203" y="-599" type="curve"/>
      <point x="226" y="-515"/>
      <point x="273" y="-22"/>
      <point x="290" y="63" type="curve"/>
      <point x="347" y="11"/>
      <point x="408" y="-16"/>
      <point x="469" y="-16" type="curve" smooth="yes"/>
      <point x="763" y="-16"/>
      <point x="942" y="330"/>
      <point x="942" y="616" type="curve" smooth="yes"/>
      <point x="942" y="805"/>
      <point x="852" y="966"/>
      <point x="651" y="966" type="curve" smooth="yes"/>
      <point x="239" y="966"/>
      <point x="170" y="568"/>
      <point x="95.9999" y="254" type="curve" smooth="yes"/>
      <point x="81" y="192"/>
      <point x="-4" y="-438"/>
      <point x="-6" y="-576" type="curve" smooth="yes"/>
      <point x="-7" y="-643"/>
      <point x="5" y="-701"/>
    </contour>
    <contour>
      <point x="464" y="182" type="curve" smooth="yes"/>
      <point x="417" y="182"/>
      <point x="367" y="199"/>
      <point x="314" y="239" type="curve"/>
      <point x="348" y="386"/>
      <point x="369" y="774"/>
      <point x="604" y="774" type="curve" smooth="yes"/>
      <point x="685" y="774"/>
      <point x="739" y="673"/>
      <point x="739" y="558" type="curve" smooth="yes"/>
      <point x="739" y="382"/>
      <point x="624" y="182"/>
    </contour>
    <contour>
      <point x="492" y="0" type="move" name="bot"/>
    </contour>
  </outline>
</glyph>
<glyph name="q" format="1">
  <advance width="1089"/>
  <unicode hex="0071"/>
  <outline>
    <contour>
      <point x="768" y="692"/>
      <point x="687" y="351"/>
      <point x="614" y="148" type="curve"/>
      <point x="185" y="68"/>
      <point x="287.539" y="814"/>
      <point x="645" y="814" type="curve" smooth="yes"/>
      <point x="703.821" y="814"/>
      <point x="789" y="795"/>
      <point x="786" y="779" type="curve" smooth="yes"/>
    </contour>
    <contour>
      <point x="863.503" y="209.038" type="line" smooth="yes"/>
      <point x="905.811" y="358.684"/>
      <point x="981" y="638"/>
      <point x="1009" y="787" type="curve" smooth="yes"/>
      <point x="1025" y="867"/>
      <point x="831" y="979"/>
      <point x="630" y="979" type="curve"/>
      <point x="-48" y="954"/>
      <point x="-46" y="-136"/>
      <point x="580" y="-24" type="curve"/>
      <point x="525" y="-226"/>
      <point x="439" y="-492"/>
      <point x="369" y="-704" type="curve" smooth="yes"/>
      <point x="342" y="-784"/>
      <point x="555.856" y="-885"/>
      <point x="593.523" y="-750" type="curve" smooth="yes"/>
    </contour>
    <contour>
      <point x="527" y="546"/>
      <point x="514" y="1"/>
      <point x="841" y="205" type="curve"/>
      <point x="994" y="221"/>
      <point x="1276" y="510"/>
      <point x="1359" y="677" type="curve" smooth="yes"/>
      <point x="1395" y="751"/>
      <point x="1291" y="843"/>
      <point x="1235" y="763" type="curve" smooth="yes"/>
      <point x="1131" y="612"/>
      <point x="955" y="430"/>
      <point x="849" y="393" type="curve"/>
    </contour>
  </outline>
</glyph>
<glyph name="r" format="1">
  <advance width="843"/>
  <unicode hex="0072"/>
  <outline>
    <contour>
      <point x="218" y="0" type="curve" smooth="yes"/>
      <point x="296" y="0"/>
      <point x="323" y="28"/>
      <point x="344" y="77" type="curve"/>
      <point x="502" y="510"/>
      <point x="665" y="747"/>
      <point x="661" y="734" type="curve" smooth="yes"/>
      <point x="593" y="533"/>
      <point x="631" y="314"/>
      <point x="857" y="379" type="curve" smooth="yes"/>
      <point x="965" y="410"/>
      <point x="1086" y="469"/>
      <point x="1155" y="533" type="curve" smooth="yes"/>
      <point x="1198" y="573"/>
      <point x="1114" y="684"/>
      <point x="1072" y="654" type="curve" smooth="yes"/>
      <point x="950" y="567"/>
      <point x="772" y="515"/>
      <point x="810" y="624" type="curve" smooth="yes"/>
      <point x="880" y="825"/>
      <point x="901" y="963"/>
      <point x="735" y="963" type="curve" smooth="yes"/>
      <point x="604" y="963"/>
      <point x="363" y="558"/>
      <point x="302" y="368" type="curve"/>
      <point x="331" y="522"/>
      <point x="389" y="763"/>
      <point x="413" y="860" type="curve" smooth="yes"/>
      <point x="426" y="911"/>
      <point x="390" y="964"/>
      <point x="331" y="964" type="curve" smooth="yes"/>
      <point x="260" y="964"/>
      <point x="222" y="929"/>
      <point x="192" y="833" type="curve" smooth="yes"/>
      <point x="137" y="658"/>
      <point x="101" y="417"/>
      <point x="99" y="216" type="curve" smooth="yes"/>
      <point x="98" y="107"/>
      <point x="109" y="0"/>
    </contour>
    <contour>
      <point x="421.5" y="0" type="move" name="bot"/>
    </contour>
  </outline>
</glyph>
<glyph name="s" format="1">
  <advance width="856"/>
  <unicode hex="0073"/>
  <outline>
    <contour>
      <point x="516" y="-16" type="curve" smooth="yes"/>
      <point x="852" y="-16"/>
      <point x="1075" y="110"/>
      <point x="1181" y="279" type="curve" smooth="yes"/>
      <point x="1225" y="349"/>
      <point x="1120" y="485"/>
      <point x="1065" y="418" type="curve" smooth="yes"/>
      <point x="1028" y="374"/>
      <point x="917" y="227"/>
      <point x="777" y="183" type="curve"/>
      <point x="932" y="443"/>
      <point x="495" y="685"/>
      <point x="564" y="802" type="curve" smooth="yes"/>
      <point x="671" y="984"/>
      <point x="437" y="1061"/>
      <point x="352" y="898" type="curve" smooth="yes"/>
      <point x="298" y="788"/>
      <point x="73" y="349"/>
      <point x="8" y="236" type="curve"/>
      <point x="76" y="102"/>
      <point x="264" y="-16"/>
    </contour>
    <contour>
      <point x="442" y="151" type="curve" smooth="yes"/>
      <point x="381" y="153"/>
      <point x="318" y="193"/>
      <point x="266" y="231" type="curve"/>
      <point x="296" y="289"/>
      <point x="344" y="387"/>
      <point x="385" y="471" type="curve" smooth="yes"/>
      <point x="459" y="624" type="line"/>
      <point x="649" y="341"/>
      <point x="654" y="144"/>
    </contour>
  </outline>
</glyph>
<glyph name="t" format="1">
  <advance width="762.004"/>
  <unicode hex="0074"/>
  <outline>
    <contour>
      <point x="428" y="-9" type="curve" smooth="yes"/>
      <point x="593" y="-9"/>
      <point x="742" y="62"/>
      <point x="904" y="243" type="curve" smooth="yes"/>
      <point x="1003" y="352"/>
      <point x="860" y="450"/>
      <point x="801" y="383" type="curve" smooth="yes"/>
      <point x="700" y="269"/>
      <point x="582" y="177"/>
      <point x="477" y="177" type="curve" smooth="yes"/>
      <point x="324" y="177"/>
      <point x="351" y="476"/>
      <point x="378" y="672" type="curve"/>
      <point x="620" y="842"/>
      <point x="931" y="1258"/>
      <point x="959" y="1626" type="curve" smooth="yes"/>
      <point x="968" y="1732"/>
      <point x="924" y="1822"/>
      <point x="807" y="1824" type="curve" smooth="yes"/>
      <point x="431" y="1828"/>
      <point x="199" y="1073"/>
      <point x="152" y="635" type="curve" smooth="yes"/>
      <point x="118" y="311"/>
      <point x="178" y="-9"/>
    </contour>
    <contour>
      <point x="119" y="492" type="curve" smooth="yes"/>
      <point x="219" y="554"/>
      <point x="636" y="719"/>
      <point x="818" y="751" type="curve" smooth="yes"/>
      <point x="907" y="766"/>
      <point x="872" y="911"/>
      <point x="773" y="890" type="curve" smooth="yes"/>
      <point x="624" y="862"/>
      <point x="309" y="760"/>
      <point x="43" y="622" type="curve" smooth="yes"/>
      <point x="-27" y="588"/>
      <point x="27" y="435"/>
    </contour>
    <contour>
      <point x="398" y="827" type="curve"/>
      <point x="438" y="1086"/>
      <point x="562" y="1583"/>
      <point x="770" y="1582" type="curve"/>
      <point x="789" y="1581"/>
      <point x="797" y="1563"/>
      <point x="793" y="1540" type="curve"/>
      <point x="763" y="1276"/>
      <point x="577" y="1022"/>
    </contour>
    <contour>
      <point x="397.5" y="0" type="move" name="bot"/>
    </contour>
  </outline>
</glyph>
<glyph name="u" format="1">
  <advance width="1015"/>
  <unicode hex="0075"/>
  <outline>
    <contour>
      <point x="282" y="-13" type="curve" smooth="yes"/>
      <point x="479" y="-33"/>
      <point x="608" y="154"/>
      <point x="644" y="251" type="curve"/>
      <point x="635.966" y="161.242" type="line"/>
      <point x="636.656" y="41.2961"/>
      <point x="694.754" y="-16.087"/>
      <point x="819" y="-12" type="curve" smooth="yes"/>
      <point x="960" y="-7"/>
      <point x="1207" y="151"/>
      <point x="1279" y="283" type="curve"/>
      <point x="1285" y="326"/>
      <point x="1218" y="384"/>
      <point x="1170" y="384" type="curve" smooth="yes"/>
      <point x="1149" y="384"/>
      <point x="1145" y="375"/>
      <point x="1121" y="353" type="curve" smooth="yes"/>
      <point x="1089" y="323"/>
      <point x="965" y="192"/>
      <point x="878" y="186" type="curve" smooth="yes"/>
      <point x="851" y="184"/>
      <point x="829" y="205"/>
      <point x="838" y="286" type="curve" smooth="yes"/>
      <point x="866" y="531"/>
      <point x="946" y="791"/>
      <point x="969.999" y="869" type="curve" smooth="yes"/>
      <point x="983.999" y="915"/>
      <point x="929" y="964"/>
      <point x="876" y="964" type="curve" smooth="yes"/>
      <point x="809" y="964"/>
      <point x="774" y="953"/>
      <point x="736" y="816" type="curve" smooth="yes"/>
      <point x="654" y="523" type="line" smooth="yes"/>
      <point x="583" y="269"/>
      <point x="428" y="154"/>
      <point x="330" y="184" type="curve" smooth="yes"/>
      <point x="287" y="197"/>
      <point x="278" y="244"/>
      <point x="285" y="313" type="curve" smooth="yes"/>
      <point x="303" y="502"/>
      <point x="410" y="838"/>
      <point x="414" y="888" type="curve" smooth="yes"/>
      <point x="418" y="934"/>
      <point x="376" y="964"/>
      <point x="317" y="964" type="curve" smooth="yes"/>
      <point x="270" y="964"/>
      <point x="237" y="955"/>
      <point x="213" y="915" type="curve" smooth="yes"/>
      <point x="182" y="864"/>
      <point x="105" y="602"/>
      <point x="76" y="330" type="curve" smooth="yes"/>
      <point x="56" y="142"/>
      <point x="94.9999" y="6"/>
    </contour>
    <contour>
      <point x="507.5" y="0" type="move" name="bot"/>
    </contour>
    <contour>
      <point x="0" y="0" type="move" name="ogonek"/>
    </contour>
  </outline>
</glyph>
<glyph name="v" format="1">
  <advance width="924"/>
  <unicode hex="0076"/>
  <outline>
    <contour>
      <point x="430" y="-8" type="curve" smooth="yes"/>
      <point x="661" y="115"/>
      <point x="873" y="431"/>
      <point x="977" y="848" type="curve" smooth="yes"/>
      <point x="1027" y="1051"/>
      <point x="647" y="1023"/>
      <point x="673" y="529" type="curve"/>
      <point x="559" y="278"/>
      <point x="422" y="191"/>
      <point x="422" y="191" type="curve"/>
      <point x="415" y="191"/>
      <point x="304" y="405"/>
      <point x="400" y="857" type="curve" smooth="yes"/>
      <point x="421" y="958"/>
      <point x="230" y="1021"/>
      <point x="189" y="885" type="curve" smooth="yes"/>
      <point x="4" y="277"/>
      <point x="240" y="-109"/>
    </contour>
    <contour>
      <point x="1391" y="733" type="curve" smooth="yes"/>
      <point x="1433" y="810"/>
      <point x="1326" y="921"/>
      <point x="1268" y="843" type="curve" smooth="yes"/>
      <point x="1147" y="680"/>
      <point x="940" y="578"/>
      <point x="736" y="605" type="curve"/>
      <point x="714" y="449" type="line"/>
      <point x="923" y="369"/>
      <point x="1290" y="549"/>
    </contour>
  </outline>
</glyph>
<glyph name="w" format="1">
  <advance width="1367"/>
  <unicode hex="0077"/>
  <outline>
    <contour>
      <point x="295" y="3" type="curve" smooth="yes"/>
      <point x="319" y="3"/>
      <point x="368" y="25"/>
      <point x="397" y="78" type="curve" smooth="yes"/>
      <point x="475" y="222"/>
      <point x="529" y="346"/>
      <point x="643" y="603" type="curve"/>
      <point x="654" y="340" type="line" smooth="yes"/>
      <point x="665" y="85"/>
      <point x="699" y="3"/>
      <point x="810" y="3" type="curve" smooth="yes"/>
      <point x="906" y="3"/>
      <point x="1006" y="219"/>
      <point x="1054" y="347" type="curve"/>
      <point x="1053" y="44"/>
      <point x="1445" y="-8"/>
      <point x="1742" y="244" type="curve" smooth="yes"/>
      <point x="1790" y="285"/>
      <point x="1715" y="402"/>
      <point x="1649" y="355" type="curve" smooth="yes"/>
      <point x="1398" y="177"/>
      <point x="1095" y="273"/>
      <point x="1185" y="544" type="curve" smooth="yes"/>
      <point x="1252" y="748"/>
      <point x="1311" y="851"/>
      <point x="1311" y="884" type="curve" smooth="yes"/>
      <point x="1311" y="932"/>
      <point x="1262" y="960"/>
      <point x="1224" y="960" type="curve" smooth="yes"/>
      <point x="1160" y="960"/>
      <point x="1097" y="931"/>
      <point x="1081" y="891" type="curve" smooth="yes"/>
      <point x="833" y="294" type="line"/>
      <point x="839" y="512"/>
      <point x="852" y="858"/>
      <point x="853" y="880" type="curve" smooth="yes"/>
      <point x="855" y="936"/>
      <point x="815" y="959"/>
      <point x="768" y="959" type="curve" smooth="yes"/>
      <point x="651" y="959"/>
      <point x="631" y="896"/>
      <point x="593" y="812" type="curve" smooth="yes"/>
      <point x="356" y="323" type="line"/>
      <point x="422" y="898" type="line"/>
      <point x="422" y="942"/>
      <point x="381" y="959"/>
      <point x="334" y="959" type="curve"/>
      <point x="276" y="964"/>
      <point x="215" y="935"/>
      <point x="206" y="897" type="curve" smooth="yes"/>
      <point x="181" y="790"/>
      <point x="161" y="555"/>
      <point x="161" y="383" type="curve" smooth="yes"/>
      <point x="161" y="137"/>
      <point x="178" y="3"/>
    </contour>
    <contour>
      <point x="683.5" y="0" type="move" name="bot"/>
    </contour>
  </outline>
</glyph>
<glyph name="x" format="1">
  <advance width="326"/>
  <unicode hex="0078"/>
  <outline>
    <contour>
      <point x="379" y="271" type="curve" smooth="yes"/>
      <point x="396" y="336"/>
      <point x="308" y="358"/>
      <point x="263" y="302" type="curve" smooth="yes"/>
      <point x="145" y="151" type="line" smooth="yes"/>
      <point x="108" y="105"/>
      <point x="77" y="72"/>
      <point x="53" y="55" type="curve" smooth="yes"/>
      <point x="10" y="26"/>
      <point x="69" y="-47"/>
      <point x="103" y="3" type="curve" smooth="yes"/>
      <point x="126" y="39"/>
      <point x="149" y="72"/>
      <point x="178" y="110" type="curve" smooth="yes"/>
      <point x="285" y="251" type="line" smooth="yes"/>
      <point x="319" y="295"/>
      <point x="369" y="233"/>
    </contour>
    <contour>
      <point x="253" y="-5" type="curve" smooth="yes"/>
      <point x="350" y="-33"/>
      <point x="388" y="67"/>
      <point x="409" y="103" type="curve" smooth="yes"/>
      <point x="429" y="136"/>
      <point x="398" y="173"/>
      <point x="372" y="137" type="curve" smooth="yes"/>
      <point x="354" y="113"/>
      <point x="324" y="53"/>
      <point x="282" y="53" type="curve" smooth="yes"/>
      <point x="234" y="53"/>
      <point x="200" y="125"/>
      <point x="85" y="321" type="curve" smooth="yes"/>
      <point x="75" y="339"/>
      <point x="20" y="315"/>
      <point x="38" y="282" type="curve" smooth="yes"/>
      <point x="141" y="104"/>
      <point x="175" y="18"/>
    </contour>
  </outline>
</glyph>
<glyph name="y" format="1">
  <advance width="1013"/>
  <unicode hex="0079"/>
  <outline>
    <contour>
      <point x="178" y="-928" type="curve" smooth="yes"/>
      <point x="617" y="-928"/>
      <point x="734" y="-460"/>
      <point x="801" y="-108" type="curve"/>
      <point x="994" y="21"/>
      <point x="1224" y="148"/>
      <point x="1373" y="235" type="curve" smooth="yes"/>
      <point x="1501" y="310"/>
      <point x="1402" y="458"/>
      <point x="1317" y="413" type="curve" smooth="yes"/>
      <point x="1221" y="362"/>
      <point x="961" y="197"/>
      <point x="833" y="101" type="curve"/>
      <point x="851" y="214"/>
      <point x="873" y="313"/>
      <point x="891" y="412" type="curve" smooth="yes"/>
      <point x="916" y="553"/>
      <point x="976.999" y="718"/>
      <point x="976.999" y="853" type="curve" smooth="yes"/>
      <point x="976.999" y="893"/>
      <point x="932" y="909"/>
      <point x="889" y="909" type="curve" smooth="yes"/>
      <point x="813" y="909"/>
      <point x="776" y="857"/>
      <point x="754" y="779" type="curve" smooth="yes"/>
      <point x="669" y="474" type="line" smooth="yes"/>
      <point x="633" y="345"/>
      <point x="555" y="190"/>
      <point x="438" y="179" type="curve" smooth="yes"/>
      <point x="342" y="170"/>
      <point x="326" y="260"/>
      <point x="326" y="324" type="curve" smooth="yes"/>
      <point x="326" y="454"/>
      <point x="363" y="584"/>
      <point x="398" y="692" type="curve" smooth="yes"/>
      <point x="419" y="751"/>
      <point x="456" y="793"/>
      <point x="456" y="852" type="curve" smooth="yes"/>
      <point x="456" y="900"/>
      <point x="408" y="924"/>
      <point x="375" y="924" type="curve" smooth="yes"/>
      <point x="320" y="924"/>
      <point x="257" y="881"/>
      <point x="230" y="832" type="curve" smooth="yes"/>
      <point x="148" y="677"/>
      <point x="91" y="513"/>
      <point x="91" y="281" type="curve" smooth="yes"/>
      <point x="91" y="123"/>
      <point x="196" y="-2"/>
      <point x="346" y="-2" type="curve" smooth="yes"/>
      <point x="445" y="-2"/>
      <point x="595" y="93"/>
      <point x="667" y="225" type="curve"/>
      <point x="578" y="-28" type="line"/>
      <point x="424" y="-144"/>
      <point x="256" y="-237"/>
      <point x="132" y="-378" type="curve" smooth="yes"/>
      <point x="54" y="-466"/>
      <point x="-64" y="-588"/>
      <point x="-64" y="-729" type="curve" smooth="yes"/>
      <point x="-64" y="-870"/>
      <point x="31" y="-928"/>
    </contour>
    <contour>
      <point x="191" y="-756" type="curve" smooth="yes"/>
      <point x="162" y="-752"/>
      <point x="148" y="-724"/>
      <point x="148" y="-699" type="curve" smooth="yes"/>
      <point x="148" y="-599"/>
      <point x="375.765" y="-339.529"/>
      <point x="544" y="-236" type="curve"/>
      <point x="510" y="-397"/>
      <point x="393" y="-786"/>
    </contour>
    <contour>
      <point x="506.5" y="0" type="move" name="bot"/>
    </contour>
  </outline>
</glyph>
<glyph name="z" format="1">
  <advance width="689"/>
  <unicode hex="007A"/>
  <outline>
    <contour>
      <point x="868" y="191" type="curve" smooth="yes"/>
      <point x="932" y="238"/>
      <point x="888" y="388"/>
      <point x="846" y="363" type="curve" smooth="yes"/>
      <point x="474" y="141"/>
      <point x="288" y="156"/>
      <point x="288" y="245" type="curve"/>
      <point x="377" y="349"/>
      <point x="619" y="569"/>
      <point x="699" y="672" type="curve" smooth="yes"/>
      <point x="738" y="722"/>
      <point x="745" y="785"/>
      <point x="745" y="826" type="curve" smooth="yes"/>
      <point x="745" y="888"/>
      <point x="724" y="919"/>
      <point x="663" y="919" type="curve" smooth="yes"/>
      <point x="614" y="919"/>
      <point x="346" y="924"/>
      <point x="175" y="924" type="curve" smooth="yes"/>
      <point x="28" y="924"/>
      <point x="104" y="745"/>
      <point x="174" y="745" type="curve" smooth="yes"/>
      <point x="251" y="745"/>
      <point x="375" y="768"/>
      <point x="524" y="778" type="curve"/>
      <point x="165" y="421" type="line" smooth="yes"/>
      <point x="129" y="386"/>
      <point x="73" y="332"/>
      <point x="59" y="267" type="curve" smooth="yes"/>
      <point x="-1" y="-16"/>
      <point x="391" y="-157"/>
    </contour>
    <contour>
      <point x="344.5" y="0" type="move" name="bot"/>
    </contour>
  </outline>
</glyph>
<glyph name="braceleft" format="1">
  <advance width="394"/>
  <unicode hex="007B"/>
  <outline>
    <contour>
      <point x="338" y="-90" type="curve" smooth="yes"/>
      <point x="363" y="-87"/>
      <point x="361" y="-33"/>
      <point x="330" y="-35" type="curve" smooth="yes"/>
      <point x="229" y="-41"/>
      <point x="229" y="-19"/>
      <point x="229" y="41" type="curve" smooth="yes"/>
      <point x="229" y="91"/>
      <point x="244" y="147"/>
      <point x="244" y="200" type="curve" smooth="yes"/>
      <point x="244" y="259"/>
      <point x="193" y="288"/>
      <point x="139" y="294" type="curve"/>
      <point x="137" y="275" type="line"/>
      <point x="201" y="275"/>
      <point x="259" y="300"/>
      <point x="263" y="372" type="curve" smooth="yes"/>
      <point x="272" y="541"/>
      <point x="281" y="584"/>
      <point x="329" y="591" type="curve"/>
      <point x="362" y="595"/>
      <point x="395" y="583"/>
      <point x="414" y="576" type="curve" smooth="yes"/>
      <point x="446" y="565"/>
      <point x="455" y="611"/>
      <point x="436" y="623" type="curve" smooth="yes"/>
      <point x="410" y="638"/>
      <point x="364" y="653"/>
      <point x="317" y="649" type="curve" smooth="yes"/>
      <point x="224" y="642"/>
      <point x="201" y="565"/>
      <point x="191" y="393" type="curve" smooth="yes"/>
      <point x="188" y="341"/>
      <point x="171" y="318"/>
      <point x="105" y="323" type="curve" smooth="yes"/>
      <point x="83" y="325"/>
      <point x="69" y="315"/>
      <point x="66" y="291" type="curve" smooth="yes"/>
      <point x="64" y="270"/>
      <point x="74" y="253"/>
      <point x="91" y="251" type="curve"/>
      <point x="162" y="245"/>
      <point x="170" y="229"/>
      <point x="170" y="192" type="curve" smooth="yes"/>
      <point x="170" y="135"/>
      <point x="155" y="84"/>
      <point x="155" y="34" type="curve" smooth="yes"/>
      <point x="155" y="-60"/>
      <point x="201" y="-105"/>
    </contour>
  </outline>
</glyph>
<glyph name="asciitilde" format="1">
  <advance width="295"/>
  <unicode hex="007E"/>
  <outline>
    <contour>
      <point x="249" y="442" type="curve" smooth="yes"/>
      <point x="290" y="442"/>
      <point x="333" y="493"/>
      <point x="333" y="532" type="curve" smooth="yes"/>
      <point x="333" y="548"/>
      <point x="320" y="557"/>
      <point x="305" y="557" type="curve" smooth="yes"/>
      <point x="271" y="557"/>
      <point x="259" y="520"/>
      <point x="243" y="501" type="curve"/>
      <point x="208" y="536" type="line" smooth="yes"/>
      <point x="188" y="556"/>
      <point x="170" y="585"/>
      <point x="134" y="585" type="curve" smooth="yes"/>
      <point x="93" y="585"/>
      <point x="50" y="535"/>
      <point x="50" y="496" type="curve" smooth="yes"/>
      <point x="50" y="480"/>
      <point x="63" y="471"/>
      <point x="78" y="471" type="curve" smooth="yes"/>
      <point x="110" y="471"/>
      <point x="125" y="508"/>
      <point x="140" y="527" type="curve"/>
      <point x="175" y="492" type="line" smooth="yes"/>
      <point x="195" y="472"/>
      <point x="212" y="442"/>
    </contour>
  </outline>
</glyph>
<glyph name="currency" format="1">
  <advance width="1472"/>
  <unicode hex="00A4"/>
  <outline>
    <contour>
      <point x="1117" y="347" type="curve" smooth="yes"/>
      <point x="1165" y="347"/>
      <point x="1217" y="402"/>
      <point x="1217" y="451" type="curve"/>
      <point x="1216" y="476"/>
      <point x="1197" y="506"/>
      <point x="1159" y="541" type="curve" smooth="yes"/>
      <point x="1060" y="630" type="line"/>
      <point x="1163" y="745"/>
      <point x="1241" y="911"/>
      <point x="1241" y="1124" type="curve" smooth="yes"/>
      <point x="1241" y="1194"/>
      <point x="1229" y="1258"/>
      <point x="1204" y="1315" type="curve"/>
      <point x="1319" y="1394" type="line" smooth="yes"/>
      <point x="1357" y="1420"/>
      <point x="1397" y="1447"/>
      <point x="1397" y="1495" type="curve" smooth="yes"/>
      <point x="1397" y="1541"/>
      <point x="1360" y="1588"/>
      <point x="1314" y="1588" type="curve" smooth="yes"/>
      <point x="1232" y="1588"/>
      <point x="1147" y="1502"/>
      <point x="1089" y="1462" type="curve"/>
      <point x="1025" y="1510"/>
      <point x="939" y="1540"/>
      <point x="830" y="1540" type="curve" smooth="yes"/>
      <point x="718" y="1540"/>
      <point x="627" y="1514"/>
      <point x="553" y="1473" type="curve"/>
      <point x="433" y="1579" type="line" smooth="yes"/>
      <point x="400" y="1608"/>
      <point x="370" y="1623"/>
      <point x="344" y="1623" type="curve" smooth="yes"/>
      <point x="296" y="1623"/>
      <point x="243" y="1569"/>
      <point x="243" y="1521" type="curve" smooth="yes"/>
      <point x="243" y="1480"/>
      <point x="274" y="1455"/>
      <point x="302" y="1429" type="curve" smooth="yes"/>
      <point x="397" y="1343" type="line"/>
      <point x="309" y="1236"/>
      <point x="247" y="1083"/>
      <point x="248" y="901" type="curve"/>
      <point x="248" y="820"/>
      <point x="263" y="746"/>
      <point x="294" y="681" type="curve"/>
      <point x="142" y="576" type="line" smooth="yes"/>
      <point x="104" y="549"/>
      <point x="64" y="522"/>
      <point x="64" y="474" type="curve" smooth="yes"/>
      <point x="64" y="429"/>
      <point x="101" y="381"/>
      <point x="146" y="381" type="curve" smooth="yes"/>
      <point x="159" y="381"/>
      <point x="176" y="386"/>
      <point x="196" y="395" type="curve" smooth="yes"/>
      <point x="271" y="430"/>
      <point x="344" y="487"/>
      <point x="410" y="535" type="curve"/>
      <point x="474" y="485"/>
      <point x="557" y="452"/>
      <point x="666" y="452" type="curve" smooth="yes"/>
      <point x="759" y="452"/>
      <point x="834" y="473"/>
      <point x="898" y="505" type="curve"/>
      <point x="948" y="460"/>
      <point x="1031" y="347"/>
    </contour>
    <contour>
      <point x="696" y="645" type="curve" smooth="yes"/>
      <point x="547" y="645"/>
      <point x="472" y="750"/>
      <point x="472" y="901" type="curve" smooth="yes"/>
      <point x="472" y="1145"/>
      <point x="583" y="1348"/>
      <point x="824" y="1348" type="curve" smooth="yes"/>
      <point x="949" y="1348"/>
      <point x="1016" y="1250"/>
      <point x="1016" y="1125" type="curve" smooth="yes"/>
      <point x="1016" y="900"/>
      <point x="920" y="645"/>
    </contour>
  </outline>
</glyph>
<glyph name="yen" format="1">
  <advance width="528"/>
  <unicode hex="00A5"/>
  <outline>
    <contour>
      <point x="286" y="17" type="curve" smooth="yes"/>
      <point x="323" y="132" type="line"/>
      <point x="407" y="132" type="line" smooth="yes"/>
      <point x="438" y="132"/>
      <point x="470" y="136"/>
      <point x="470" y="165" type="curve" smooth="yes"/>
      <point x="470" y="183"/>
      <point x="442" y="187"/>
      <point x="423" y="187" type="curve" smooth="yes"/>
      <point x="344" y="187" type="line"/>
      <point x="356" y="219" type="line"/>
      <point x="416" y="219" type="line" smooth="yes"/>
      <point x="447" y="219"/>
      <point x="481" y="223"/>
      <point x="481" y="252" type="curve" smooth="yes"/>
      <point x="481" y="271"/>
      <point x="452" y="274"/>
      <point x="433" y="274" type="curve" smooth="yes"/>
      <point x="393" y="274" type="line"/>
      <point x="437" y="335"/>
      <point x="514" y="449"/>
      <point x="558" y="506" type="curve" smooth="yes"/>
      <point x="596" y="557"/>
      <point x="523" y="599"/>
      <point x="490" y="548" type="curve" smooth="yes"/>
      <point x="436" y="466"/>
      <point x="381" y="366"/>
      <point x="324" y="283" type="curve"/>
      <point x="317" y="321"/>
      <point x="267" y="517"/>
      <point x="257" y="551" type="curve" smooth="yes"/>
      <point x="239" y="612"/>
      <point x="160" y="583"/>
      <point x="177" y="526" type="curve" smooth="yes"/>
      <point x="254" y="274" type="line"/>
      <point x="203" y="274" type="line" smooth="yes"/>
      <point x="180" y="274"/>
      <point x="153" y="271"/>
      <point x="153" y="250" type="curve" smooth="yes"/>
      <point x="153" y="226"/>
      <point x="177" y="219"/>
      <point x="203" y="219" type="curve" smooth="yes"/>
      <point x="256" y="219" type="line"/>
      <point x="248" y="187" type="line"/>
      <point x="188" y="187" type="line" smooth="yes"/>
      <point x="164" y="187"/>
      <point x="140" y="183"/>
      <point x="140" y="162" type="curve" smooth="yes"/>
      <point x="140" y="138"/>
      <point x="162" y="132"/>
      <point x="188" y="132" type="curve" smooth="yes"/>
      <point x="233" y="132" type="line"/>
      <point x="229" y="114"/>
      <point x="209" y="50"/>
      <point x="205" y="40" type="curve" smooth="yes"/>
      <point x="175" y="-34"/>
      <point x="271" y="-28"/>
    </contour>
  </outline>
</glyph>
<glyph name="dieresis" format="1">
  <advance width="350"/>
  <unicode hex="00A8"/>
  <outline>
    <contour>
      <point x="43" y="403" type="curve" smooth="yes"/>
      <point x="62" y="403"/>
      <point x="90" y="417"/>
      <point x="90" y="449" type="curve" smooth="yes"/>
      <point x="90" y="471"/>
      <point x="82" y="486"/>
      <point x="49" y="486" type="curve" smooth="yes"/>
      <point x="31" y="486"/>
      <point x="4" y="472"/>
      <point x="4" y="440" type="curve" smooth="yes"/>
      <point x="4" y="417"/>
      <point x="12" y="403"/>
    </contour>
    <contour>
      <point x="213" y="403" type="curve" smooth="yes"/>
      <point x="232" y="403"/>
      <point x="260" y="417"/>
      <point x="260" y="449" type="curve" smooth="yes"/>
      <point x="260" y="471"/>
      <point x="251" y="486"/>
      <point x="219" y="486" type="curve" smooth="yes"/>
      <point x="201" y="486"/>
      <point x="174" y="472"/>
      <point x="174" y="440" type="curve" smooth="yes"/>
      <point x="174" y="417"/>
      <point x="182" y="403"/>
    </contour>
  </outline>
</glyph>
<glyph name="macron" format="1">
  <advance width="205"/>
  <unicode hex="00AF"/>
  <outline>
    <contour>
      <point x="-7" y="598" type="curve" smooth="yes"/>
      <point x="38" y="608"/>
      <point x="69" y="619"/>
      <point x="200" y="610" type="curve" smooth="yes"/>
      <point x="223" y="609"/>
      <point x="231" y="615"/>
      <point x="234" y="629" type="curve" smooth="yes"/>
      <point x="238" y="650"/>
      <point x="224" y="658"/>
      <point x="208" y="662" type="curve"/>
      <point x="94" y="678"/>
      <point x="32" y="677"/>
      <point x="-1" y="667" type="curve" smooth="yes"/>
      <point x="-35" y="657"/>
      <point x="-40" y="640"/>
      <point x="-39" y="625" type="curve" smooth="yes"/>
      <point x="-39" y="608"/>
      <point x="-26" y="593"/>
    </contour>
  </outline>
</glyph>
<glyph name="plusminus" format="1">
  <advance width="1503"/>
  <unicode hex="00B1"/>
  <outline>
    <contour>
      <point x="768" y="256" type="curve" smooth="yes"/>
      <point x="834" y="256"/>
      <point x="865" y="320"/>
      <point x="865" y="389" type="curve" smooth="yes"/>
      <point x="865" y="612" type="line"/>
      <point x="1096" y="612" type="line" smooth="yes"/>
      <point x="1162" y="612"/>
      <point x="1215" y="656"/>
      <point x="1215" y="721" type="curve" smooth="yes"/>
      <point x="1215" y="773"/>
      <point x="1174" y="804"/>
      <point x="1115" y="804" type="curve" smooth="yes"/>
      <point x="865" y="804" type="line"/>
      <point x="865" y="1051" type="line" smooth="yes"/>
      <point x="865" y="1110"/>
      <point x="834" y="1151"/>
      <point x="782" y="1151" type="curve" smooth="yes"/>
      <point x="717" y="1151"/>
      <point x="673" y="1098"/>
      <point x="673" y="1032" type="curve" smooth="yes"/>
      <point x="673" y="804" type="line"/>
      <point x="453" y="804" type="line" smooth="yes"/>
      <point x="384" y="804"/>
      <point x="320" y="773"/>
      <point x="320" y="707" type="curve" smooth="yes"/>
      <point x="320" y="642"/>
      <point x="381" y="612"/>
      <point x="449" y="612" type="curve" smooth="yes"/>
      <point x="673" y="612" type="line"/>
      <point x="673" y="385" type="line" smooth="yes"/>
      <point x="673" y="317"/>
      <point x="703" y="256"/>
    </contour>
    <contour>
      <point x="752" y="-22" type="curve" smooth="yes"/>
      <point x="755" y="-22"/>
      <point x="758" y="-21"/>
      <point x="762" y="-21" type="curve" smooth="yes"/>
      <point x="1197" y="21" type="line" smooth="yes"/>
      <point x="1264" y="26"/>
      <point x="1303" y="73"/>
      <point x="1303" y="117" type="curve" smooth="yes"/>
      <point x="1303" y="156"/>
      <point x="1271" y="193"/>
      <point x="1199" y="193" type="curve" smooth="yes"/>
      <point x="1190" y="193" type="line" smooth="yes"/>
      <point x="762" y="171" type="line" smooth="yes"/>
      <point x="695" y="168"/>
      <point x="665" y="121"/>
      <point x="665" y="74" type="curve" smooth="yes"/>
      <point x="665" y="26"/>
      <point x="696" y="-22"/>
    </contour>
  </outline>
</glyph>
<glyph name="acute" format="1">
  <advance width="609"/>
  <unicode hex="00B4"/>
  <outline>
    <contour>
      <point x="378" y="2276" type="curve" smooth="yes"/>
      <point x="728" y="2608" type="line" smooth="yes"/>
      <point x="861" y="2734"/>
      <point x="633" y="2904"/>
      <point x="547" y="2758" type="curve" smooth="yes"/>
      <point x="294" y="2348" type="line" smooth="yes"/>
      <point x="240" y="2263"/>
      <point x="316" y="2217"/>
    </contour>
  </outline>
</glyph>
<glyph name="paragraph" format="1">
  <advance width="447"/>
  <unicode hex="00B6"/>
  <outline>
    <contour>
      <point x="229" y="-25" type="curve" smooth="yes"/>
      <point x="328" y="502" type="line"/>
      <point x="342" y="502"/>
      <point x="380" y="500"/>
      <point x="390" y="498" type="curve"/>
      <point x="299" y="-11" type="line" smooth="yes"/>
      <point x="289" y="-66"/>
      <point x="375" y="-69"/>
      <point x="383" y="-25" type="curve" smooth="yes"/>
      <point x="464" y="417" type="line" smooth="yes"/>
      <point x="471" y="453"/>
      <point x="482" y="487"/>
      <point x="482" y="519" type="curve" smooth="yes"/>
      <point x="482" y="596"/>
      <point x="376" y="596"/>
      <point x="294" y="596" type="curve" smooth="yes"/>
      <point x="208" y="596"/>
      <point x="57" y="552"/>
      <point x="57" y="442" type="curve" smooth="yes"/>
      <point x="57" y="355"/>
      <point x="140" y="316"/>
      <point x="207" y="316" type="curve"/>
      <point x="147" y="-16" type="line" smooth="yes"/>
      <point x="139" y="-62"/>
      <point x="220" y="-80"/>
    </contour>
  </outline>
</glyph>
<glyph name="periodcentered" format="1">
  <advance width="704"/>
  <unicode hex="00B7"/>
  <outline>
    <contour>
      <point x="614" y="0" type="curve" smooth="yes"/>
      <point x="733" y="0"/>
      <point x="802" y="76"/>
      <point x="802" y="191" type="curve" smooth="yes"/>
      <point x="802" y="297"/>
      <point x="741" y="353"/>
      <point x="633" y="353" type="curve" smooth="yes"/>
      <point x="516" y="353"/>
      <point x="450" y="277"/>
      <point x="450" y="162" type="curve" smooth="yes"/>
      <point x="450" y="55"/>
      <point x="508" y="0"/>
    </contour>
    <contour>
      <point x="0" y="181" type="move" name="_mid"/>
    </contour>
  </outline>
</glyph>
<glyph name="cedilla" format="1">
  <advance width="404"/>
  <unicode hex="00B8"/>
  <outline>
    <contour>
      <point x="183" y="-124" type="curve" smooth="yes"/>
      <point x="228" y="6" type="line" smooth="yes"/>
      <point x="232" y="20"/>
      <point x="219" y="31"/>
      <point x="206" y="14" type="curve" smooth="yes"/>
      <point x="120" y="-104" type="line" smooth="yes"/>
      <point x="88" y="-149"/>
      <point x="163" y="-182"/>
    </contour>
    <contour>
      <point x="231" y="77" type="move" name="_bot"/>
    </contour>
  </outline>
</glyph>
<glyph name="guillemotright" format="1">
  <advance width="492"/>
  <unicode hex="00BB"/>
  <outline>
    <contour>
      <point x="114" y="25" type="curve" smooth="yes"/>
      <point x="121" y="25"/>
      <point x="129" y="26"/>
      <point x="136" y="30" type="curve" smooth="yes"/>
      <point x="177" y="53"/>
      <point x="209" y="79"/>
      <point x="239" y="109" type="curve" smooth="yes"/>
      <point x="258" y="128"/>
      <point x="289" y="147"/>
      <point x="289" y="182" type="curve" smooth="yes"/>
      <point x="289" y="224"/>
      <point x="251" y="250"/>
      <point x="224" y="266" type="curve" smooth="yes"/>
      <point x="207" y="276"/>
      <point x="189" y="291"/>
      <point x="173" y="302" type="curve" smooth="yes"/>
      <point x="154" y="316"/>
      <point x="132" y="341"/>
      <point x="104" y="341" type="curve" smooth="yes"/>
      <point x="83" y="341"/>
      <point x="65" y="327"/>
      <point x="65" y="306" type="curve" smooth="yes"/>
      <point x="65" y="286"/>
      <point x="84" y="275"/>
      <point x="100" y="264" type="curve" smooth="yes"/>
      <point x="211" y="186" type="line"/>
      <point x="119" y="107" type="line" smooth="yes"/>
      <point x="104" y="94"/>
      <point x="76" y="83"/>
      <point x="76" y="54" type="curve" smooth="yes"/>
      <point x="76" y="37"/>
      <point x="96" y="25"/>
    </contour>
    <contour>
      <point x="312" y="25" type="curve" smooth="yes"/>
      <point x="318" y="25"/>
      <point x="326" y="26"/>
      <point x="333" y="30" type="curve" smooth="yes"/>
      <point x="374" y="53"/>
      <point x="406" y="79"/>
      <point x="436" y="109" type="curve" smooth="yes"/>
      <point x="455" y="128"/>
      <point x="486" y="147"/>
      <point x="486" y="182" type="curve" smooth="yes"/>
      <point x="486" y="224"/>
      <point x="448" y="250"/>
      <point x="421" y="266" type="curve" smooth="yes"/>
      <point x="404" y="276"/>
      <point x="386" y="291"/>
      <point x="370" y="302" type="curve" smooth="yes"/>
      <point x="351" y="316"/>
      <point x="329" y="341"/>
      <point x="301" y="341" type="curve" smooth="yes"/>
      <point x="280" y="341"/>
      <point x="263" y="327"/>
      <point x="263" y="306" type="curve" smooth="yes"/>
      <point x="263" y="286"/>
      <point x="281" y="275"/>
      <point x="296" y="264" type="curve" smooth="yes"/>
      <point x="408" y="186" type="line"/>
      <point x="316" y="107" type="line" smooth="yes"/>
      <point x="300" y="94"/>
      <point x="273" y="83"/>
      <point x="273" y="54" type="curve" smooth="yes"/>
      <point x="273" y="37"/>
      <point x="293" y="25"/>
    </contour>
  </outline>
</glyph>
<glyph name="onehalf" format="1">
  <advance width="998"/>
  <unicode hex="00BD"/>
  <outline>
    <contour>
      <point x="723" y="0" type="curve" smooth="yes"/>
      <point x="764" y="0"/>
      <point x="797" y="22"/>
      <point x="824" y="45" type="curve"/>
      <point x="847" y="26"/>
      <point x="876" y="0"/>
      <point x="915" y="0" type="curve" smooth="yes"/>
      <point x="959" y="0"/>
      <point x="974" y="41"/>
      <point x="974" y="76" type="curve" smooth="yes"/>
      <point x="974" y="88"/>
      <point x="971" y="97"/>
      <point x="962" y="97" type="curve" smooth="yes"/>
      <point x="950" y="97"/>
      <point x="944" y="78"/>
      <point x="928" y="78" type="curve" smooth="yes"/>
      <point x="904" y="78"/>
      <point x="887" y="84"/>
      <point x="870" y="94" type="curve"/>
      <point x="924" y="153"/>
      <point x="967" y="236"/>
      <point x="968" y="319" type="curve" smooth="yes"/>
      <point x="969" y="459"/>
      <point x="877" y="501"/>
      <point x="804" y="499" type="curve" smooth="yes"/>
      <point x="715" y="495"/>
      <point x="646" y="451"/>
      <point x="646" y="359" type="curve" smooth="yes"/>
      <point x="646" y="315"/>
      <point x="662" y="286"/>
      <point x="701" y="286" type="curve" smooth="yes"/>
      <point x="746" y="286"/>
      <point x="729" y="314"/>
      <point x="721" y="362" type="curve" smooth="yes"/>
      <point x="714" y="406"/>
      <point x="764" y="433"/>
      <point x="805" y="434" type="curve" smooth="yes"/>
      <point x="863" y="435"/>
      <point x="891" y="385"/>
      <point x="888" y="304" type="curve" smooth="yes"/>
      <point x="886" y="249"/>
      <point x="864" y="180"/>
      <point x="818" y="135" type="curve"/>
      <point x="786" y="157"/>
      <point x="749" y="178"/>
      <point x="703" y="178" type="curve" smooth="yes"/>
      <point x="653" y="178"/>
      <point x="621" y="144"/>
      <point x="621" y="94" type="curve" smooth="yes"/>
      <point x="621" y="39"/>
      <point x="668" y="0"/>
    </contour>
    <contour>
      <point x="714" y="62" type="curve" smooth="yes"/>
      <point x="692" y="62"/>
      <point x="680" y="78"/>
      <point x="680" y="92" type="curve" smooth="yes"/>
      <point x="680" y="104"/>
      <point x="688" y="114"/>
      <point x="704" y="114" type="curve" smooth="yes"/>
      <point x="727" y="114"/>
      <point x="759" y="104"/>
      <point x="776" y="93" type="curve"/>
      <point x="756" y="73"/>
      <point x="730" y="62"/>
    </contour>
    <contour>
      <point x="375" y="-16" type="curve" smooth="yes"/>
      <point x="628" y="571" type="line" smooth="yes"/>
      <point x="646" y="611"/>
      <point x="588" y="649"/>
      <point x="563" y="593" type="curve" smooth="yes"/>
      <point x="310" y="20" type="line" smooth="yes"/>
      <point x="288" y="-30"/>
      <point x="357" y="-58"/>
    </contour>
    <contour>
      <point x="211" y="216" type="curve" smooth="yes"/>
      <point x="245" y="375"/>
      <point x="291" y="622"/>
      <point x="297" y="653" type="curve" smooth="yes"/>
      <point x="302" y="680"/>
      <point x="298" y="701"/>
      <point x="278" y="697" type="curve" smooth="yes"/>
      <point x="243" y="690"/>
      <point x="157" y="672"/>
      <point x="129" y="664" type="curve" smooth="yes"/>
      <point x="105" y="656"/>
      <point x="109" y="586"/>
      <point x="134" y="593" type="curve" smooth="yes"/>
      <point x="147" y="596"/>
      <point x="196" y="610"/>
      <point x="212" y="616" type="curve"/>
      <point x="188" y="503"/>
      <point x="168" y="409"/>
      <point x="131" y="228" type="curve" smooth="yes"/>
      <point x="123" y="184"/>
      <point x="205" y="187"/>
    </contour>
  </outline>
</glyph>
<glyph name="Agrave" format="1">
  <advance width="1920"/>
  <unicode hex="00C0"/>
  <outline>
    <contour>
      <point x="812" y="-175" type="curve" smooth="yes"/>
      <point x="1070" y="-175"/>
      <point x="1275" y="-29"/>
      <point x="1349" y="173" type="curve"/>
      <point x="1340" y="144"/>
      <point x="1335" y="117"/>
      <point x="1335" y="90" type="curve" smooth="yes"/>
      <point x="1335" y="-42"/>
      <point x="1390" y="-142"/>
      <point x="1526" y="-160" type="curve" smooth="yes"/>
      <point x="1678" y="-180"/>
      <point x="1838" y="-99"/>
      <point x="1934" y="13" type="curve" smooth="yes"/>
      <point x="1996" y="86"/>
      <point x="1893" y="222"/>
      <point x="1832" y="168" type="curve" smooth="yes"/>
      <point x="1771" y="114"/>
      <point x="1697" y="46"/>
      <point x="1646" y="46" type="curve" smooth="yes"/>
      <point x="1586" y="46"/>
      <point x="1578" y="164"/>
      <point x="1645" y="472" type="curve" smooth="yes"/>
      <point x="1848" y="1398" type="line" smooth="yes"/>
      <point x="1875" y="1523"/>
      <point x="1643" y="1584"/>
      <point x="1615" y="1459" type="curve" smooth="yes"/>
      <point x="1428" y="634" type="line" smooth="yes"/>
      <point x="1358" y="324"/>
      <point x="1151" y="49"/>
      <point x="849" y="49" type="curve" smooth="yes"/>
      <point x="660" y="49"/>
      <point x="508" y="160"/>
      <point x="461" y="357" type="curve" smooth="yes"/>
      <point x="290" y="1081"/>
      <point x="998.999" y="1794"/>
      <point x="1596" y="1734" type="curve" smooth="yes"/>
      <point x="1869" y="1707"/>
      <point x="2035" y="1540"/>
      <point x="2065" y="1535" type="curve"/>
      <point x="2172" y="1452"/>
      <point x="2293" y="1587"/>
      <point x="2190" y="1694" type="curve" smooth="yes"/>
      <point x="2064" y="1825"/>
      <point x="1845" y="1942"/>
      <point x="1584" y="1958" type="curve" smooth="yes"/>
      <point x="767" y="2008"/>
      <point x="3" y="1136"/>
      <point x="174" y="349" type="curve" smooth="yes"/>
      <point x="239" y="51"/>
      <point x="437" y="-175"/>
    </contour>
    <contour>
      <point x="1351" y="1928" type="curve" smooth="yes"/>
      <point x="1386" y="1928"/>
      <point x="1409" y="1959"/>
      <point x="1409" y="1995" type="curve" smooth="yes"/>
      <point x="1409" y="2013"/>
      <point x="1406" y="2029"/>
      <point x="1399" y="2043" type="curve"/>
      <point x="1330" y="2194"/>
      <point x="1274" y="2331"/>
      <point x="1207" y="2486" type="curve" smooth="yes"/>
      <point x="1191" y="2523"/>
      <point x="1159" y="2550"/>
      <point x="1112" y="2550" type="curve" smooth="yes"/>
      <point x="1034" y="2550"/>
      <point x="967" y="2492"/>
      <point x="967" y="2414" type="curve" smooth="yes"/>
      <point x="967" y="2384"/>
      <point x="978.999" y="2352"/>
      <point x="1004" y="2317" type="curve" smooth="yes"/>
      <point x="1066" y="2232"/>
      <point x="1138" y="2142"/>
      <point x="1205" y="2060" type="curve" smooth="yes"/>
      <point x="1240" y="2017"/>
      <point x="1283" y="1928"/>
    </contour>
  </outline>
</glyph>
<glyph name="Idieresis" format="1">
  <advance width="982"/>
  <unicode hex="00CF"/>
  <outline>
    <contour>
      <point x="402" y="-47" type="curve" smooth="yes"/>
      <point x="494" y="-47"/>
      <point x="580" y="-24"/>
      <point x="596" y="75" type="curve" smooth="yes"/>
      <point x="616" y="199"/>
      <point x="701" y="777"/>
      <point x="1027" y="1644" type="curve"/>
      <point x="1108" y="1648"/>
      <point x="1231" y="1650"/>
      <point x="1326" y="1655" type="curve" smooth="yes"/>
      <point x="1471" y="1663"/>
      <point x="1494" y="1878"/>
      <point x="1349" y="1870" type="curve" smooth="yes"/>
      <point x="1048" y="1859"/>
      <point x="882" y="1875"/>
      <point x="491" y="1839" type="curve" smooth="yes"/>
      <point x="385" y="1828"/>
      <point x="404" y="1634"/>
      <point x="509" y="1634" type="curve" smooth="yes"/>
      <point x="574" y="1634"/>
      <point x="762" y="1633"/>
      <point x="795" y="1633" type="curve"/>
      <point x="282" y="459"/>
      <point x="305" y="99.9999"/>
      <point x="308" y="60" type="curve" smooth="yes"/>
      <point x="314" y="-18"/>
      <point x="313" y="-47"/>
    </contour>
    <contour>
      <point x="60" y="-69" type="curve" smooth="yes"/>
      <point x="125" y="-63"/>
      <point x="480" y="-50"/>
      <point x="548" y="-35" type="curve"/>
      <point x="629" y="-31"/>
      <point x="752" y="-21"/>
      <point x="847" y="-16" type="curve" smooth="yes"/>
      <point x="991.999" y="-8"/>
      <point x="1015" y="199"/>
      <point x="870" y="191" type="curve" smooth="yes"/>
      <point x="569" y="180"/>
      <point x="433" y="183"/>
      <point x="42" y="147" type="curve" smooth="yes"/>
      <point x="-64" y="136"/>
      <point x="-45" y="-78"/>
    </contour>
    <contour>
      <point x="778" y="1928" type="curve" smooth="yes"/>
      <point x="882" y="1928"/>
      <point x="940" y="2001"/>
      <point x="940" y="2102" type="curve" smooth="yes"/>
      <point x="940" y="2197"/>
      <point x="889" y="2250"/>
      <point x="795" y="2250" type="curve" smooth="yes"/>
      <point x="692" y="2250"/>
      <point x="637" y="2178"/>
      <point x="637" y="2076" type="curve" smooth="yes"/>
      <point x="637" y="1978"/>
      <point x="685" y="1928"/>
    </contour>
    <contour>
      <point x="1245" y="1928" type="curve" smooth="yes"/>
      <point x="1350" y="1928"/>
      <point x="1407" y="2000"/>
      <point x="1407" y="2102" type="curve" smooth="yes"/>
      <point x="1407" y="2197"/>
      <point x="1357" y="2250"/>
      <point x="1262" y="2250" type="curve" smooth="yes"/>
      <point x="1159" y="2250"/>
      <point x="1104" y="2178"/>
      <point x="1104" y="2076" type="curve" smooth="yes"/>
      <point x="1104" y="1979"/>
      <point x="1154" y="1928"/>
    </contour>
  </outline>
</glyph>
<glyph name="Oslash" format="1">
  <advance width="1935"/>
  <unicode hex="00D8"/>
  <outline>
    <component base="O"/>
    <contour>
      <point x="330" y="-547" type="curve" smooth="yes"/>
      <point x="2041" y="2072" type="line"/>
      <point x="2108" y="2162"/>
      <point x="1972" y="2214"/>
      <point x="1937" y="2138" type="curve"/>
      <point x="183" y="-446" type="line"/>
      <point x="103" y="-585"/>
      <point x="263" y="-649"/>
    </contour>
  </outline>
</glyph>
<glyph name="Oslash" format="1">
  <advance width="1935"/>
  <unicode hex="00D8"/>
  <outline>
    <contour>
      <point x="103" y="-585"/>
      <point x="263" y="-649"/>
      <point x="330" y="-547" type="curve"/>
      <point x="2041" y="2072" type="line"/>
      <point x="2108" y="2162"/>
      <point x="1972" y="2214"/>
      <point x="1937" y="2138" type="curve"/>
      <point x="183" y="-446" type="line"/>
    </contour>
    <component base="O"/>
    <contour>
      <point x="1339" y="2030" type="move" name="top"/>
    </contour>
  </outline>
</glyph>
<glyph name="Thorn" format="1">
  <advance width="1216"/>
  <unicode hex="00DE"/>
  <outline>
    <contour>
      <point x="430" y="-355" type="curve" smooth="yes"/>
      <point x="829" y="-355"/>
      <point x="858" y="28"/>
      <point x="907" y="393" type="curve"/>
      <point x="1189" y="427"/>
      <point x="1526" y="544"/>
      <point x="1526" y="847" type="curve" smooth="yes"/>
      <point x="1526" y="1165"/>
      <point x="1282" y="1341"/>
      <point x="992.999" y="1380" type="curve"/>
      <point x="1008" y="1515" type="line"/>
      <point x="1079" y="1855" type="line"/>
      <point x="1079" y="1862"/>
      <point x="1080" y="1862"/>
      <point x="1080" y="1871" type="curve" smooth="yes"/>
      <point x="1080" y="1926"/>
      <point x="1046" y="1954"/>
      <point x="991.999" y="1954" type="curve" smooth="yes"/>
      <point x="807" y="1954"/>
      <point x="762" y="1671"/>
      <point x="756" y="1489" type="curve" smooth="yes"/>
      <point x="756" y="1458"/>
      <point x="751" y="1424"/>
      <point x="746" y="1383" type="curve"/>
      <point x="315" y="1324"/>
      <point x="93.9999" y="952"/>
      <point x="93.9999" y="457" type="curve" smooth="yes"/>
      <point x="93.9999" y="168"/>
      <point x="139" y="-355"/>
    </contour>
    <contour>
      <point x="452" y="-121" type="curve" smooth="yes"/>
      <point x="367" y="-121"/>
      <point x="362" y="184"/>
      <point x="362" y="336" type="curve" smooth="yes"/>
      <point x="362" y="483" type="line" smooth="yes"/>
      <point x="362" y="803"/>
      <point x="465" y="1081"/>
      <point x="723" y="1143" type="curve"/>
      <point x="706" y="969.999"/>
      <point x="672" y="780"/>
      <point x="672" y="608" type="curve"/>
      <point x="631" y="608"/>
      <point x="594" y="632"/>
      <point x="563" y="632" type="curve" smooth="yes"/>
      <point x="520" y="632"/>
      <point x="520" y="578"/>
      <point x="520" y="535" type="curve" smooth="yes"/>
      <point x="520" y="447"/>
      <point x="591" y="430"/>
      <point x="659" y="401" type="curve"/>
      <point x="659" y="242"/>
      <point x="616" y="-121"/>
    </contour>
    <contour>
      <point x="913" y="628" type="curve"/>
      <point x="967.999" y="1144" type="line"/>
      <point x="1143" y="1116"/>
      <point x="1291" y="1019"/>
      <point x="1291" y="824" type="curve" smooth="yes"/>
      <point x="1291" y="680"/>
      <point x="1058" y="643"/>
    </contour>
  </outline>
</glyph>
<glyph name="ecircumflex" format="1">
  <advance width="827"/>
  <unicode hex="00EA"/>
  <outline>
    <contour>
      <point x="758" y="1082" type="curve" smooth="yes"/>
      <point x="836" y="1082"/>
      <point x="885" y="1128"/>
      <point x="885" y="1195" type="curve" smooth="yes"/>
      <point x="885" y="1313"/>
      <point x="848" y="1403"/>
      <point x="825" y="1508" type="curve" smooth="yes"/>
      <point x="800" y="1622"/>
      <point x="780" y="1758"/>
      <point x="660" y="1758" type="curve" smooth="yes"/>
      <point x="506" y="1758"/>
      <point x="471" y="1640"/>
      <point x="416" y="1544" type="curve" smooth="yes"/>
      <point x="217" y="1215" type="line" smooth="yes"/>
      <point x="209" y="1202"/>
      <point x="205" y="1190"/>
      <point x="205" y="1177" type="curve" smooth="yes"/>
      <point x="205" y="1134"/>
      <point x="230" y="1086"/>
      <point x="265" y="1086" type="curve" smooth="yes"/>
      <point x="374" y="1086"/>
      <point x="403" y="1137"/>
      <point x="439" y="1214" type="curve" smooth="yes"/>
      <point x="500" y="1344"/>
      <point x="562" y="1463"/>
      <point x="626" y="1594" type="curve"/>
      <point x="639" y="1476"/>
      <point x="636" y="1082"/>
    </contour>
    <contour>
      <point x="461" y="-17" type="curve" smooth="yes"/>
      <point x="710" y="-24"/>
      <point x="945" y="131"/>
      <point x="1037" y="257" type="curve" smooth="yes"/>
      <point x="1102" y="345"/>
      <point x="995.999" y="419"/>
      <point x="952" y="376" type="curve" smooth="yes"/>
      <point x="716" y="149"/>
      <point x="364" y="97.9999"/>
      <point x="299" y="300" type="curve"/>
      <point x="633" y="388"/>
      <point x="827" y="494"/>
      <point x="827" y="717" type="curve" smooth="yes"/>
      <point x="827" y="873"/>
      <point x="706" y="966"/>
      <point x="552" y="966" type="curve" smooth="yes"/>
      <point x="271" y="966"/>
      <point x="64" y="648"/>
      <point x="64" y="377" type="curve" smooth="yes"/>
      <point x="64" y="105"/>
      <point x="261" y="-11"/>
    </contour>
    <contour>
      <point x="289" y="422" type="curve"/>
      <point x="289" y="587"/>
      <point x="420" y="775"/>
      <point x="564" y="775" type="curve" smooth="yes"/>
      <point x="612" y="775"/>
      <point x="656" y="751"/>
      <point x="649" y="681" type="curve" smooth="yes"/>
      <point x="638" y="571"/>
      <point x="409" y="464"/>
    </contour>
  </outline>
</glyph>
<glyph name="icircumflex" format="1">
  <advance width="537"/>
  <unicode hex="00EE"/>
  <outline>
    <contour>
      <point x="469" y="1082" type="curve" smooth="yes"/>
      <point x="547" y="1082"/>
      <point x="596" y="1128"/>
      <point x="596" y="1195" type="curve" smooth="yes"/>
      <point x="596" y="1313"/>
      <point x="559" y="1403"/>
      <point x="536" y="1508" type="curve" smooth="yes"/>
      <point x="511" y="1622"/>
      <point x="491" y="1758"/>
      <point x="371" y="1758" type="curve" smooth="yes"/>
      <point x="217" y="1758"/>
      <point x="182" y="1640"/>
      <point x="127" y="1544" type="curve" smooth="yes"/>
      <point x="-72" y="1215" type="line" smooth="yes"/>
      <point x="-80" y="1202"/>
      <point x="-84" y="1190"/>
      <point x="-84" y="1177" type="curve" smooth="yes"/>
      <point x="-84" y="1134"/>
      <point x="-59" y="1086"/>
      <point x="-24" y="1086" type="curve" smooth="yes"/>
      <point x="85" y="1086"/>
      <point x="114" y="1137"/>
      <point x="150" y="1214" type="curve" smooth="yes"/>
      <point x="211" y="1344"/>
      <point x="273" y="1463"/>
      <point x="337" y="1594" type="curve"/>
      <point x="350" y="1476"/>
      <point x="347" y="1082"/>
    </contour>
    <contour>
      <point x="282" y="0" type="curve" smooth="yes"/>
      <point x="466" y="0"/>
      <point x="636" y="121"/>
      <point x="736" y="213" type="curve"/>
      <point x="736" y="416" type="line"/>
      <point x="658" y="352"/>
      <point x="534" y="192"/>
      <point x="403" y="192" type="curve" smooth="yes"/>
      <point x="357" y="192"/>
      <point x="352" y="240"/>
      <point x="352" y="290" type="curve" smooth="yes"/>
      <point x="352" y="514"/>
      <point x="486" y="695"/>
      <point x="486" y="903" type="curve" smooth="yes"/>
      <point x="486" y="945"/>
      <point x="462" y="960"/>
      <point x="414" y="960" type="curve" smooth="yes"/>
      <point x="335" y="960"/>
      <point x="248" y="928"/>
      <point x="232" y="863" type="curve" smooth="yes"/>
      <point x="182" y="661"/>
      <point x="95.9999" y="438"/>
      <point x="95.9999" y="201" type="curve" smooth="yes"/>
      <point x="95.9999" y="71"/>
      <point x="151" y="0"/>
    </contour>
  </outline>
</glyph>
<glyph name="eth" format="1">
  <advance width="1089"/>
  <unicode hex="00F0"/>
  <outline>
    <contour>
      <point x="510" y="0" type="curve" smooth="yes"/>
      <point x="571" y="0"/>
      <point x="628" y="11"/>
      <point x="682" y="34" type="curve" smooth="yes"/>
      <point x="979.999" y="161"/>
      <point x="1126" y="532"/>
      <point x="1126" y="958" type="curve" smooth="yes"/>
      <point x="1126" y="1093"/>
      <point x="1102" y="1213"/>
      <point x="1062" y="1314" type="curve"/>
      <point x="1182" y="1366" type="line" smooth="yes"/>
      <point x="1229" y="1386"/>
      <point x="1267" y="1414"/>
      <point x="1267" y="1466" type="curve" smooth="yes"/>
      <point x="1267" y="1520"/>
      <point x="1239" y="1567"/>
      <point x="1187" y="1567" type="curve" smooth="yes"/>
      <point x="1167" y="1567"/>
      <point x="1150" y="1561"/>
      <point x="1136" y="1555" type="curve" smooth="yes"/>
      <point x="970.999" y="1483" type="line"/>
      <point x="871" y="1619"/>
      <point x="723" y="1729"/>
      <point x="491" y="1729" type="curve" smooth="yes"/>
      <point x="410" y="1729"/>
      <point x="346" y="1696"/>
      <point x="346" y="1618" type="curve" smooth="yes"/>
      <point x="346" y="1567"/>
      <point x="376" y="1506"/>
      <point x="426" y="1506" type="curve" smooth="yes"/>
      <point x="569" y="1506"/>
      <point x="671" y="1461"/>
      <point x="743" y="1384" type="curve"/>
      <point x="577" y="1313" type="line" smooth="yes"/>
      <point x="541" y="1297"/>
      <point x="511" y="1277"/>
      <point x="511" y="1236" type="curve" smooth="yes"/>
      <point x="511" y="1183"/>
      <point x="554" y="1126"/>
      <point x="609" y="1126" type="curve" smooth="yes"/>
      <point x="623" y="1126"/>
      <point x="638" y="1129"/>
      <point x="653" y="1136" type="curve" smooth="yes"/>
      <point x="715" y="1163"/>
      <point x="775" y="1190"/>
      <point x="837" y="1216" type="curve"/>
      <point x="860" y="1144"/>
      <point x="872" y="1063"/>
      <point x="872" y="967.999" type="curve" smooth="yes"/>
      <point x="872" y="961" type="line"/>
      <point x="807" y="980.999"/>
      <point x="733" y="990.999"/>
      <point x="645" y="990.999" type="curve" smooth="yes"/>
      <point x="599" y="990.999"/>
      <point x="552" y="982.999"/>
      <point x="506" y="967" type="curve" smooth="yes"/>
      <point x="297" y="895"/>
      <point x="64" y="693"/>
      <point x="64" y="416" type="curve" smooth="yes"/>
      <point x="64" y="153"/>
      <point x="252" y="0"/>
    </contour>
    <contour>
      <point x="542" y="192" type="curve" smooth="yes"/>
      <point x="388" y="192"/>
      <point x="290" y="266"/>
      <point x="290" y="416" type="curve" smooth="yes"/>
      <point x="290" y="607"/>
      <point x="470" y="767"/>
      <point x="661" y="767" type="curve" smooth="yes"/>
      <point x="740" y="767"/>
      <point x="797" y="753"/>
      <point x="847" y="729" type="curve"/>
      <point x="815" y="559"/>
      <point x="734" y="192"/>
    </contour>
  </outline>
</glyph>
<glyph name="ocircumflex" format="1">
  <advance width="920"/>
  <unicode hex="00F4"/>
  <outline>
    <contour>
      <point x="828" y="1082" type="curve" smooth="yes"/>
      <point x="906" y="1082"/>
      <point x="955" y="1128"/>
      <point x="955" y="1195" type="curve" smooth="yes"/>
      <point x="955" y="1313"/>
      <point x="918" y="1403"/>
      <point x="895" y="1508" type="curve" smooth="yes"/>
      <point x="870" y="1622"/>
      <point x="850" y="1758"/>
      <point x="730" y="1758" type="curve" smooth="yes"/>
      <point x="576" y="1758"/>
      <point x="541" y="1640"/>
      <point x="486" y="1544" type="curve" smooth="yes"/>
      <point x="287" y="1215" type="line" smooth="yes"/>
      <point x="279" y="1202"/>
      <point x="275" y="1190"/>
      <point x="275" y="1177" type="curve" smooth="yes"/>
      <point x="275" y="1134"/>
      <point x="300" y="1086"/>
      <point x="335" y="1086" type="curve" smooth="yes"/>
      <point x="444" y="1086"/>
      <point x="473" y="1137"/>
      <point x="509" y="1214" type="curve" smooth="yes"/>
      <point x="570" y="1344"/>
      <point x="632" y="1463"/>
      <point x="696" y="1594" type="curve"/>
      <point x="709" y="1476"/>
      <point x="706" y="1082"/>
    </contour>
    <contour>
      <point x="375" y="-16" type="curve" smooth="yes"/>
      <point x="669" y="-16"/>
      <point x="797" y="220"/>
      <point x="837" y="374" type="curve"/>
      <point x="939" y="383"/>
      <point x="1137" y="452"/>
      <point x="1222" y="536" type="curve" smooth="yes"/>
      <point x="1268" y="582"/>
      <point x="1197" y="725"/>
      <point x="1143" y="689" type="curve" smooth="yes"/>
      <point x="1057" y="632"/>
      <point x="987.999" y="581"/>
      <point x="864" y="563" type="curve"/>
      <point x="915" y="790"/>
      <point x="776" y="966"/>
      <point x="588" y="966" type="curve" smooth="yes"/>
      <point x="304" y="966"/>
      <point x="64" y="672"/>
      <point x="64" y="353" type="curve" smooth="yes"/>
      <point x="64" y="148"/>
      <point x="175" y="-16"/>
    </contour>
    <contour>
      <point x="439" y="172" type="curve" smooth="yes"/>
      <point x="327" y="172"/>
      <point x="290" y="258"/>
      <point x="290" y="365" type="curve" smooth="yes"/>
      <point x="290" y="537"/>
      <point x="403" y="766"/>
      <point x="560" y="766" type="curve" smooth="yes"/>
      <point x="603" y="766"/>
      <point x="628" y="718"/>
      <point x="625" y="714" type="curve" smooth="yes"/>
      <point x="511" y="566"/>
      <point x="526" y="490"/>
      <point x="656" y="428" type="curve"/>
      <point x="645" y="321"/>
      <point x="549" y="172"/>
    </contour>
  </outline>
</glyph>
<glyph name="divide" format="1">
  <advance width="1025"/>
  <unicode hex="00F7"/>
  <outline>
    <contour>
      <point x="218" y="545" type="curve" smooth="yes"/>
      <point x="820" y="545" type="line" smooth="yes"/>
      <point x="891" y="545"/>
      <point x="927" y="587"/>
      <point x="927" y="660" type="curve" smooth="yes"/>
      <point x="927" y="710"/>
      <point x="888" y="737"/>
      <point x="832" y="737" type="curve" smooth="yes"/>
      <point x="234" y="737" type="line" smooth="yes"/>
      <point x="162" y="737"/>
      <point x="94.9999" y="703"/>
      <point x="94.9999" y="635" type="curve" smooth="yes"/>
      <point x="94.9999" y="573"/>
      <point x="153" y="545"/>
    </contour>
    <contour>
      <point x="478" y="121" type="curve" smooth="yes"/>
      <point x="597" y="121"/>
      <point x="666" y="197"/>
      <point x="666" y="312" type="curve" smooth="yes"/>
      <point x="666" y="418"/>
      <point x="605" y="474"/>
      <point x="497" y="474" type="curve" smooth="yes"/>
      <point x="380" y="474"/>
      <point x="314" y="398"/>
      <point x="314" y="283" type="curve" smooth="yes"/>
      <point x="314" y="176"/>
      <point x="372" y="121"/>
    </contour>
    <contour>
      <point x="538" y="793" type="curve" smooth="yes"/>
      <point x="657" y="793"/>
      <point x="726" y="869"/>
      <point x="726" y="983.999" type="curve" smooth="yes"/>
      <point x="726" y="1090"/>
      <point x="665" y="1146"/>
      <point x="557" y="1146" type="curve" smooth="yes"/>
      <point x="440" y="1146"/>
      <point x="374" y="1070"/>
      <point x="374" y="955" type="curve" smooth="yes"/>
      <point x="374" y="848"/>
      <point x="432" y="793"/>
    </contour>
  </outline>
</glyph>
